<svg width="15" height="15" viewBox="0 0 15 15" fill="none" xmlns="http://www.w3.org/2000/svg">
<path d="M14.9928 11.836C15.0246 12.0796 14.9504 12.2913 14.7705 12.4712L12.6586 14.5672C12.5633 14.6731 12.4389 14.7632 12.2854 14.8372C12.1319 14.9113 11.9811 14.9589 11.8329 14.9801C11.8223 14.9801 11.7905 14.9828 11.7376 14.9881C11.6847 14.9934 11.6159 14.9961 11.5312 14.9961C11.33 14.9961 11.0045 14.9617 10.5545 14.8928C10.1046 14.824 9.55416 14.6546 8.90315 14.3847C8.25199 14.1147 7.51362 13.7098 6.68792 13.1699C5.86221 12.6301 4.98352 11.889 4.05193 10.9468C3.31089 10.2163 2.69688 9.51764 2.20991 8.85073C1.72295 8.18377 1.33125 7.56712 1.03484 7.00075C0.738394 6.43439 0.516082 5.92095 0.367874 5.46045C0.219666 4.99994 0.119096 4.60296 0.0661643 4.26949C0.0132329 3.93602 -0.00793972 3.67401 0.00264657 3.48346C0.0132329 3.2929 0.018526 3.18704 0.018526 3.16587C0.0396986 3.01766 0.0873369 2.86681 0.161441 2.7133C0.235545 2.5598 0.325529 2.43541 0.431391 2.34014L2.54336 0.228172C2.69157 0.0799634 2.86095 0.00585938 3.0515 0.00585938C3.18912 0.00585938 3.31086 0.045558 3.41673 0.124955C3.52259 0.204352 3.61257 0.302276 3.68668 0.418725L5.38578 3.64225C5.48105 3.81163 5.50752 3.99689 5.46517 4.19803C5.42283 4.39917 5.33285 4.56855 5.19522 4.70617L4.41713 5.48427C4.39596 5.50544 4.37743 5.53984 4.36155 5.58748C4.34567 5.63512 4.33773 5.67482 4.33773 5.70658C4.38008 5.92889 4.47536 6.18296 4.62356 6.46879C4.7506 6.72286 4.94645 7.03251 5.2111 7.39774C5.47576 7.76297 5.85157 8.18375 6.33854 8.66013C6.81493 9.14715 7.23838 9.52556 7.6089 9.79556C7.97934 10.0654 8.28909 10.264 8.53787 10.391C8.78665 10.518 8.9772 10.5948 9.10951 10.6212L9.30795 10.6609C9.32912 10.6609 9.3636 10.6529 9.41119 10.6371C9.45883 10.6212 9.49323 10.6027 9.51443 10.5815L10.4195 9.66048C10.6102 9.49113 10.8324 9.40644 11.0865 9.40644C11.2665 9.40644 11.4094 9.43817 11.5152 9.50171H11.5311L14.5958 11.312C14.8182 11.4497 14.9505 11.6243 14.9928 11.836Z" fill="white"/>
</svg>
