<svg width="660" height="280" viewBox="0 0 660 280" fill="none" xmlns="http://www.w3.org/2000/svg">
<mask id="mask0" mask-type="alpha" maskUnits="userSpaceOnUse" x="0" y="0" width="640" height="280">
<rect width="640" height="280" rx="6" fill="#54A0FF"/>
</mask>
<g mask="url(#mask0)">
<path opacity="0.7" d="M696 125.8C700.2 130 692.4 136.5 692.4 136.5C692.4 136.5 681.7 144.8 680.2 145.9C678.7 146.9 673.3 149.9 672.7 151.4C672.1 152.9 668.5 154.7 668.5 154.7C668.5 154.7 648.4 171.2 644.4 171.5C637.4 172 626.7 175.3 626.7 175.3C626.7 175.3 549.9 211.9 510.8 233.7C493 243.6 494.7 248.9 494.4 249.1C489.2 251.8 477.8 249.3 472.1 252.1C466.4 254.9 449.6 263.3 449.6 263.3C449.6 263.3 449.6 263.3 435.8 266.5C422 269.7 400.4 262.5 394.5 261C388.5 259.5 388.1 258 382.7 257.1C377.3 256.2 367.2 251.4 367.2 251.4L346.5 238C346.5 238 345.9 238 344.1 235.3C342.3 232.6 340.8 233.1 337.8 230.1C334.8 227.1 331.4 224.4 330.9 215C330.4 204.9 336.7 183.1 342.4 180.2C348.1 177.4 386.8 148.1 388.9 147.9C391 147.8 468.4 105.6 468.4 105.6C468.4 105.6 515.8 119.4 519.4 117.6C523 115.8 558.2 99.4 558.2 99.4C558.2 99.4 561.8 97.6 564.8 97.3C567.8 97 573.7 94.3 575.8 93.6C577.9 92.9 594.6 87.5 594.6 87.5C594.6 87.5 607.7 83.6 616.1 85.7C624.4 87.8 660.8 103.3 660.8 103.3C660.8 103.3 691.8 121.7 696 125.8Z" fill="url(#paint0_linear)"/>
<path d="M345.3 174.1C345.3 174.1 340 176.9 340.5 188.9C340.6 192.2 343.9 211.2 347.3 215.2C357.8 227.6 394.2 243.2 407.1 248.5C424.1 255.5 452.4 251.8 474.9 240.8C474.9 240.8 469.6 231.2 473.8 219.7L345.3 174.1Z" fill="url(#paint1_linear)"/>
<path d="M689 103.6C687.9 106.7 684.6 109.5 684.6 109.5C684.6 109.5 673.9 117.8 672.4 118.9C670.9 119.9 619 148.3 619 148.3C619 148.3 508 200.9 507.7 202C507.4 203 459.7 225.4 445.9 228.6C432.1 231.8 410.5 224.6 404.6 223.1C401.4 222.3 396.6 220.4 391.2 217.9C386.5 215.8 381.5 213.3 376.7 210.9C370.8 207.9 365.8 205.1 361.9 202.7C359.2 201.1 357.1 199.7 355.6 198.6C353 196.7 344.3 189.5 343.1 183.3L343.4 180.8C343.1 170.5 370.9 135.5 404.1 119C437.2 102.5 552.4 48.9 552.4 48.9L579.7 36C579.7 36 596.2 26.4 609.6 32.4C625.9 39.7 665.2 61.6 681 70.4C693 77.1 689 103.6 689 103.6Z" fill="#1772C1"/>
<path d="M588.9 46.9C588.9 46.9 605.9 35.2 608.9 35.2C611.9 35.2 658.9 61.2 658.9 61.2C658.9 61.2 652.4 63.5999 644.4 69.5999C637.2 75 628.9 82.5999 628.9 82.5999L588.9 46.9Z" fill="#166EBA"/>
<path d="M637.1 79.8002C637.1 79.8002 645 72.4002 649.6 69.3002C654.3 66.2002 662.7 63.2002 662.7 63.2002L658.2 61.2002C658.2 61.2002 649.6 65.6002 644.5 69.7002C639.4 73.8002 637.2 75.5002 637.2 75.5002L637.1 79.8002Z" fill="#166DB7"/>
<path d="M609.3 34.7C609.3 34.7 600 39.8 595.3 42.8C590.6 45.8 587.4 47.5 587.4 47.5L579.2 42.8C579.2 42.8 595.2 35.7 598 35C600.8 34.3 603.4 32.8 609.3 34.7Z" fill="#0062C6"/>
<path d="M409.2 118.5C409.2 118.5 405.4 99.8 412.5 98.9C417.3 98.3 422.7 108.3 422.7 108.3L409.2 118.5Z" fill="#004489"/>
<path d="M556.8 38.9L541.9 108.7C522.8 117.7 448.5 82.7 448.5 82.7C435.2 91.2 411.9 116.7 411.9 116.7L411.4 118.1C409.3 121.3 409.3 124.8 412.2 128.3C417.3 134.3 444.2 149.3 444.2 149.3C444.2 149.3 474.3 162.8 486.3 165.3C498.3 167.8 510.6 165.1 519.7 161.7C530.5 157.8 567.9 139.8 583.2 131.4C591.6 126.8 617 110 617 110C617 110 637 96 638 82.5C638.3 78 642.8 76.9 622.5 62.1C620.2 60.9 600 50.1 588.2 44.1C576.9 38.3 556.8 38.9 556.8 38.9Z" fill="#4D4D4D"/>
<path d="M605.6 82.6001C605.6 82.6001 611.9 82.1001 622.4 82.8001C632.5 83.5001 635.9 89.2001 635.9 89.2001C635.9 89.2001 638.1 84.7001 638.6 79.4001C639.2 73.5001 632.1 69.4001 632.1 69.4001C632.1 69.4001 627.7 69.0001 618.2 72.5001C617 73.0001 616.1 73.0001 615.9 72.2001C606.7 75.3001 598.9 81.2001 598.9 81.2001L605.6 82.6001Z" fill="#1567AF"/>
<path d="M446.9 86.4998L416.5 114.7C416.5 114.7 444.8 104.7 451.5 101.4C458.2 98.0998 480.3 87.0998 480.3 87.0998L479.8 68.7998L446.9 86.4998Z" fill="#A3A3A3"/>
<path d="M616.1 74.6002C615 78.4002 591.1 90.6002 591.1 90.6002C591.1 90.6002 544.2 116.3 537 119.7C529.8 123.1 519.5 124.7 509.6 122.6C499.7 120.5 475 109.5 475 109.5C475 109.5 452.9 97.2002 448.8 92.2002C444.6 87.3002 447.8 82.1002 454.6 78.5002C461.4 74.9002 516.8 48.6002 516.8 48.6002C516.8 48.6002 544.6 38.1002 551.9 38.3002C559.2 38.6002 574.4 41.4002 590.3 49.6002C604.8 57.2002 617.4 70.1002 616.1 74.6002Z" fill="#1772C1"/>
<path d="M518.3 222.9L629.1 169.1C629.1 169.1 623.2 155.5 630.4 142.6C581.4 165.2 517.4 197.3 517.4 197.3C517.4 197.3 520.9 203.9 518.3 222.9Z" fill="#1772C1"/>
<path d="M410.3 120.2C410.3 120.2 447.2 82.7 446.9 86.5C453.4 83.5 452.9 79.2 452.9 79.2C452.9 79.2 445 84 438.4 89.7C431.8 95.4 412.3 115.2 412.3 115.2C412.3 115.2 410.8 116.9 410.3 120.2Z" fill="#0055AA"/>
<path d="M536.5 114.6C532.2 118.4 524.8 126 518.7 134.9C512.2 144.6 504.8 157.9 498.9 167.3C502.9 167.3 508.9 167.3 508.9 167.3L537.8 118.9L536.5 114.6Z" fill="#1772C1"/>
<path d="M410.3 125.9C410.3 125.9 395.8 134.4 383.8 148.7C371.8 163 363.2 184.7 362.2 190.2C361.1 196.1 361.2 201.1 362.6 202C365 203.6 364.3 203.2 364.3 203.2C364.3 203.2 409.5 129.1 411.2 128.1C412.8 127.1 410.3 125.9 410.3 125.9Z" fill="url(#paint2_linear)"/>
<path d="M486.2 165.2C458.4 175.9 400.1 217.4 392.1 217.5C387.4 215.4 382.4 212.9 377.6 210.5C371.7 207.5 367.9 205.4 364.1 203.1C363.7 202.8 363.6 201.8 363.6 201.8C363.6 201.8 361.6 193.1 367.2 180.9C375.4 163.1 392.9 138.6 411.6 127C431.8 147.3 469.8 160.1 486.2 165.2Z" fill="url(#paint3_linear)"/>
<path d="M392.2 217.6C392.2 217.6 395.2 216.6 398.3 215C401.5 213.4 422.3 201.2 426.9 198.4C432.3 195.1 460.6 177.7 467.3 174.1C474 170.5 485.8 165.2 485.8 165.2L487.3 165.5C487.3 165.5 485.4 166.6 476.8 170.6C468.1 174.6 423.3 202.8 411.5 209.3C399.6 215.8 393.4 218.2 393.4 218.2L392.2 217.6Z" fill="#1566AD"/>
<path d="M684.5 76.7999C688.3 82.2999 689.3 100.9 688.9 104.7C688.6 107.6 678 114.8 678 114.8C678 114.8 692 107.6 692.9 101.9C693.4 105.6 693.3 120.6 688.8 127.5C685.4 132.6 679.9 138.3 676.2 141.4C674.4 142.9 671.3 134.4 671.3 134.4L632.3 161.1L628.4 163.9L629.1 169.1L519.8 222.1L517.5 218.4L472 242.1C472 242.1 458.5 247.1 449.9 248.4C445.9 249 445 251 444.6 243.9C444.3 238.4 444.4 235.2 444.3 232.6C444.2 231.6 442.2 229.8 443.4 229.8C444.9 229.9 449.7 229.5 454.6 226.8C447.9 228.9 442.1 228.9 440.8 228.9C442.2 227.1 448 219.7 457.4 210.8C467.6 201 490.4 185.8 505.1 177.3C519.8 168.8 578.7 142.5 596.6 132.3C621.5 118.1 649.1 97.9999 656.4 93.2999C663.7 88.5999 680.8 71.2999 684.5 76.7999Z" fill="url(#paint4_linear)"/>
<path d="M346.3 187.5C346.3 187.5 345.2 184.8 346.2 181.9C347.2 179 358.2 159.6 365.6 151.5C378.7 137.4 401.4 121.7 407 118.8C412.6 115.9 414.2 114.6 414.2 114.6C414.2 114.6 433.7 93.2002 443.4 86.5002C453 79.8002 491.1 61.8002 496.4 59.3002C501.7 56.8002 516 50.6002 518.6 49.4002C529.5 44.5002 547.4 39.5002 550.1 39.6002C552.8 39.8002 559.1 40.0002 561 40.9002C562.9 41.9002 556.1 37.9002 550 38.3002C539.7 39.0002 528.6 43.3002 518.1 47.9002C512.7 50.3002 458.4 76.3002 452.9 79.3002C447.4 82.3002 445.2 84.5002 442.6 86.3002C440 88.1002 412.9 114.7 412.9 114.7C412.9 114.7 399.1 121.8 390.7 127.3C377.5 136 365.5 147.6 355.4 159.9C345.1 172.2 342 181 346.3 187.5Z" fill="#4F66C1"/>
<path d="M676.3 141.4C676.3 141.4 676.2 141.4 676.1 141.4C674.6 142 672.6 141 671 140.1C670.9 140 670.8 140 670.6 139.9C670.3 139.7 670 139.6 669.7 139.4C669.1 139.1 668.6 138.9 668.4 139.1C668.3 139.1 668.1 139.2 667.9 139.3C667 139.7 665.2 140.4 663.7 141C662.1 141.7 660.7 142.2 660.7 142.2L659.1 143.2L656.5 144.9L652.9 147.3L650.4 148.9L648 150.5L642.1 154.4L640.1 155.7L639.2 156.3L630.5 162.1L629.4 162.8L628.4 163.5C628.4 163.5 628.5 165 628.8 167.3C628.8 167.3 628.8 167.4 628.8 167.5C628.9 167.9 628.9 168.3 629 168.8C628.9 168.6 628.7 168.1 628.5 167.4C628.5 167.3 628.5 167.3 628.4 167.2C628.1 166.4 627.8 165.2 627.4 163.8C626.6 160.5 626.1 155.7 627.2 149.3C627.6 147 628.2 144.4 629.1 141.7C630.6 137.1 632.7 133.3 635 130.2C635.2 129.9 635.4 129.7 635.6 129.4C637.8 126.5 640.2 124.3 642.4 122.5C642.6 122.3 642.8 122.1 643.1 122C646.4 119.5 649.2 118 650.5 117.3C652.8 116 657.1 114.2 661.7 114C662 114 662.3 114 662.5 114C666.1 114 669.9 115.1 673 118.3C680.6 126 676.3 141.4 676.3 141.4Z" fill="#103C5E"/>
<path d="M496.4 194.3C496.4 194.3 502.7 191.2 507.6 191.2C507.6 191.2 513.5 191.3 515.9 192.7C518.3 194.1 512.6 189.9 506.8 190.1C501 190.3 497.5 192.8 496.4 194.3Z" fill="#809FCE"/>
<path d="M344.4 176.3C344.4 176.3 343.8 183.8 345.3 186.6C346.8 189.4 348 191.8 349.6 193.2C356.2 199.5 368.2 206.6 380.1 212.7C392 218.8 402.8 223.8 421.4 227.6C437.7 230.9 443.4 229.9 443.4 229.9C443.4 229.9 445.7 231.4 445.7 231.8C445.7 232.2 434.5 232.8 420.2 229.3C407 226.1 391.3 220.6 379.3 214C372.9 210.5 354.3 199.9 348.3 194.2C346.3 192.3 345 188.6 344.2 185.5C343.4 182.4 344.4 176.3 344.4 176.3Z" fill="#1A5DB2"/>
<path d="M474.9 106.2C462.9 99.5001 442.2 87.5001 449.6 82.0001C451.6 80.2001 512.4 51.5001 524.1 47.0001C535.8 42.5001 544.6 38.7001 553.8 39.5001C563 40.3001 583.6 46.7001 592.6 52.3001C601.6 57.9001 616.6 71.6001 613.4 74.1001C610.2 76.6001 590.4 86.8001 581.1 91.6001C571.8 96.4001 546.8 110.1 540.4 114.1C534.1 118.1 524.7 122.4 514.9 120.6C505.1 118.9 486.9 112.9 474.9 106.2Z" fill="url(#paint5_linear)"/>
<path d="M625.7 154.5C625.7 154.5 625.6 159.3 625.8 160.9C626 162.5 627.2 168.1 627.2 168.1L595.3 183.5C595.3 183.5 595.6 182.2 597.5 181C599.4 179.8 620.7 168.1 622.5 164.1C624.3 160.1 625.3 155.7 625.7 154.5Z" fill="#155182"/>
<path d="M521.7 197.9C521.7 197.9 524.9 199.9 525.9 205.4C526.9 210.9 523.7 219.4 523.7 219.4L520.2 222.1C520.2 222.1 523.9 204.1 521.7 197.9Z" fill="#155587"/>
<path d="M487.3 188.6C487.3 188.6 507.8 176.8 516.1 172.1C524.4 167.4 568.6 146.6 579.9 141.1C591.2 135.6 639.4 104.8 647.9 99.1001C656.4 93.4001 668.7 83.1001 668.7 83.1001C668.7 83.1001 635.7 109.9 605.4 127.6C575.1 145.3 548.1 158.6 537.9 163.1C527.7 167.6 511.5 176.1 487.3 188.6Z" fill="#809FCE"/>
<path d="M530.9 119C530.8 119.1 540.7 114.3 547.2 110.7C551 108.6 581.6 91.7001 585.1 89.8001C588.6 87.9001 608.9 77.2001 610.3 76.1001C611.7 75.1001 613 74.6001 613 73.9001C613 73.2001 591.8 84.6001 588.3 86.5001C584.8 88.4001 548.5 108.8 546.3 109.9C544.3 110.9 533.6 117.5 530.9 119Z" fill="#809FCE"/>
<path d="M409.8 118.2C409.8 118.2 392 134.4 383.8 144.9C375.6 155.4 366.8 177.7 366.8 177.7C366.8 177.7 382.8 146.9 395 137C407.2 127.2 410.3 125.8 410.3 125.8C410.3 125.8 407.7 119.8 409.8 118.2Z" fill="#005BB7"/>
<path d="M417.1 206.2C417.1 206.2 452.4 184.5 459.4 180.4C466.4 176.3 487.3 165.5 487.3 165.5C487.3 165.5 490.8 166.3 492.1 166.3C493.4 166.3 464.9 179.6 460.3 181.6C455.6 183.6 417.1 206.2 417.1 206.2Z" fill="#005BB7"/>
<path d="M499.5 166.1C499.5 166.1 501.8 165.9 503.4 165.7C504.6 165.5 510 153.8 517.7 141.4C520.8 136.5 532.6 119.5 532.6 119.5C532.6 119.5 528.2 123.1 522.7 123.3C522.7 123.3 523.5 123.4 523.2 124.3C522.1 127.1 518.5 133.9 514.8 139.5C510.1 146.8 502.8 161.6 499.5 166.1Z" fill="#0055AA"/>
<path d="M596.5 30.8002C596.5 30.8002 605 30.0002 610.6 32.6002C616.2 35.2002 659.9 58.3002 659.9 58.3002L679.2 69.0002C679.2 69.0002 683.1 71.6002 684.1 72.8002C679.6 72.2002 661.4 62.0002 658.3 60.5002C655.2 59.0002 613.1 35.7002 609.1 33.9002C606.1 32.6002 601.2 30.7002 596.5 30.8002Z" fill="#639FD3"/>
<path opacity="0.4" d="M443.5 228.1C443.5 228.1 452.8 211.6 474 197.8C495.2 184 546.8 157.3 561.5 150.3C576.2 143.3 627.8 113.5 637.8 106.3C647.8 99.1001 670.1 81.8001 675.6 78.5001C681.1 75.2001 685.1 73.2001 686.1 76.0001C687.1 78.8001 689.4 81.0001 689.4 85.3001C689.4 89.6001 690.4 101.6 686.9 105.6C683.4 109.6 675.9 114.9 675.9 114.9C675.9 114.9 669.4 103.1 650.9 113.4C632.4 123.7 626.1 138.7 624.9 147.7C623.7 156.7 527.9 202.8 525.4 201.7C522.9 200.6 517 181.5 497.9 190.4C473.5 201.8 470.4 225.8 470.4 225.8L445.7 231.8C445.5 231.7 441.8 231.3 443.5 228.1Z" fill="url(#paint6_linear)"/>
<path d="M359.9 189.3C359.9 189.3 368.6 162.9 375.2 154.5C362.9 167.1 357.6 177.6 357.6 177.6C357.6 177.6 360 186.2 359.9 189.3Z" fill="#2A71D3"/>
<path d="M397.5 238.7C397.5 239.3 397.4 239.8 396.9 240C396.3 240.3 384 235.5 376.1 231.6C367.8 227.4 359.7 222.9 358.9 221.3C358.1 219.6 358.9 217.9 358.9 217.9C358.9 217.9 359.2 218.1 359.6 218.4C362 219.9 370 224.8 377.2 228.2C383.8 231.4 396.8 236.7 396.8 236.7C396.8 236.7 397.5 237.7 397.5 238.7Z" fill="#003E72"/>
<path d="M491.7 155.3C490.2 155.3 488.7 155.1 487.1 154.6C479.6 152.3 473.7 145.4 473.8 138.8C473.9 133.6 477.9 129.9 483.6 129.9C485.1 129.9 486.6 130.1 488.2 130.6C495.7 132.9 501.5 139.8 501.5 146.4C501.4 151.7 497.4 155.3 491.7 155.3ZM483.6 132.9C479.5 132.9 476.8 135.2 476.8 138.8C476.7 144 481.7 149.8 488 151.7C489.3 152.1 490.5 152.3 491.7 152.3C495.8 152.3 498.5 150 498.5 146.4C498.6 141.2 493.6 135.4 487.3 133.5C486 133.1 484.8 132.9 483.6 132.9Z" fill="#404040"/>
<path d="M507.1 152.7C507.1 152.7 499.1 149.9 498.1 148.9C497.1 147.9 495 142.5 492.3 141.5C489.6 140.5 477 134.8 477 134.8C477 134.8 473.2 133.3 470.5 134.8C467.8 136.3 460 132.7 453.6 129.6C448.4 127 423.6 116 423.6 116C423.6 116 411.3 119.3 411.1 121.5C410.9 123.7 427.4 136.3 432.6 139.3C437.8 142.3 478.3 159.8 487.3 162.1C496.3 164.4 500.8 163.4 500.8 163.4L507.1 152.7Z" fill="#404040"/>
<path d="M411.4 119.4C411.4 119.4 419 129.8 432.9 137.9C438.7 141.3 477 157.5 483.6 159.5C490.2 161.5 501.4 162.8 501.4 162.8L499.5 166.1C499.5 166.1 489.7 167.3 478.4 162.8C467.1 158.3 446.2 151.7 430 140.9C413.8 130.1 409.9 126.8 409.6 123.9C409.3 121 410.2 120.4 411.4 119.4Z" fill="#333333"/>
<path d="M496.4 139.7C496.4 139.7 489.4 138.7 485.2 136.9C481 135.1 478.5 133.4 478.5 133.4L475.5 136.9L489.5 147.9L499 144.4L496.4 139.7Z" fill="#404040"/>
<path d="M497.6 149.6C497.6 149.6 487.8 158.3 486.4 158.3C485.1 158.3 490.6 146.3 491.7 144.5C492.9 142.7 493.7 143.2 494.2 144.3C494.8 145.4 497.6 149.6 497.6 149.6Z" fill="#3B3B3B"/>
<path d="M525.6 139.2C518.5 151.5 508.8 168.5 508.8 168.5C508.8 168.5 522.5 160.3 552 147.2C581.5 134 612.7 113 621.8 106.5C631 99.9999 635.9 89.1999 635.9 89.1999C635.9 89.1999 635.6 87.8999 631.1 84.8999C626.6 81.8999 608.9 81.0999 606.1 82.0999C603.3 83.0999 587.3 92.2999 583.3 94.8999C579.3 97.4999 537.8 119.4 537.8 119.4L525.6 139.2Z" fill="#3B3B3B"/>
<path d="M538.3 120.7L556.4 110.6C556.4 110.6 562.9 117.4 566.2 121.8C569.6 126.2 573.2 135 573.2 135L526.1 158.1L519.3 152.8L538.3 120.7Z" fill="#4D4D4D"/>
<path d="M600.6 86.1001L619.2 106.2C617.5 107.4 614 109.9 611.9 111.5C609.1 113.7 578.4 131.5 578.4 131.5C578.4 131.5 575.6 125.4 572.1 120.1C568.6 114.8 561.6 108.2 561.6 108.2L600.6 86.1001Z" fill="#4D4D4D"/>
<path d="M629.2 95.9998C628 97.7998 624.3 101.5 622.2 103.5C618.5 98.2998 606.8 86.4998 603.3 84.4998L606.3 82.7998C606.3 82.7998 607.8 82.9998 617 83.0998C626.2 83.2998 630.3 88.7998 630.3 88.7998C630.3 88.7998 631.3 92.7998 629.2 95.9998Z" fill="#4D4D4D"/>
<path d="M526.3 216.2V215.8C526.3 215.7 525.8 205.5 524.6 200.1C522.6 191.3 514.3 184.5 510.3 181.3C508.5 179.8 507.9 179.3 507.9 178.9C507.5 174.8 509.2 168.3 509.3 168L509.8 168.1C509.8 168.2 508.1 174.8 508.4 178.8C508.5 179 509.5 179.9 510.6 180.8C514.6 184.1 523 191 525.1 199.9C526.2 204.8 526.7 213.4 526.8 215.3C531.4 213.1 580.9 189.3 586 186.6C591 183.9 590.8 181 590.5 178.3C590.5 178 590.4 177.6 590.4 177.3C590.3 175.6 590.2 171 590 166.1C589.9 163.7 589.8 161.1 589.7 158.8C589.5 152.6 584.5 144.6 582.4 141.2C582.1 140.8 581.9 140.5 581.8 140.2C580.3 137.8 576.2 135.1 576.1 135L576.4 134.6C576.6 134.7 580.7 137.4 582.2 139.9C582.4 140.2 582.6 140.5 582.8 140.9C585 144.4 590 152.4 590.2 158.8C590.3 161.1 590.4 163.6 590.5 166.1C590.7 171 590.8 175.6 590.9 177.3C590.9 177.6 590.9 178 591 178.3C591.2 181.1 591.5 184.3 586.2 187.1C580.9 190 527.1 215.8 526.6 216L526.3 216.2Z" fill="#025789"/>
<path opacity="0.4" d="M516.6 166.7C522.2 169 526.4 177.7 522.8 180.3C521.8 181 520.2 180.1 518.8 177.5C517.4 175 517.8 174.1 517.2 173.1C516.6 172.1 516.2 171.6 513 170.7C510.6 170.1 509.1 166.8 509.1 166.8L516.6 166.7Z" fill="#002F5E"/>
<path d="M510.6 162.8C510.6 162.8 507.2 167.2 510.9 169.4C514.6 171.6 520.3 169.1 520.3 169.1L521.9 160.7C521.8 160.7 512.4 160.7 510.6 162.8Z" fill="#004489"/>
<path d="M540.9 154.6H512.4V172.2H540.9V154.6Z" fill="#0050A0"/>
<path d="M536.9 165.1C536.2 167.2 532.1 167.8 527.6 166.4C523.2 165 520.1 162.1 520.8 160C521.5 157.9 525.6 157.3 530.1 158.7C534.5 160.1 537.5 163 536.9 165.1Z" fill="#0050A0"/>
<path d="M536.7 165.1C536 167.2 532 167.7 527.6 166.3C523.2 164.9 520.2 162.1 520.9 160.1C521.6 158 525.6 157.5 530 158.9C534.4 160.2 537.4 163 536.7 165.1Z" fill="#0151A1"/>
<path d="M536.6 165C536 167 532 167.6 527.7 166.2C523.4 164.8 520.5 162.1 521.1 160.1C521.7 158.1 525.7 157.5 530 158.9C534.3 160.2 537.2 163 536.6 165Z" fill="#0151A2"/>
<path d="M536.4 165C535.8 167 531.9 167.5 527.7 166.2C523.5 164.9 520.6 162.2 521.2 160.2C521.8 158.2 525.7 157.7 529.9 159C534.2 160.3 537 163 536.4 165Z" fill="#0252A3"/>
<path d="M536.3 164.9C535.7 166.8 531.8 167.4 527.7 166.1C523.6 164.8 520.7 162.2 521.4 160.2C522 158.2 525.9 157.7 530 159C534 160.3 536.9 163 536.3 164.9Z" fill="#0352A4"/>
<path d="M527.692 166.034C531.747 167.316 535.52 166.818 536.119 164.922C536.718 163.026 533.917 160.45 529.862 159.169C525.807 157.887 522.034 158.385 521.435 160.281C520.836 162.176 523.637 164.752 527.692 166.034Z" fill="#0353A5"/>
<path d="M536 164.8C535.4 166.7 531.7 167.2 527.8 165.9C523.9 164.6 521.1 162.1 521.7 160.3C522.3 158.4 526 157.9 529.9 159.2C533.8 160.4 536.6 162.9 536 164.8Z" fill="#0454A6"/>
<path d="M535.8 164.8C535.2 166.6 531.6 167.1 527.7 165.9C523.8 164.7 521.2 162.2 521.7 160.4C522.3 158.6 525.9 158.1 529.8 159.3C533.7 160.5 536.4 162.9 535.8 164.8Z" fill="#0554A7"/>
<path d="M535.7 164.7C535.1 166.5 531.6 167 527.8 165.8C524 164.6 521.4 162.2 522 160.4C522.6 158.6 526.1 158.1 529.9 159.3C533.6 160.5 536.2 162.9 535.7 164.7Z" fill="#0655A8"/>
<path d="M535.5 164.7C534.9 166.5 531.5 166.9 527.8 165.8C524.1 164.6 521.5 162.3 522.1 160.5C522.7 158.7 526.1 158.3 529.8 159.4C533.5 160.6 536.1 162.9 535.5 164.7Z" fill="#0655A9"/>
<path d="M535.4 164.6C534.9 166.3 531.5 166.8 527.9 165.6C524.3 164.5 521.8 162.1 522.3 160.4C522.8 158.7 526.2 158.2 529.8 159.4C533.4 160.6 535.9 162.9 535.4 164.6Z" fill="#0756AA"/>
<path d="M535.2 164.6C534.7 166.3 531.4 166.7 527.8 165.6C524.3 164.5 521.8 162.2 522.4 160.5C522.9 158.8 526.2 158.4 529.8 159.5C533.3 160.6 535.7 162.9 535.2 164.6Z" fill="#0857AB"/>
<path d="M527.844 165.556C531.319 166.655 534.555 166.222 535.071 164.59C535.587 162.957 533.188 160.743 529.713 159.645C526.237 158.546 523.001 158.979 522.485 160.611C521.969 162.244 524.368 164.458 527.844 165.556Z" fill="#0857AC"/>
<path d="M534.9 164.5C534.4 166.1 531.3 166.5 527.9 165.5C524.5 164.4 522.2 162.3 522.7 160.7C523.2 159.1 526.3 158.7 529.7 159.7C533.1 160.7 535.4 162.9 534.9 164.5Z" fill="#0958AD"/>
<path d="M527.869 165.455C531.133 166.487 534.185 166.042 534.684 164.463C535.183 162.883 532.941 160.766 529.676 159.734C526.411 158.702 523.36 159.147 522.861 160.726C522.362 162.306 524.604 164.423 527.869 165.455Z" fill="#0A58AE"/>
<path d="M534.6 164.4C534.1 165.9 531.1 166.3 527.9 165.3C524.7 164.3 522.5 162.2 523 160.7C523.5 159.2 526.5 158.8 529.7 159.8C532.9 160.8 535.1 162.9 534.6 164.4Z" fill="#0A59AF"/>
<path d="M527.94 165.275C531.047 166.257 533.944 165.858 534.41 164.384C534.876 162.909 532.736 160.918 529.629 159.935C526.522 158.953 523.625 159.352 523.159 160.826C522.693 162.301 524.833 164.292 527.94 165.275Z" fill="#0B5AB0"/>
<path d="M534.3 164.3C533.8 165.7 531 166.1 528 165.2C525 164.2 522.9 162.3 523.3 160.9C523.8 159.5 526.6 159.1 529.6 160C532.7 160.9 534.8 162.9 534.3 164.3Z" fill="#0C5AB1"/>
<path d="M527.965 165.174C530.914 166.106 533.669 165.709 534.119 164.287C534.568 162.866 532.542 160.957 529.593 160.025C526.644 159.093 523.889 159.49 523.44 160.912C522.99 162.334 525.016 164.242 527.965 165.174Z" fill="#0D5BB2"/>
<path d="M527.996 165.079C530.892 165.994 533.591 165.626 534.024 164.257C534.457 162.888 532.459 161.036 529.563 160.121C526.667 159.205 523.968 159.573 523.535 160.942C523.102 162.311 525.099 164.163 527.996 165.079Z" fill="#0D5BB3"/>
<path d="M533.9 164.2C533.5 165.5 530.9 165.9 528.1 165C525.3 164.1 523.4 162.3 523.8 161C524.2 159.7 526.8 159.3 529.6 160.2C532.4 161 534.3 162.8 533.9 164.2Z" fill="#0E5CB4"/>
<path d="M528.058 164.876C530.743 165.725 533.244 165.389 533.644 164.126C534.044 162.862 532.191 161.149 529.505 160.299C526.82 159.45 524.319 159.786 523.919 161.049C523.519 162.313 525.372 164.026 528.058 164.876Z" fill="#0F5DB5"/>
<path d="M528.049 164.883C530.682 165.715 533.14 165.365 533.539 164.101C533.939 162.837 532.128 161.138 529.495 160.306C526.862 159.474 524.404 159.824 524.004 161.088C523.605 162.352 525.416 164.051 528.049 164.883Z" fill="#0F5DB7"/>
<path d="M533.4 164C533 165.2 530.6 165.5 528.1 164.7C525.6 163.9 523.8 162.3 524.2 161.1C524.6 159.9 527 159.6 529.5 160.4C532 161.2 533.8 162.8 533.4 164Z" fill="#105EB8"/>
<path d="M528.132 164.696C530.607 165.478 532.91 165.174 533.276 164.015C533.643 162.856 531.933 161.283 529.458 160.5C526.983 159.717 524.68 160.022 524.314 161.181C523.947 162.339 525.657 163.913 528.132 164.696Z" fill="#115FB9"/>
<path d="M533.1 163.9C532.7 165 530.5 165.3 528.2 164.6C525.8 163.8 524.2 162.3 524.5 161.2C524.9 160.1 527.1 159.8 529.4 160.5C531.7 161.2 533.5 162.8 533.1 163.9Z" fill="#115FBA"/>
<path d="M533 163.9C532.7 165 530.5 165.3 528.2 164.6C525.9 163.9 524.3 162.4 524.7 161.3C525 160.2 527.2 159.9 529.5 160.6C531.7 161.3 533.3 162.8 533 163.9Z" fill="#1260BB"/>
<path d="M532.8 163.8C532.5 164.9 530.4 165.1 528.2 164.4C526 163.7 524.5 162.3 524.8 161.2C525.1 160.2 527.2 159.9 529.4 160.6C531.6 161.4 533.1 162.8 532.8 163.8Z" fill="#1360BC"/>
<path d="M532.7 163.8C532.4 164.8 530.4 165.1 528.3 164.4C526.2 163.7 524.7 162.4 525 161.4C525.3 160.4 527.3 160.1 529.4 160.8C531.5 161.4 533 162.8 532.7 163.8Z" fill="#1461BD"/>
<path d="M528.229 164.312C530.282 164.961 532.19 164.719 532.49 163.771C532.789 162.823 531.367 161.528 529.313 160.879C527.26 160.23 525.352 160.473 525.052 161.42C524.753 162.368 526.175 163.663 528.229 164.312Z" fill="#1462BE"/>
<path d="M532.4 163.7C532.1 164.6 530.3 164.9 528.3 164.3C526.3 163.7 525 162.4 525.3 161.5C525.6 160.6 527.4 160.3 529.4 160.9C531.3 161.5 532.7 162.7 532.4 163.7Z" fill="#1562BF"/>
<path d="M532.2 163.6C531.9 164.5 530.2 164.7 528.3 164.1C526.4 163.5 525.1 162.3 525.4 161.4C525.7 160.5 527.4 160.3 529.3 160.9C531.2 161.5 532.5 162.7 532.2 163.6Z" fill="#1663C0"/>
<path d="M532.1 163.6C531.8 164.5 530.2 164.7 528.4 164.1C526.6 163.5 525.4 162.4 525.6 161.5C525.9 160.6 527.5 160.4 529.3 161C531.1 161.6 532.3 162.7 532.1 163.6Z" fill="#1663C1"/>
<path d="M531.9 163.5C531.6 164.3 530 164.5 528.3 164C526.6 163.5 525.4 162.4 525.7 161.6C526 160.8 527.6 160.6 529.3 161.1C531 161.6 532.2 162.7 531.9 163.5Z" fill="#1764C2"/>
<path d="M528.342 164.02C529.975 164.536 531.501 164.314 531.75 163.524C532 162.734 530.879 161.675 529.247 161.159C527.614 160.643 526.088 160.865 525.839 161.655C525.589 162.445 526.71 163.504 528.342 164.02Z" fill="#1865C3"/>
<path d="M531.6 163.4C531.4 164.1 529.9 164.3 528.4 163.8C526.8 163.3 525.8 162.3 526 161.6C526.2 160.9 527.7 160.7 529.2 161.2C530.8 161.7 531.8 162.7 531.6 163.4Z" fill="#1865C4"/>
<path d="M528.41 163.834C529.885 164.3 531.255 164.123 531.472 163.438C531.688 162.754 530.668 161.821 529.193 161.355C527.718 160.889 526.348 161.067 526.131 161.751C525.915 162.436 526.935 163.369 528.41 163.834Z" fill="#1966C5"/>
<path d="M528.44 163.74C529.809 164.172 531.081 164.01 531.281 163.378C531.481 162.746 530.532 161.883 529.163 161.451C527.794 161.019 526.522 161.18 526.322 161.812C526.122 162.444 527.071 163.307 528.44 163.74Z" fill="#1A66C6"/>
<path d="M531.2 163.3C531 163.9 529.8 164.1 528.5 163.7C527.2 163.3 526.3 162.5 526.5 161.8C526.7 161.2 527.9 161 529.2 161.4C530.5 161.8 531.4 162.7 531.2 163.3Z" fill="#1B67C7"/>
<path d="M531 163.3C530.8 163.9 529.7 164 528.5 163.6C527.3 163.2 526.4 162.4 526.6 161.9C526.8 161.3 527.9 161.2 529.1 161.6C530.4 161.9 531.2 162.7 531 163.3Z" fill="#1B68C8"/>
<path d="M528.49 163.555C529.648 163.921 530.722 163.791 530.889 163.264C531.056 162.738 530.251 162.014 529.093 161.648C527.934 161.281 526.86 161.411 526.694 161.938C526.527 162.464 527.331 163.188 528.49 163.555Z" fill="#1C68C9"/>
<path d="M530.7 163.2C530.5 163.7 529.6 163.8 528.5 163.5C527.4 163.2 526.7 162.5 526.9 162C527.1 161.5 528 161.4 529.1 161.7C530.1 162 530.9 162.7 530.7 163.2Z" fill="#1D69CA"/>
<path d="M530.6 163.1C530.5 163.6 529.6 163.7 528.6 163.4C527.6 163.1 527 162.5 527.1 162C527.2 161.5 528.1 161.4 529.1 161.7C530 162 530.7 162.6 530.6 163.1Z" fill="#1D69CB"/>
<path d="M528.549 163.365C529.445 163.648 530.278 163.536 530.411 163.115C530.545 162.693 529.927 162.122 529.031 161.84C528.136 161.557 527.302 161.669 527.169 162.091C527.036 162.512 527.654 163.083 528.549 163.365Z" fill="#1E6ACC"/>
<path d="M514.1 167.4C514.1 167.4 526.8 169 530.1 168.1C533.5 167.2 536.3 165.8 536.3 165.8C536.3 165.8 536.2 166.3 534.7 167.2C533.2 168.1 528.9 170.3 520.5 170.1C512.1 169.9 514.4 169.6 514.4 169.6C514.4 169.6 514 167.9 514.1 167.4Z" fill="#003D7A"/>
<path d="M589.7 185.4L590.1 177.6H590.6L590.3 184.6L618.3 170.8C618.6 170 620.6 164.1 620.8 161.8C621.1 159.3 626.1 141.8 626.3 141C629.3 129.9 631 127.9 634.9 122.9C635.5 121.8 634.9 116.5 632.3 113.7C628.3 109.5 622.4 106 622.4 106L622.7 105.6C622.8 105.6 628.7 109.2 632.8 113.4C635.4 116.2 636.2 121.7 635.4 123.2C631.5 128.1 629.8 130.2 626.8 141.1C626.7 141.3 621.6 159.4 621.3 161.8C621 164.3 618.8 170.8 618.7 171V171.1H618.6L589.7 185.4Z" fill="#025789"/>
<path d="M579.522 149.938C581.775 148.889 583.28 147.348 582.884 146.497C582.488 145.646 580.34 145.806 578.087 146.855C575.834 147.904 574.329 149.445 574.725 150.296C575.122 151.147 577.269 150.987 579.522 149.938Z" fill="#0378BC"/>
<path d="M578.643 150.175C580.345 149.382 581.479 148.212 581.176 147.561C580.873 146.91 579.248 147.025 577.546 147.818C575.843 148.61 574.709 149.781 575.012 150.431C575.315 151.082 576.941 150.967 578.643 150.175Z" fill="#0366A0"/>
<path d="M582.5 146.9C582.7 147.3 581.5 148.7 579.4 149.6C577.4 150.6 575.2 150.7 575.1 150.3C574.9 149.9 576.7 149.1 578.8 148.2C580.8 147.3 582.3 146.6 582.5 146.9Z" fill="#112AD3"/>
<path d="M582.1 147.6C582.2 147.8 581.1 148.8 579.4 149.6C577.7 150.4 576 150.7 575.9 150.5C575.8 150.3 577.3 149.6 579.1 148.8C580.8 148 582 147.4 582.1 147.6Z" fill="#3D50D3"/>
<path d="M629.5 122.645C631.753 121.596 633.258 120.055 632.862 119.204C632.466 118.353 630.318 118.514 628.065 119.563C625.812 120.612 624.307 122.152 624.703 123.003C625.1 123.854 627.247 123.694 629.5 122.645Z" fill="#0378BC"/>
<path d="M628.622 122.883C630.324 122.09 631.458 120.92 631.155 120.269C630.852 119.618 629.227 119.733 627.524 120.526C625.822 121.318 624.688 122.489 624.991 123.139C625.294 123.79 626.92 123.675 628.622 122.883Z" fill="#0366A0"/>
<path d="M632.5 119.7C632.7 120.1 631.5 121.5 629.4 122.4C627.4 123.4 625.2 123.5 625.1 123.1C624.9 122.7 626.7 121.9 628.8 121C630.8 120.1 632.3 119.3 632.5 119.7Z" fill="#112AD3"/>
<path d="M632.1 120.3C632.2 120.5 631.1 121.5 629.4 122.3C627.7 123.1 626 123.4 625.9 123.2C625.8 123 627.3 122.3 629.1 121.5C630.8 120.7 632 120.1 632.1 120.3Z" fill="#3D50D3"/>
<path d="M522.3 122.8C522.2 122.8 522.2 122.8 522.2 122.8C522.1 122.7 522.1 122.6 522.1 122.5C522.1 122.4 526.2 116.9 530.7 114.2C535.6 111.2 584.2 83.5001 593.5 78.7001C603.6 73.4001 611.7 71.5001 614.9 71.9001C615 71.9001 615.1 72.0001 615.1 72.2001C615.1 72.3001 615 72.4001 614.8 72.4001C611.7 71.9001 603.7 73.9001 593.7 79.1001C584.5 84.0001 535.9 111.6 531 114.6C526.6 117.3 522.6 122.7 522.6 122.8C522.4 122.8 522.4 122.8 522.3 122.8Z" fill="#07233A"/>
<path d="M447 86.3001C446.8 86.2001 446.7 86.1001 446.8 86.0001C446.8 85.9001 447.6 84.1001 452.1 81.4001C455.2 79.5001 488.7 64.3001 513.2 53.3001C524.8 48.0001 534 43.9001 537.1 42.4001C545.4 38.5001 555.1 38.2001 558.2 38.6001C558.3 38.6001 558.4 38.7001 558.4 38.9001C558.4 39.0001 558.3 39.1001 558.1 39.1001C555 38.7001 545.5 39.0001 537.2 42.8001C534.1 44.3001 524.9 48.4001 513.3 53.7001C488.8 64.8001 455.3 80.0001 452.2 81.8001C447.9 84.5001 447.1 86.2001 447 86.2001C447.2 86.3001 447.1 86.3001 447 86.3001Z" fill="#07233A"/>
<path d="M399.1 213.2C394.9 213.2 391.8 212 391.6 211.9L365.9 199.1C365.8 199 363.4 197.5 363.1 195.3C363 194.3 363.4 193.3 364.3 192.4L364.6 192.1L404.9 212.2L403.6 212.5C402.1 213 400.6 213.2 399.1 213.2ZM392 211C392 211 395.1 212.2 399.1 212.2C400.1 212.2 401 212.1 401.9 212L364.8 193.4C364.3 194 364.1 194.6 364.2 195.2C364.4 196.6 365.9 197.8 366.5 198.2L392 211Z" fill="#231F20"/>
<path d="M402.8 237.8C402.8 237.8 414.5 242.5 419 243.4C423.5 244.3 427.2 244.4 427.1 246C427 247.7 423.3 248.5 419.6 248.3C417.9 248.2 413.5 247.2 409.8 245.8C405.2 244.1 403.4 243 402.3 242.3C402.3 242.3 400.7 241.7 401.1 239.1C401.2 237.4 402.8 237.8 402.8 237.8Z" fill="#B3B3B3"/>
<path d="M347.6 212.6C347.6 212.6 349.8 215.3 354.4 218.5C355.4 219.1 355.8 218.3 355.9 217C356 215.8 356.3 215.3 354.7 214.3C353.1 213.3 349.4 210.8 347.2 208.6C345.9 207.3 346 210.6 347.6 212.6Z" fill="#B3B3B3"/>
<path d="M363.2 186.7C363.2 186.7 363.7 187.7 364.6 188.6C365.8 189.7 372.2 193.5 383.5 199.5C396.4 206.4 410.4 209.9 410.4 209.9C410.4 209.9 395.4 217.3 393.6 218C390.3 217.3 380.1 212.5 375.7 210.2C371.2 207.9 364.5 204 363 202.5C361.5 201 361.5 197.2 361.5 197.2C361.5 197.2 361.3 190.6 363.2 186.7Z" fill="#333333"/>
<path d="M363.2 186.7C363.2 186.7 364 188.1 364.4 188.5C363.9 189.7 362.4 194.6 362.5 196.9C362.1 201.5 363.8 203.2 363.8 203.2C363.8 203.2 361.4 201.9 361.4 197.6C361.4 193.3 361.5 190.3 363.2 186.7Z" fill="#4D4D4D"/>
<path d="M364.5 189.1C364.5 189.1 374.6 195.6 383 199.9C391.4 204.2 408.6 210.1 408.6 210.1L404.9 211.9C404.9 211.9 389.5 206.5 381.6 202.5C381.6 202.5 365.2 193.6 363.8 192.5C363.9 190.6 364.5 189.1 364.5 189.1Z" fill="#1A1A1A"/>
<path d="M363.3 193.6C367.7 196.4 372.4 199.6 381.8 204.2C395.1 210.8 403.6 212.5 403.6 212.5L398.6 214.7C398.6 214.7 391.3 212.3 380 207C372.4 203.4 363.2 197.7 363.2 197.7C363.2 197.7 362.7 195.9 363.3 193.6Z" fill="#1A1A1A"/>
<path d="M362.9 198.7C362.9 198.7 372.8 205 379.8 208.3C379.8 208.3 396.3 215 397.6 215.4C395.4 216.5 393.3 217.6 393.3 217.6C393.3 217.6 380.8 212.5 377.8 210.8C374.8 209.1 363.6 202.7 363.6 202.7C363.6 202.7 362.7 201 362.9 198.7Z" fill="#1A1A1A"/>
<path d="M397.5 238.7C395.2 237.6 385.9 234.6 377.7 230.6C369.4 226.6 364.9 224.1 362.5 222.2C360.7 220.8 359.9 219.6 359.8 218.3C362.2 219.8 370.2 224.7 377.4 228.1C384 231.3 397 236.6 397 236.6C397 236.6 397.5 237.7 397.5 238.7Z" fill="#001F0A"/>
<path d="M435.3 217.9C435.3 217.9 433.8 224 433.2 224.6C432.6 225.2 429.2 224.4 427 223.9C424.8 223.4 431.8 217.5 433.1 217.4C434.4 217.3 434.6 217.2 435.3 217.9Z" fill="#808080"/>
<path d="M429.1 217.4C429.1 217.4 411.5 220.7 409.1 219.7C406.7 218.8 404.4 217.9 406.3 216.4C408.2 215 412.7 215.1 416.4 215.6C420.1 216 428.9 216.7 428.9 216.7L429.5 216.8L429.1 217.4Z" fill="#F2F2F2"/>
<path d="M430 219L423.3 223.3C423.3 223.3 418.2 222.4 416.8 221.8C415.3 221.2 429.3 218.7 429.3 218.7L430 219Z" fill="#CCCCCC"/>
<path d="M407.2 219.4C407.2 219.4 423.8 226.2 442 225.7C460.2 225.2 455.5 218.2 454 215.2C452.5 212.2 444.5 204.2 433.2 207.2C421.9 210.2 397.5 215.1 407.2 219.4Z" fill="#E6E6E6"/>
<path d="M441.2 206.7C441.2 206.7 439 209.6 437 215.6C435.7 219.5 434.9 225.5 434.9 225.5C434.9 225.5 441.2 226 446.2 225.3C451.1 224.6 454.7 223.8 455.5 221C456.5 217.2 451.6 208.3 441.2 206.7Z" fill="#F15A24"/>
<path d="M435.3 225.1C435.3 225.1 442.2 219.8 442.9 217.3C443.6 214.8 442.3 208.6 442 207.7C441.6 206.9 441.2 206.9 441.2 206.9C441.2 206.9 438.3 211.1 437 215.6C435.8 220.1 435.3 225.1 435.3 225.1Z" fill="#FF5700"/>
<path d="M435.5 224.8C435.5 224.8 440.4 217.7 445.7 218.7C451 219.7 454.7 222 454.7 222C454.7 222 452.5 224.6 447.8 225.1C443 225.6 435.5 225.6 435.5 225.6C435.5 225.6 434.6 225.8 435.5 224.8Z" fill="#FF752E"/>
<path d="M442.7 208C442.7 208 443 215.6 443.7 216.3C444.4 217 450 218.3 451.6 218.1C453.2 217.9 454.2 216.2 453.2 214.6C452.3 213.1 447.8 208.8 442.7 208Z" fill="#CF4600"/>
<path d="M444.1 220.5C445.426 220.5 446.5 220.097 446.5 219.6C446.5 219.103 445.426 218.7 444.1 218.7C442.775 218.7 441.7 219.103 441.7 219.6C441.7 220.097 442.775 220.5 444.1 220.5Z" fill="#E64E00"/>
<path d="M436.2 220.6C436.2 220.6 441 218.8 441.9 218.8C442.8 218.8 443 216.5 443 216.5C443 216.5 440.4 210.8 440.3 209.6C440.2 208.4 438.4 211.7 437.5 214.6C436.6 217.6 436.3 220.1 436.2 220.6Z" fill="#FF7A36"/>
<path d="M442.4 218.6C442.4 218.6 436.5 221.6 436 222.2C435.5 222.8 436 221 436.2 220.5C436.3 220 442.3 218.2 442.3 218.2L442.4 218.6Z" fill="#E64E00"/>
<path d="M445.5 217.4C445.5 217.4 452.2 219.4 453.7 219.9C455.2 220.4 455.5 220.4 455 219C454.5 217.6 453.1 215.2 453.1 215.2C453.1 215.2 448.3 216.9 447.2 217C446.1 217.1 445.3 217.1 445.3 217.1L445.5 217.4Z" fill="#FF5700"/>
<path d="M443.7 219.1C444.639 219.1 445.4 218.339 445.4 217.4C445.4 216.461 444.639 215.7 443.7 215.7C442.761 215.7 442 216.461 442 217.4C442 218.339 442.761 219.1 443.7 219.1Z" fill="#FF7200"/>
<path d="M445 218.3C445 218.3 445 218.3 444.9 218.4C444.8 218.5 444.8 218.6 444.7 218.7C444.6 218.8 444.4 218.9 444.3 219C444.2 219 444.1 219 444 219.1C443.9 219.1 443.8 219.1 443.7 219.1C443.5 219.1 443.3 219 443.1 218.9C442.9 218.8 442.8 218.7 442.7 218.6C442.6 218.5 442.6 218.4 442.5 218.3C442.5 218.2 442.4 218.2 442.4 218.2C442.4 218.2 442.4 218.2 442.5 218.3C442.6 218.4 442.6 218.5 442.8 218.5C442.9 218.6 443 218.7 443.2 218.7C443.3 218.8 443.5 218.8 443.7 218.8C443.8 218.8 443.9 218.8 444 218.8C444.1 218.8 444.2 218.8 444.3 218.8C444.5 218.8 444.6 218.7 444.7 218.6C444.8 218.5 444.9 218.5 445 218.4C444.9 218.3 445 218.3 445 218.3Z" fill="#DD4414"/>
<path d="M444.4 217.6C444.842 217.6 445.2 217.242 445.2 216.8C445.2 216.358 444.842 216 444.4 216C443.958 216 443.6 216.358 443.6 216.8C443.6 217.242 443.958 217.6 444.4 217.6Z" fill="#FF9F00"/>
<path d="M442.3 208.9C442.3 208.9 442.2 209.1 442 209.5C441.8 209.9 441.6 210.5 441.3 211.2C441 211.9 440.7 212.7 440.4 213.6C440.1 214.5 439.7 215.4 439.4 216.4C439.1 217.4 438.7 218.3 438.5 219.2C438.3 220.1 437.9 220.9 437.8 221.7C437.5 223.2 437.2 224.2 437.2 224.2C437.2 224.2 437.3 223.2 437.5 221.7C437.6 220.9 437.8 220.1 438 219.2C438.2 218.3 438.5 217.3 438.8 216.3C439.1 215.3 439.5 214.4 439.8 213.5C440.2 212.6 440.6 211.8 440.9 211.1C441.7 209.8 442.3 208.9 442.3 208.9Z" fill="#FFA200"/>
<path d="M443.9 211.6C443.9 211.6 443.8 211.8 443.7 212.2C443.5 212.5 443.4 213.1 443.1 213.7C442.9 214.3 442.6 215 442.4 215.8C442.2 216.6 441.9 217.4 441.7 218.2C441.6 218.6 441.5 219 441.4 219.4C441.3 219.8 441.2 220.2 441.1 220.6C441 221 440.9 221.4 440.8 221.7C440.7 222.1 440.7 222.4 440.6 222.7C440.4 224 440.1 224.8 440.1 224.8C440.1 224.8 440.1 223.9 440.3 222.6C440.3 222.3 440.4 221.9 440.4 221.5C440.5 221.1 440.5 220.7 440.6 220.3C440.7 219.9 440.8 219.5 440.8 219.1C440.9 218.7 441 218.3 441.1 217.8C441.3 216.9 441.6 216.1 441.9 215.3C442.2 214.5 442.5 213.8 442.8 213.2C443.5 212.4 443.9 211.6 443.9 211.6Z" fill="#FFA200"/>
<path d="M446.1 212.4C446.1 212.4 446.1 212.6 446 212.9C445.9 213.2 445.8 213.7 445.7 214.2C445.6 214.5 445.6 214.8 445.5 215.1C445.4 215.4 445.4 215.7 445.3 216.1C445.2 216.8 445 217.5 444.9 218.2C444.7 218.9 444.7 219.6 444.5 220.3C444.4 221 444.3 221.6 444.2 222.1C444 223.2 443.8 223.9 443.8 223.9C443.8 223.9 443.8 223.2 443.9 222.1C444 221.6 444 220.9 444.1 220.2C444.2 219.5 444.2 218.8 444.4 218.1C444.6 217.4 444.7 216.7 444.9 216C445 215.3 445.2 214.7 445.4 214.2C445.6 213.7 445.7 213.2 445.9 212.9C446 212.6 446.1 212.4 446.1 212.4Z" fill="#FFA200"/>
<path d="M448.2 213.2C448.2 213.2 448.3 213.9 448.3 214.9C448.3 215.4 448.4 216 448.3 216.6C448.3 217.2 448.2 217.9 448.2 218.5C448.2 219.2 448.1 219.8 448 220.4C447.9 221 447.8 221.6 447.7 222.1C447.5 223.1 447.4 223.7 447.4 223.7C447.4 223.7 447.4 223 447.5 222C447.5 221.5 447.6 220.9 447.6 220.3C447.7 219.7 447.7 219 447.7 218.4C447.8 217.1 447.9 215.8 448 214.8C448.1 213.9 448.2 213.2 448.2 213.2Z" fill="#FFA200"/>
<path d="M451.1 215.5C451.1 215.5 451.2 216 451.2 216.7C451.2 217.1 451.2 217.5 451.2 217.9C451.2 218.3 451.2 218.8 451.1 219.3C451 220.3 450.9 221.2 450.7 221.9C450.6 222.6 450.5 223.1 450.5 223.1C450.5 223.1 450.5 222.6 450.5 221.9C450.5 221.5 450.5 221.1 450.6 220.7C450.7 220.3 450.7 219.8 450.7 219.3C450.8 218.4 450.9 217.4 450.9 216.7C451.1 216 451.1 215.5 451.1 215.5Z" fill="#FFA200"/>
<path opacity="0.4" d="M443.3 209.4C444.6 208.7 448.3 208.9 451.4 212.7C454.5 216.5 454.4 217 454.4 217.5C454.5 218.1 454.6 218.6 453.7 218.9C452.8 219.2 446.2 219.3 444 218.6C441.7 217.9 442 210.1 443.3 209.4Z" fill="white"/>
<path d="M441 206.9C441 206.9 437.9 206.4 434 207.2C430.1 208 422 210.1 422 210.1C422 210.1 427.4 212.7 429.9 215.4C432.4 218.1 434.9 217.7 434.9 217.7H436.5C436.4 217.6 439.1 210 441 206.9Z" fill="#CCCCCC"/>
<path d="M436.4 217.6C436.4 217.6 428.1 216.1 420.3 216.8C412.5 217.5 405.7 217.8 405.7 217.8C405.7 217.8 405.3 218.5 410.7 220.3C416.1 222.1 427.3 224.4 430.6 224.8C433.9 225.2 435 225.3 435 225.3C435 225.3 435.4 222.1 435.8 220.8C436 219.5 436.4 217.6 436.4 217.6Z" fill="#999999"/>
<path d="M431.7 219.4C433.302 219.4 434.6 218.102 434.6 216.5C434.6 214.898 433.302 213.6 431.7 213.6C430.099 213.6 428.8 214.898 428.8 216.5C428.8 218.102 430.099 219.4 431.7 219.4Z" fill="#B3B3B3"/>
<path d="M432.2 217.9C433.139 217.9 433.9 217.139 433.9 216.2C433.9 215.261 433.139 214.5 432.2 214.5C431.261 214.5 430.5 215.261 430.5 216.2C430.5 217.139 431.261 217.9 432.2 217.9Z" fill="#CCCCCC"/>
<path d="M432.7 216.9C433.363 216.9 433.9 216.363 433.9 215.7C433.9 215.037 433.363 214.5 432.7 214.5C432.037 214.5 431.5 215.037 431.5 215.7C431.5 216.363 432.037 216.9 432.7 216.9Z" fill="#E6E6E6"/>
<path d="M429.6 218.2C429.6 218.2 429.7 218.2 429.8 218.3C429.9 218.4 430 218.5 430.2 218.6C430.3 218.6 430.4 218.7 430.5 218.7C430.6 218.8 430.7 218.8 430.8 218.8C430.9 218.8 431 218.9 431.2 218.9H431.6C431.7 218.9 431.9 218.9 432 218.9C432.1 218.9 432.3 218.9 432.4 218.8C432.5 218.8 432.6 218.7 432.7 218.7C432.8 218.7 432.9 218.6 433 218.6C433.2 218.5 433.3 218.4 433.4 218.4C433.5 218.3 433.6 218.3 433.6 218.3C433.6 218.3 433.6 218.3 433.5 218.4C433.4 218.5 433.3 218.6 433.1 218.7C432.9 218.8 432.7 218.9 432.4 219C432.3 219.1 432.1 219.1 432 219.1C431.9 219.1 431.7 219.2 431.6 219.1L431.2 219C431.1 219 430.9 218.9 430.8 218.9C430.5 218.8 430.3 218.7 430.2 218.5C430 218.4 429.9 218.2 429.9 218.1C429.7 218.3 429.6 218.2 429.6 218.2Z" fill="#666666"/>
<path opacity="0.6" d="M436.5 215.3C436.5 215.3 434.9 221.2 434.8 222.7C434.7 224.2 416.9 221.1 413.5 219.4C410.1 217.7 419.6 214.2 436.5 215.3Z" fill="white"/>
<path d="M358.9 193.4C358.2 195 356.8 194.7 354.4 193C350.1 190.1 344.9 182.9 344.5 179.6C343.8 174.4 347.3 167.8 352.6 163.6C355.3 161.5 354.5 170.9 355.8 175.2C358 182.5 359.9 191.1 358.9 193.4Z" fill="#E6E6E6"/>
<path d="M353.8 164.1C353.8 164.1 347.5 171.9 346.6 174.6C345.8 177.4 345.1 181.6 345.1 181.6C345.1 181.6 342.9 179.1 345.4 173.3C347.8 167.6 353.6 161.4 353.8 164.1Z" fill="#F18E43"/>
<path d="M353.8 164.1C353.8 164.1 354.8 165.6 354.9 170.6C355 175.6 354.6 175.5 354.6 175.5C354.6 175.5 355.1 178.4 350.9 179.6C346.9 180.8 345.1 181.6 345.1 181.6C345.1 181.6 345.4 176.4 347.2 173C349 169.6 352.9 165.1 353.8 164.1Z" fill="#E0CCBC"/>
<path d="M345.2 181.1C345.2 181.1 351.6 178.3 354.7 179.6C357.7 180.9 358.1 183.7 358.1 183.7C358.1 183.7 359.9 191.5 359.2 192.8C358.5 194.1 358.5 194.2 357.1 193.7C355.6 193.3 348.4 187.6 345.2 181.1Z" fill="#999999"/>
<path d="M352.9 190.4L355.7 180.6C355.7 180.6 354.9 180.3 353.7 180.3C352.4 180.2 346.4 183.4 346.4 183.4C346.4 183.4 350.4 189.1 352.9 190.4Z" fill="#CCCCCC"/>
<path d="M356.7 179.7C356.7 180.1 356.6 180.4 356.4 180.7C356 181.3 355.4 181.8 354.6 181.8C353.5 181.8 352.6 180.8 352.6 179.7C352.6 178.6 353.5 177.6 354.6 177.6C355.8 177.6 356.7 178.5 356.7 179.7Z" fill="#B3B3B3"/>
<path d="M354.4 179C354.3 179.1 354.2 179.2 354.1 179.2C353.9 179.3 353.6 179.3 353.5 179.1C353.3 178.9 353.3 178.5 353.6 178.2C353.9 177.9 354.3 177.9 354.5 178.1C354.7 178.3 354.7 178.7 354.4 179Z" fill="#CCCCCC"/>
<path d="M357.9 183.6C357.9 183.6 359.2 189.3 359.1 190.7C359.1 192.2 359.1 193.8 358 193.9C357 194.1 356.1 193.6 355.7 193.2C355.3 192.8 358.5 193.8 358.5 191.9C358.5 190 358 184.9 357.9 183.6Z" fill="#5C544D"/>
<path d="M353.8 164.1C353.8 164.1 354.9 166.9 354.8 170.2C354.7 173.5 354.4 176.7 354.4 176.7C354.4 176.7 350.5 175.9 349.9 174.3C349.3 172.7 349.4 169.5 351.2 167.3C352.9 165.1 353.8 164.1 353.8 164.1Z" fill="#D6C3B3"/>
<path opacity="0.6" d="M348.3 169.7C348.3 169.7 352.2 179.4 354.1 182.2C356 185 358.8 189.3 358.4 191.6C358.1 193.9 350.7 186.6 349.1 183.8C347.5 181 342.9 179.6 348.3 169.7Z" fill="white"/>
<path d="M359.4 215.9C359.4 216.3 359.8 216.7 360.3 217L390.7 231.8C391.2 232 391.6 232 391.6 231.6V222.4C391.6 222 391.2 221.6 390.7 221.3L360.3 206.6C359.8 206.4 359.4 206.4 359.4 206.8V215.9Z" fill="#590707"/>
<path d="M359.1 216.1C359.1 216.5 359.5 216.9 360 217.2L390.4 232C390.9 232.2 391.3 232.2 391.3 231.8V222.6C391.3 222.2 390.9 221.8 390.4 221.5L360 206.7C359.5 206.5 359.1 206.5 359.1 206.9V216.1Z" fill="#E6DCDC"/>
<path d="M672.9 122C672.8 122.9 671.7 133.6 671 140.2C670.7 142.9 670.5 145 670.5 145.3C670.5 145.5 669.9 146.3 669 147.5C668.5 148.1 668 148.7 667.3 149.5C665.8 151.1 664 153.1 662 155.2C661.3 156 660.5 156.7 659.7 157.5C659.4 157.8 659 158.2 658.7 158.5C657.1 160 655.5 161.5 653.9 162.9C653.6 163.2 653.3 163.4 653 163.7C652.7 163.9 652.5 164.2 652.2 164.4C647.4 168.5 643 171.6 640.7 171.5C640.2 171.5 639.7 171.4 639.3 171.4C638.5 171.3 637.8 171.2 637.2 171.1H637.1H637C635.3 170.8 634 170.4 633 169.9C631.6 169.3 630.5 168.6 629.3 168C629.2 167.9 629 167.9 628.9 167.8C628.8 167.7 628.7 167.7 628.6 167.6C628.3 166.8 627.6 164.2 627.6 164.2L627.8 163C627.8 162.8 626.6 156.9 627.4 149.8C627.7 146.5 628.5 143 630 139.6C631.5 136 633.4 133.1 635.2 130.7C635.4 130.4 635.6 130.2 635.8 129.9C638.1 127 640.5 124.8 642.6 123C642.8 122.8 643 122.6 643.3 122.5C646.8 119.7 652.7 115.2 661.1 114.2C661.4 114.3 661.6 114.4 661.8 114.5C665 115.7 667.2 116.9 668.8 118C670.6 119.2 671.6 120.3 672.2 121C672.5 121.4 672.6 121.7 672.7 121.9C672.9 121.9 672.9 122 672.9 122Z" fill="#231F20"/>
<path d="M677.3 133.4C677.3 146.5 666.7 162.4 653.5 168.9C640.4 175.4 629.7 170 629.7 156.9C629.7 143.8 640.3 127.9 653.5 121.4C666.7 114.9 677.3 120.3 677.3 133.4Z" fill="#231F20"/>
<path d="M670.7 138.5C671.1 147.5 664.4 158.5 655.6 163C646.9 167.5 639.4 163.8 639 154.7C638.6 145.7 645.3 134.7 654.1 130.2C662.8 125.7 670.3 129.4 670.7 138.5Z" fill="url(#paint7_linear)"/>
<path d="M655.9 127.1C655.9 127.1 654.7 127.7 654.6 127.8C654.4 127.9 654.2 128 654 128.1L652.7 128.9C652.4 129.1 652.1 129.3 651.9 129.5C651.7 129.6 651.5 129.8 651.3 129.9C651 130.1 650.7 130.4 650.4 130.6C650.2 130.8 650 131 649.7 131.1C649.1 131.6 648.4 132.2 647.8 132.9C647.4 133.3 647 133.7 646.6 134.1C646.3 134.4 646 134.7 645.8 135C645.6 135.2 645.4 135.4 645.2 135.7C645.1 135.9 644.9 136.1 644.7 136.3C644.4 136.6 644.1 136.9 643.9 137.3C643.5 137.9 643.1 138.4 642.7 139C642.3 139.5 642 140 641.6 140.4C640.4 142.3 639.5 143.6 639.5 143.6C639.5 143.6 637.7 146.6 636.5 145.9C635.3 145.2 636.7 142.1 636.7 142.1C636.7 142.1 637.4 140.7 638.4 138.6C638.6 138.2 638.9 137.8 639.1 137.5L639.7 136.6C640 136.1 640.3 135.6 640.7 135.1C641 134.7 641.3 134.3 641.7 133.9C641.9 133.7 642.6 132.9 642.7 132.7C643 132.3 643.4 131.9 643.8 131.5C644.3 131.1 644.7 130.7 645 130.3C645.7 129.6 646.5 128.9 647.4 128.2L647.5 128.1C648 127.7 648.6 127.2 649.2 126.9L649.7 126.6C650.1 126.4 650.5 126.1 650.8 125.9L652.2 125.2C652.5 125 652.9 124.9 653.1 124.8L654.4 124.3C654.4 124.3 657.7 122.9 658.1 124.4C658.8 125.7 655.9 127.1 655.9 127.1Z" fill="#231F20"/>
<path d="M649.1 127.3L649.6 127C650 126.8 650.3 126.5 650.7 126.3C650.7 126.3 651.2 126 651.3 126L652.1 125.6C652.4 125.4 652.7 125.3 653 125.2L653.4 125C653.4 125 654.2 124.7 654.3 124.7C654.3 124.7 654.7 124.5 655.2 124.3C655.7 124.1 656.2 124 656.7 124C657.3 124 657.7 124.1 657.8 124.5C657.9 124.9 657.7 125.3 657.4 125.6C657.1 126 656.6 126.3 656.2 126.6C655.8 126.9 655.4 127.1 655.3 127.1C655.3 127.1 654.8 127.4 654.4 127.6C654.2 127.7 654.1 127.8 654 127.8C653.8 127.9 653.6 128 653.5 128.1C653.5 128.1 652.5 128.7 652.4 128.8L652.2 128.9C651.9 129.1 651.7 129.3 651.4 129.5C651.2 129.6 651 129.8 650.8 129.9C650.6 130 650.4 130.2 650.3 130.3C650.2 130.4 650.1 130.5 650 130.6C649.8 130.8 649.6 131 649.4 131.1C648.8 131.6 648.2 132.2 647.6 132.8C647.2 133.2 646.8 133.6 646.4 133.9L646.3 134C646.1 134.2 645.8 134.5 645.6 134.8C645.4 135 645.2 135.2 645.1 135.4C645 135.6 644.8 135.8 644.6 136L644.5 136.1C644.3 136.4 644 136.6 643.8 136.9C643.5 137.3 643.1 137.8 642.8 138.2C642.7 138.3 642.7 138.4 642.6 138.5C642.2 139 641.9 139.4 641.6 139.9C641 140.9 640.4 141.7 640.1 142.2C639.8 142.6 639.6 142.9 639.6 142.9C639.4 143.2 637.8 145.8 636.8 145.2C635.8 144.6 637.1 141.8 637.2 141.6C637.2 141.6 637.4 141.2 637.6 140.7C637.9 140.2 638.2 139.4 638.7 138.6C638.8 138.5 638.8 138.4 638.9 138.3C639.1 137.9 639.3 137.6 639.6 137.2C639.6 137.2 640.1 136.4 640.2 136.3C640.5 135.9 640.8 135.4 641.1 134.9C641.4 134.5 641.7 134.1 642 133.7C642.2 133.5 642.8 132.7 643 132.5C643.3 132.1 643.6 131.7 644 131.3C644.1 131.2 644.1 131.2 644.2 131.1C644.6 130.8 644.9 130.5 645.2 130.2C645.9 129.5 646.6 128.8 647.4 128.2L647.5 128.1C648 128 648.5 127.6 649.1 127.3Z" fill="#262223"/>
<path d="M648.9 127.7L649.4 127.4C649.8 127.2 650.1 126.9 650.4 126.7C650.5 126.7 650.9 126.4 651 126.4C651.1 126.4 651.7 126 651.8 126C652.1 125.8 652.4 125.7 652.7 125.6C652.7 125.6 653.1 125.5 653.1 125.4C653.2 125.4 653.9 125.1 653.9 125.1C654 125.1 654.3 124.9 654.8 124.7C655.3 124.5 655.8 124.4 656.2 124.4C656.8 124.3 657.2 124.4 657.3 124.7C657.4 125 657.2 125.3 656.8 125.7C656.5 126 656.1 126.3 655.7 126.6C655.3 126.9 655 127 654.9 127.1C654.8 127.1 654.4 127.4 654.1 127.6C653.9 127.7 653.8 127.8 653.7 127.8C653.5 127.9 653.4 128 653.2 128.1C653.1 128.2 652.3 128.7 652.2 128.8L652 128.9C651.7 129.1 651.5 129.3 651.2 129.5C651 129.6 650.9 129.8 650.7 129.9C650.5 130 650.4 130.2 650.2 130.3C650.1 130.4 650 130.5 649.9 130.6C649.7 130.8 649.5 130.9 649.3 131.1C648.7 131.6 648.1 132.2 647.5 132.8C647.1 133.2 646.8 133.5 646.4 133.9L646.3 134C646.1 134.2 645.8 134.5 645.6 134.8C645.4 135 645.3 135.2 645.1 135.4C645 135.6 644.8 135.8 644.6 135.9L644.5 136C644.3 136.3 644 136.5 643.8 136.8C643.5 137.2 643.1 137.7 642.8 138.1C642.7 138.2 642.7 138.3 642.6 138.4C642.3 138.9 641.9 139.3 641.6 139.7C641 140.6 640.5 141.4 640.1 141.9C639.8 142.3 639.7 142.6 639.6 142.6C639.3 143.1 637.8 145.4 637.1 145C636.3 144.5 637.4 142.1 637.7 141.5C637.7 141.4 637.9 141.1 638.1 140.6C638.4 140.1 638.7 139.4 639.2 138.6C639.3 138.5 639.3 138.4 639.4 138.3C639.6 137.9 639.8 137.6 640 137.3C640.1 137.2 640.5 136.5 640.6 136.5C640.9 136.1 641.2 135.7 641.5 135.2C641.8 134.8 642.1 134.5 642.4 134.1C642.6 133.9 643.1 133.2 643.3 133C643.6 132.6 643.9 132.3 644.2 131.9C644.3 131.8 644.3 131.8 644.4 131.7C644.7 131.4 645 131.1 645.3 130.8C646 130.2 646.6 129.5 647.4 128.9L647.5 128.8C647.9 128.4 648.4 128 648.9 127.7Z" fill="#282626"/>
<path d="M648.8 128.1C648.9 128 649.2 127.8 649.3 127.8C649.6 127.6 650 127.3 650.3 127.2C650.4 127.1 650.8 126.9 650.8 126.9C650.9 126.8 651.4 126.6 651.5 126.5C651.8 126.3 652.1 126.2 652.3 126.1C652.3 126.1 652.6 126 652.7 125.9C652.8 125.8 653.4 125.6 653.5 125.6C653.6 125.5 654 125.4 654.4 125.2C654.9 125 655.4 124.9 655.8 124.8C656.4 124.7 656.8 124.7 656.9 125C657 125.2 656.7 125.5 656.3 125.9C656 126.2 655.6 126.4 655.2 126.7C654.9 126.9 654.5 127.1 654.4 127.2C654.3 127.3 653.9 127.5 653.6 127.7C653.5 127.8 653.3 127.9 653.3 127.9C653.1 128 653 128.1 652.8 128.2C652.7 128.3 652 128.7 651.8 128.8L651.6 128.9C651.4 129.1 651.1 129.2 650.9 129.4C650.7 129.5 650.6 129.7 650.4 129.8C650.2 129.9 650.1 130.1 649.9 130.2C649.8 130.3 649.7 130.4 649.6 130.4C649.4 130.6 649.2 130.7 649 130.9C648.4 131.4 647.9 131.9 647.3 132.5C646.9 132.9 646.6 133.2 646.2 133.6L646.1 133.7C645.9 133.9 645.7 134.2 645.4 134.4C645.2 134.6 645.1 134.8 644.9 135C644.8 135.2 644.6 135.3 644.4 135.5L644.3 135.6C644.1 135.9 643.9 136.1 643.7 136.3C643.4 136.7 643.1 137.1 642.8 137.5C642.7 137.6 642.7 137.7 642.6 137.7C642.3 138.1 641.9 138.6 641.7 139C641.1 139.8 640.6 140.6 640.2 141.1C640 141.5 639.8 141.7 639.7 141.8C639.2 142.6 637.9 144.6 637.4 144.2C636.8 143.8 637.8 141.7 638.2 140.9C638.3 140.8 638.4 140.5 638.6 140.1C638.9 139.6 639.2 138.9 639.7 138.2C639.8 138.1 639.8 138 639.9 137.9C640.1 137.6 640.3 137.2 640.5 136.9C640.6 136.8 640.9 136.2 641 136.1C641.3 135.7 641.5 135.3 641.8 134.9C642.1 134.5 642.3 134.2 642.6 133.9C642.8 133.7 643.3 133.1 643.5 132.9C643.8 132.6 644.1 132.2 644.4 131.9C644.5 131.8 644.5 131.8 644.6 131.7C644.9 131.4 645.2 131.1 645.5 130.9C646.1 130.3 646.8 129.7 647.4 129.1L647.5 129C647.8 128.8 648.3 128.4 648.8 128.1Z" fill="#2B2929"/>
<path d="M648.6 128.5C648.7 128.4 649 128.2 649 128.2C649.3 128 649.6 127.8 649.9 127.6C650 127.5 650.3 127.4 650.4 127.3C650.5 127.2 651 127 651.1 126.9C651.4 126.7 651.6 126.6 651.9 126.5C652 126.5 652.2 126.4 652.2 126.3C652.4 126.2 652.8 126 653 126C653.2 125.9 653.5 125.8 653.8 125.6C654.2 125.4 654.7 125.3 655.1 125.2C655.7 125.1 656.1 125 656.1 125.2C656.1 125.3 655.9 125.6 655.4 126C655.1 126.2 654.7 126.5 654.3 126.7C654 126.9 653.7 127 653.6 127.1C653.5 127.2 653.1 127.4 652.8 127.5C652.7 127.6 652.6 127.6 652.5 127.7C652.4 127.8 652.2 127.9 652 128C651.8 128.1 651.3 128.5 651.1 128.6L650.9 128.7C650.7 128.9 650.4 129 650.2 129.2C650 129.3 649.9 129.5 649.7 129.6C649.5 129.7 649.4 129.8 649.2 130C649.1 130.1 649 130.2 648.9 130.2C648.7 130.4 648.5 130.5 648.4 130.7C647.9 131.2 647.3 131.7 646.8 132.2C646.5 132.5 646.1 132.9 645.8 133.2L645.7 133.3C645.5 133.5 645.3 133.8 645.1 134C644.9 134.2 644.8 134.4 644.6 134.6C644.5 134.8 644.3 134.9 644.2 135.1L644.1 135.2C643.9 135.4 643.7 135.7 643.5 135.9C643.2 136.3 642.9 136.7 642.6 137.1C642.5 137.2 642.5 137.3 642.4 137.3C642.1 137.7 641.8 138.1 641.5 138.5C641 139.3 640.5 140 640.1 140.5C639.9 140.8 639.8 141 639.7 141.2C639 142.3 638 143.9 637.6 143.7C637.2 143.5 638 141.7 638.6 140.6C638.7 140.4 638.8 140.2 639 139.8C639.3 139.3 639.6 138.7 640 138C640.1 137.9 640.1 137.8 640.2 137.7C640.4 137.4 640.6 137.1 640.8 136.8C640.9 136.6 641.2 136.2 641.3 136C641.5 135.6 641.8 135.3 642.1 134.9C642.4 134.6 642.6 134.3 642.9 133.9C643.1 133.7 643.5 133.2 643.7 132.9C644 132.6 644.2 132.2 644.5 131.9L644.6 131.8C644.9 131.5 645.2 131.3 645.4 131C646 130.4 646.6 129.9 647.2 129.3L647.3 129.2C647.8 129.2 648.2 128.8 648.6 128.5Z" fill="#2E2C2D"/>
<path d="M648.5 129C648.6 128.9 648.8 128.8 648.9 128.7C649.2 128.5 649.5 128.3 649.8 128.1C649.9 128 650.2 127.9 650.3 127.8C650.5 127.7 650.8 127.5 651 127.4C651.2 127.3 651.5 127.1 651.7 127C651.8 127 651.9 126.9 652 126.8C652.2 126.7 652.5 126.5 652.7 126.5C652.9 126.4 653.2 126.3 653.5 126.1C653.9 125.9 654.4 125.8 654.7 125.7C655.3 125.5 655.7 125.4 655.7 125.5C655.7 125.6 655.4 125.8 654.9 126.1C654.6 126.3 654.2 126.5 653.8 126.8C653.6 127 653.3 127.1 653.1 127.2C652.9 127.3 652.6 127.5 652.4 127.6C652.3 127.7 652.2 127.7 652.1 127.8C652 127.9 651.8 128 651.7 128.1C651.5 128.3 651.1 128.5 650.8 128.7C650.8 128.7 650.7 128.8 650.6 128.8C650.4 129 650.2 129.1 649.9 129.3C649.8 129.4 649.6 129.5 649.5 129.7C649.4 129.8 649.2 129.9 649.1 130.1C649 130.2 648.9 130.2 648.8 130.3C648.6 130.4 648.5 130.6 648.3 130.7C647.8 131.2 647.3 131.7 646.8 132.2C646.5 132.5 646.1 132.9 645.8 133.2L645.7 133.3C645.5 133.5 645.3 133.7 645.1 134C644.9 134.2 644.8 134.4 644.6 134.5C644.5 134.7 644.3 134.8 644.2 135L644.1 135.1C643.9 135.3 643.7 135.6 643.5 135.8C643.2 136.2 642.9 136.5 642.6 136.9C642.5 137 642.5 137.1 642.4 137.1C642.1 137.5 641.8 137.9 641.5 138.3C641 139 640.5 139.6 640.1 140.2C639.9 140.5 639.8 140.7 639.7 140.8C638.9 142.1 638 143.5 637.8 143.3C637.6 143.2 638.3 141.8 639 140.4C639.1 140.2 639.2 140 639.4 139.6C639.7 139.1 640 138.5 640.4 137.9C640.4 137.8 640.5 137.7 640.5 137.7C640.7 137.4 640.9 137.1 641.1 136.8C641.2 136.6 641.5 136.3 641.6 136.1C641.8 135.8 642.1 135.4 642.4 135.1C642.6 134.8 642.9 134.5 643.1 134.2C643.3 133.9 643.6 133.6 643.8 133.3C644 133 644.3 132.7 644.6 132.4L644.7 132.3C645 132.1 645.2 131.8 645.5 131.6C646.1 131.1 646.6 130.5 647.2 130L647.3 129.9C647.7 129.6 648.1 129.3 648.5 129Z" fill="#303030"/>
<path d="M638.2 142.8C638.2 142.8 638.9 141.4 639.9 139.4C640.2 138.9 640.5 138.4 640.9 137.8C641.3 137.2 641.6 136.6 642.1 136C642.5 135.4 643 134.9 643.5 134.3C644 133.7 644.5 133.1 645 132.5C646.2 131.5 647.2 130.3 648.4 129.4C649 129 649.5 128.5 650.1 128.2C650.7 127.9 651.2 127.5 651.7 127.2C652.2 126.9 652.7 126.7 653.1 126.5C653.5 126.3 653.9 126.2 654.2 126C654.8 125.8 655.2 125.6 655.2 125.6C655.2 125.6 654.9 125.8 654.3 126.1C654 126.3 653.6 126.4 653.2 126.7C652.8 126.9 652.4 127.2 651.9 127.5C651.4 127.8 650.9 128.2 650.4 128.6C649.9 129 649.4 129.4 648.8 129.9C647.7 130.8 646.7 131.9 645.6 133C645.1 133.5 644.6 134.1 644.1 134.7C643.6 135.3 643.1 135.8 642.7 136.4C641.9 137.6 641 138.6 640.4 139.5C639.1 141.5 638.2 142.8 638.2 142.8Z" fill="#333333"/>
<path d="M650.4 148C650.4 148 650.4 149.3 650.5 149.8L644.8 157.3L644.4 157.8L642.3 160.6C642.3 160.6 642 160.8 641.8 160.5C641.1 159.4 639.3 156.7 639.9 151.3C640.4 146.8 641.8 144.2 642.4 143.3C642.4 143.2 642.5 143.2 642.6 143.1C642.8 143 643 143 643 143H643.1L650.8 146C650.9 146.1 650.5 146.9 650.4 148Z" fill="#333333"/>
<path d="M674.4 123.7C673.9 123.1 673.4 122.6 672.9 122.1C672.5 121.7 672.1 121.3 671.7 120.9C670.2 119.5 668.7 118.3 667.3 117.4C667.3 117.4 663.6 115.6 659.3 117C654.8 118.3 643.6 122.7 637.9 130.7C637.9 130.7 631.2 140.2 630 145.7C628.7 151.2 628.8 159.5 629.5 163.3C629.6 163.8 629.7 164.3 629.8 164.6C630.7 167 633.1 169.5 637.2 171H637.3C637.3 171 637.2 171 637.1 170.9H637C636.3 170.7 634.6 170.3 633 169.7C631.9 169.3 630.9 168.9 630.2 168.5C629.7 168.2 629.3 168 629 167.8C628.9 167.7 628.8 167.7 628.7 167.6C628.4 167 627.7 164 627.7 164C626.9 160.7 626.4 155.9 627.5 149.5C627.8 146.2 628.6 142.7 630.1 139.3C631.6 135.7 633.5 132.8 635.3 130.4C635.5 130.1 635.7 129.9 635.9 129.6C638.1 126.7 640.5 124.5 642.7 122.7C642.9 122.5 643.1 122.3 643.4 122.2C646.9 119.4 652.8 114.9 661.2 113.9C661.5 114 661.7 114.1 661.9 114.2C662.2 114.2 662.5 114.2 662.7 114.2C664.4 114.9 666.7 116.1 668.9 117.7C670.1 118.6 671.2 119.6 672.3 120.7C672.8 121.2 673.2 121.7 673.6 122.3C673.8 122.8 674.1 123.2 674.4 123.7Z" fill="#161430"/>
<path d="M518.5 221.3L520.2 222.1C520.2 222.1 525.6 212.2 522 201.1C518.4 190 505.1 189.6 493.6 197.3C482.1 205 476.5 214.6 474.6 222.2C472.7 229.8 473.1 238.8 474 241C474.4 238.1 474.8 236.5 474.8 236.5L518.5 221.3Z" fill="#161430"/>
<path d="M474 240.9L469.6 243C469.6 243 472.7 244.5 475.4 245.8C478.1 247.1 480.4 249 486.9 249.3C493.4 249.6 516.7 224.6 516.7 223.3C516.7 222 519 200 519 200C519 200 518.1 196 507.3 192C498.3 193.1 492.2 198.1 488.8 200.9C484.8 204.4 479.8 209 476.2 217.5C471.5 228.2 474.1 240.7 474 240.9Z" fill="#231F20"/>
<path d="M523.5 211.5C523.5 224.6 512.9 240.5 499.7 247C486.6 253.5 475.9 248.1 475.9 235C475.9 221.9 486.5 206 499.7 199.5C512.9 193 523.5 198.4 523.5 211.5Z" fill="#231F20"/>
<path d="M516.9 216.5C517.3 225.5 510.6 236.5 501.8 241C493.1 245.5 485.6 241.8 485.2 232.7C484.8 223.7 491.5 212.7 500.3 208.2C509 203.8 516.5 207.5 516.9 216.5Z" fill="url(#paint8_linear)"/>
<path d="M509.6 234.3C509.6 234.3 509 235.1 508 236.2C507.8 236.5 507.5 236.7 507.2 237C506.9 237.3 506.6 237.6 506.2 237.9C505.9 238.2 505.5 238.5 505.1 238.8C504.7 239.1 504.3 239.4 503.9 239.7C503 240.2 502.2 240.7 501.4 241.1C501 241.3 500.6 241.5 500.2 241.6C499.8 241.7 499.4 241.9 499.1 242C498.4 242.2 497.8 242.3 497.4 242.3C497 242.3 496.7 242.4 496.7 242.4C496.7 242.4 496.9 242.3 497.3 242.2C497.5 242.1 497.8 242.1 498 242C498.3 241.9 498.6 241.8 498.9 241.7C499.2 241.6 499.6 241.4 500 241.3C500.4 241.2 500.8 240.9 501.2 240.7C502 240.3 502.8 239.8 503.6 239.3C504 239 504.4 238.7 504.8 238.5C505.2 238.2 505.6 238 505.9 237.7C506.6 237.1 507.2 236.6 507.8 236.1C508.8 235 509.6 234.3 509.6 234.3Z" fill="#E6E6E6"/>
<path d="M499.2 242.7C499.2 242.7 500 242.4 500.1 242.4C500.2 242.4 500.3 242.3 500.5 242.3L501.4 241.9C501.6 241.8 501.8 241.7 502 241.6C502.1 241.5 502.3 241.5 502.4 241.4C502.6 241.3 502.8 241.2 503 241C503.2 240.9 503.3 240.8 503.5 240.7C503.9 240.4 504.4 240.1 504.9 239.7C505.2 239.5 505.5 239.3 505.8 239.1C506 239 506.2 238.8 506.4 238.6C506.5 238.5 506.7 238.4 506.8 238.2C506.9 238.1 507 238 507.2 237.9C507.4 237.7 507.6 237.5 507.8 237.4C508.1 237.1 508.4 236.8 508.7 236.5C509 236.2 509.2 235.9 509.5 235.7C510.4 234.6 511.1 233.9 511.1 233.9C511.1 233.9 512.5 232.2 513.2 232.7C513.9 233.2 512.7 235.1 512.7 235.1C512.7 235.1 512.2 235.9 511.3 237.1C511.1 237.3 511 237.5 510.8 237.8L510.3 238.3C510.1 238.6 509.8 238.9 509.6 239.1C509.4 239.3 509.1 239.6 508.9 239.8C508.8 239.9 508.3 240.4 508.2 240.5C508 240.7 507.7 241 507.4 241.2C507.1 241.4 506.8 241.6 506.5 241.8C506 242.2 505.4 242.6 504.8 242.9H504.7C504.3 243.1 503.9 243.3 503.5 243.5L503.1 243.7C502.8 243.8 502.6 243.9 502.3 244L501.3 244.3C501.1 244.4 500.9 244.4 500.7 244.5L499.8 244.7C499.8 244.7 497.6 245.3 497.5 244.3C497.4 243.3 499.2 242.7 499.2 242.7Z" fill="#231F20"/>
<path d="M512.8 232.8C513.3 233.2 512.5 234.6 512.2 235.1C512.2 235.1 511.9 235.5 511.6 236C511.4 236.3 511.1 236.7 510.8 237.1C510.6 237.3 510.5 237.5 510.3 237.7L509.9 238.2C509.7 238.4 509.5 238.7 509.2 239C509 239.2 508.8 239.4 508.5 239.6C508.4 239.7 507.9 240.1 507.8 240.2C507.7 240.3 507.5 240.5 507.3 240.6C507.2 240.7 507.1 240.7 507 240.8C506.7 241 506.4 241.2 506.2 241.4C505.7 241.8 505.2 242.1 504.7 242.4H504.6C504.3 242.6 503.9 242.8 503.5 243L503.2 243.2C502.9 243.3 502.7 243.4 502.5 243.5C502.5 243.5 501.9 243.7 501.8 243.7C501.8 243.7 501.6 243.8 501.5 243.8C501.3 243.9 501.1 243.9 500.9 244L500.4 244.1L500 244.2C500 244.2 499.6 244.3 499.2 244.4C498.9 244.4 498.6 244.5 498.3 244.4C498 244.4 497.8 244.2 497.7 244C497.7 243.8 497.8 243.5 498.1 243.3C498.3 243.1 498.6 242.9 498.9 242.8C499.2 242.7 499.4 242.6 499.5 242.6C499.5 242.6 499.9 242.4 500.1 242.4C500.2 242.4 500.3 242.3 500.3 242.3C500.4 242.3 500.5 242.2 500.7 242.2C500.7 242.2 501.5 241.8 501.6 241.8C501.8 241.7 502 241.6 502.2 241.5C502.3 241.4 502.5 241.4 502.6 241.3C502.8 241.2 503 241.1 503.2 241C503.3 240.9 503.5 240.8 503.6 240.7C504 240.4 504.5 240.1 504.9 239.8C505.2 239.6 505.5 239.4 505.7 239.2C505.8 239.1 505.9 239.1 505.9 239C506 238.9 506.1 238.8 506.3 238.7C506.4 238.6 506.6 238.5 506.7 238.4C506.8 238.3 506.9 238.2 507.1 238.1C507.2 238 507.2 238 507.3 237.9C507.4 237.8 507.6 237.7 507.7 237.6C508 237.3 508.3 237 508.5 236.8C508.5 236.8 508.5 236.8 508.6 236.7C508.9 236.4 509.1 236.2 509.4 235.9C509.9 235.3 510.3 234.8 510.6 234.5C510.8 234.3 510.9 234.1 510.9 234.1C511 233.9 512.2 232.4 512.8 232.8Z" fill="#262223"/>
<path d="M512.5 233.1C512.9 233.4 512.1 234.7 511.7 235.3C511.6 235.4 511.4 235.7 511 236.2C510.8 236.5 510.5 236.9 510.2 237.3C510.1 237.5 509.9 237.7 509.7 237.8L509.3 238.2C509.1 238.4 508.9 238.7 508.7 238.9C508.5 239.1 508.3 239.3 508.1 239.5C508 239.6 507.6 240 507.5 240.1C507.4 240.2 507.2 240.4 507.1 240.5C507 240.6 506.9 240.6 506.9 240.7C506.6 240.9 506.4 241.1 506.2 241.2C505.8 241.5 505.3 241.9 504.8 242.1H504.7C504.4 242.3 504.1 242.5 503.7 242.6L503.4 242.7C503.2 242.8 502.9 242.9 502.7 243C502.6 243 502.1 243.2 502 243.3C502 243.3 501.8 243.4 501.7 243.4C501.5 243.5 501.3 243.5 501.1 243.6C501.1 243.6 500.7 243.7 500.6 243.7C500.6 243.7 500.3 243.8 500.2 243.8C500.1 243.8 499.8 243.9 499.5 244C499.2 244.1 498.9 244.1 498.6 244.1C498.3 244.1 498 244 498 243.8C498 243.6 498.1 243.4 498.4 243.2C498.6 243 498.9 242.9 499.2 242.7C499.5 242.6 499.7 242.5 499.7 242.5C499.8 242.5 500.1 242.3 500.3 242.3C500.4 242.3 500.4 242.2 500.5 242.2C500.6 242.2 500.7 242.1 500.8 242.1C500.9 242.1 501.5 241.8 501.6 241.7C501.8 241.6 502 241.5 502.1 241.4C502.2 241.3 502.3 241.3 502.5 241.2C502.7 241.1 502.9 241 503 240.9C503.1 240.8 503.3 240.7 503.4 240.6C503.8 240.3 504.2 240 504.7 239.7C505 239.5 505.2 239.3 505.5 239.1C505.6 239 505.6 239 505.7 238.9C505.8 238.8 505.9 238.7 506.1 238.6C506.2 238.5 506.4 238.4 506.5 238.3C506.6 238.2 506.7 238.1 506.8 238C506.9 237.9 506.9 237.9 507 237.8C507.1 237.7 507.3 237.6 507.4 237.5C507.7 237.2 507.9 237 508.2 236.7C508.2 236.7 508.2 236.7 508.3 236.6C508.6 236.3 508.8 236.1 509 235.8C509.5 235.3 509.9 234.8 510.2 234.5C510.4 234.3 510.5 234.2 510.5 234.1C511 234.1 512.1 232.8 512.5 233.1Z" fill="#282626"/>
<path d="M512.3 233.4C512.6 233.6 511.9 234.8 511.4 235.6C511.3 235.7 511 236.1 510.7 236.5C510.5 236.8 510.2 237.2 509.9 237.6C509.8 237.8 509.6 237.9 509.5 238.1C509.5 238.1 509.2 238.4 509.1 238.5C508.9 238.7 508.7 238.9 508.5 239.1C508.3 239.3 508.1 239.5 507.9 239.6C507.8 239.7 507.4 240 507.3 240.1C507.2 240.2 507 240.3 506.9 240.4C506.8 240.5 506.8 240.5 506.7 240.6C506.4 240.8 506.2 240.9 506 241.1C505.6 241.4 505.2 241.7 504.7 242H504.6C504.3 242.2 504 242.4 503.7 242.5C503.7 242.5 503.5 242.6 503.4 242.6C503.2 242.7 502.9 242.8 502.7 242.9C502.6 242.9 502.2 243.1 502.1 243.2L501.9 243.3C501.7 243.4 501.5 243.4 501.3 243.5C501.2 243.5 500.9 243.6 500.9 243.6C500.8 243.6 500.6 243.7 500.5 243.7C500.4 243.7 500.1 243.8 499.8 243.9C499.5 244 499.2 244 499 244C498.6 244 498.4 244 498.4 243.8C498.4 243.7 498.6 243.5 498.9 243.3C499.1 243.1 499.4 243 499.7 242.9C499.9 242.8 500.1 242.7 500.2 242.7C500.3 242.7 500.6 242.5 500.8 242.5C500.9 242.5 500.9 242.4 501 242.4C501.1 242.4 501.2 242.3 501.3 242.3C501.4 242.2 502 242 502.1 241.9C502.3 241.8 502.4 241.7 502.6 241.6C502.7 241.5 502.8 241.5 502.9 241.4C503.1 241.3 503.2 241.2 503.4 241.1C503.5 241 503.7 240.9 503.8 240.8C504.2 240.6 504.6 240.3 505 239.9C505.3 239.7 505.5 239.5 505.8 239.3C505.9 239.2 505.9 239.2 506 239.1C506.1 239 506.2 238.9 506.3 238.8C506.4 238.7 506.5 238.6 506.7 238.5C506.8 238.4 506.9 238.3 507 238.2C507.1 238.1 507.1 238.1 507.2 238C507.3 237.9 507.4 237.8 507.6 237.7C507.9 237.4 508.1 237.2 508.4 236.9C508.4 236.9 508.4 236.9 508.5 236.8C508.8 236.5 509 236.3 509.2 236.1C509.7 235.6 510.1 235.2 510.3 234.8C510.5 234.6 510.6 234.5 510.6 234.5C511 234.3 512 233.2 512.3 233.4Z" fill="#2B2929"/>
<path d="M512.1 233.7C512.3 233.9 511.7 234.9 511 235.8C510.9 236 510.6 236.3 510.3 236.7C510 237 509.8 237.4 509.5 237.7C509.4 237.8 509.2 238 509.1 238.1C509 238.2 508.8 238.4 508.8 238.4C508.6 238.6 508.4 238.8 508.3 238.9C508.1 239.1 508 239.2 507.8 239.4C507.7 239.5 507.4 239.8 507.3 239.9C507.2 240 507.1 240.1 507 240.2C506.9 240.3 506.9 240.3 506.8 240.4C506.6 240.6 506.4 240.7 506.2 240.8C505.8 241.1 505.4 241.3 505.1 241.6C505.1 241.6 505.1 241.6 505 241.6C504.7 241.8 504.5 241.9 504.2 242.1L504 242.2C503.8 242.3 503.6 242.4 503.3 242.5C503.2 242.6 502.8 242.7 502.7 242.8C502.6 242.8 502.5 242.9 502.5 242.9C502.3 243 502.1 243 502 243.1C501.9 243.1 501.7 243.2 501.6 243.2C501.5 243.2 501.3 243.3 501.3 243.3C501.2 243.4 500.9 243.4 500.6 243.5C500.3 243.6 500 243.6 499.8 243.6C499.4 243.6 499.2 243.6 499.2 243.5C499.2 243.4 499.4 243.3 499.7 243.1C499.9 243 500.2 242.9 500.5 242.7C500.7 242.6 500.9 242.5 501 242.5C501.1 242.5 501.3 242.4 501.5 242.3C501.6 242.3 501.6 242.2 501.7 242.2C501.8 242.2 501.9 242.1 502 242.1C502.1 242 502.6 241.8 502.7 241.7C502.9 241.6 503 241.5 503.2 241.4C503.3 241.3 503.4 241.3 503.5 241.2C503.7 241.1 503.8 241 504 240.9C504.1 240.8 504.3 240.7 504.4 240.7C504.8 240.5 505.2 240.2 505.6 239.9C505.8 239.7 506.1 239.5 506.3 239.3C506.4 239.2 506.4 239.2 506.5 239.1C506.6 239 506.7 238.9 506.8 238.8C506.9 238.7 507 238.6 507.2 238.5C507.3 238.4 507.4 238.3 507.5 238.2C507.6 238.1 507.6 238.1 507.7 238C507.8 237.9 507.9 237.8 508 237.7C508.3 237.5 508.5 237.2 508.8 237C508.8 237 508.8 237 508.9 236.9C509.1 236.7 509.4 236.4 509.6 236.2C510 235.7 510.4 235.3 510.7 235C510.8 234.8 510.9 234.7 511 234.7C511.1 234.5 511.9 233.6 512.1 233.7Z" fill="#2E2C2D"/>
<path d="M511.9 234C512 234.1 511.4 235 510.7 236.1C510.5 236.3 510.3 236.6 510 237C509.7 237.3 509.5 237.7 509.1 238C509 238.1 508.9 238.3 508.7 238.4C508.6 238.5 508.5 238.6 508.4 238.7C508.2 238.9 508.1 239 507.9 239.2C507.8 239.3 507.6 239.5 507.4 239.6C507.3 239.7 507.1 239.9 506.9 240C506.8 240.1 506.7 240.2 506.6 240.3C506.5 240.3 506.5 240.4 506.4 240.4C506.2 240.5 506 240.7 505.8 240.8C505.5 241 505.1 241.3 504.8 241.5C504.6 241.6 504.3 241.8 504.1 241.9C504 241.9 503.9 242 503.9 242C503.7 242.1 503.5 242.2 503.3 242.3C503.1 242.4 502.9 242.5 502.7 242.6C502.6 242.6 502.5 242.7 502.5 242.7C502.3 242.8 502.1 242.8 502 242.9C501.9 242.9 501.7 243 501.6 243C501.5 243 501.4 243.1 501.3 243.1C501.1 243.2 500.9 243.2 500.6 243.3C500.3 243.4 500 243.4 499.8 243.5C499.4 243.6 499.2 243.6 499.2 243.5C499.2 243.5 499.4 243.3 499.8 243.2C500 243.1 500.3 243 500.5 242.9C500.7 242.8 500.8 242.8 500.9 242.7C501 242.6 501.2 242.6 501.4 242.5C501.5 242.5 501.5 242.5 501.6 242.4C501.7 242.4 501.8 242.3 501.9 242.3C502.1 242.2 502.4 242 502.6 242C502.8 241.9 502.9 241.8 503.1 241.7C503.2 241.6 503.3 241.6 503.4 241.5C503.5 241.4 503.7 241.3 503.8 241.2C503.9 241.1 504 241.1 504.2 241C504.6 240.8 504.9 240.5 505.3 240.2C505.5 240 505.8 239.8 506 239.7C506.1 239.6 506.1 239.6 506.2 239.5C506.3 239.4 506.4 239.3 506.5 239.2C506.6 239.1 506.7 239 506.8 238.9C506.9 238.8 507 238.7 507.1 238.6C507.2 238.6 507.2 238.5 507.3 238.5C507.4 238.4 507.5 238.3 507.6 238.2C507.9 238 508.1 237.7 508.3 237.5C508.3 237.5 508.3 237.5 508.4 237.4C508.6 237.2 508.8 236.9 509 236.7C509.4 236.3 509.8 235.9 510.1 235.6C510.2 235.5 510.3 235.4 510.4 235.3C511.1 234.7 511.8 234 511.9 234Z" fill="#303030"/>
<path d="M511.7 234.4C511.7 234.4 511.2 235.2 510.3 236.4C510.1 236.7 509.8 237 509.5 237.3C509.2 237.6 508.9 238 508.6 238.3C508.3 238.6 507.9 238.9 507.6 239.3C507.2 239.6 506.9 240 506.5 240.3C505.7 240.9 504.9 241.5 504.1 241.9C503.7 242.1 503.3 242.4 502.9 242.5C502.5 242.7 502.2 242.9 501.8 243C501.5 243.1 501.1 243.2 500.8 243.3C500.5 243.4 500.3 243.4 500.1 243.5C499.7 243.6 499.4 243.6 499.4 243.6C499.4 243.6 499.6 243.5 500 243.4C500.2 243.3 500.4 243.3 500.7 243.1C501 243 501.3 242.8 501.6 242.7C501.9 242.6 502.3 242.4 502.6 242.2C503 242 503.3 241.8 503.7 241.5C504.5 241.1 505.2 240.4 506 239.9C506.4 239.6 506.7 239.3 507.1 239C507.5 238.7 507.8 238.4 508.1 238.1C508.7 237.4 509.3 236.9 509.8 236.3C511 235.1 511.7 234.4 511.7 234.4Z" fill="#333333"/>
<path d="M502.2 205.1C502.2 205.1 501 205.7 500.9 205.8C500.7 205.9 500.5 206 500.3 206.1L499 206.9C498.7 207.1 498.4 207.3 498.2 207.5C498 207.6 497.8 207.8 497.6 207.9C497.3 208.1 497 208.4 496.7 208.6C496.5 208.8 496.3 209 496 209.1C495.4 209.6 494.7 210.2 494.1 210.9C493.7 211.3 493.3 211.7 492.9 212.1C492.6 212.4 492.3 212.7 492.1 213C491.9 213.2 491.7 213.4 491.5 213.7C491.4 213.9 491.2 214.1 491 214.3C490.7 214.6 490.4 214.9 490.2 215.3C489.8 215.9 489.4 216.4 489 217C488.6 217.5 488.3 218 487.9 218.4C486.7 220.3 485.8 221.6 485.8 221.6C485.8 221.6 484 224.6 482.8 223.9C481.6 223.2 483 220.1 483 220.1C483 220.1 483.7 218.7 484.7 216.6C484.9 216.2 485.2 215.8 485.4 215.5L486 214.6C486.3 214.1 486.6 213.6 487 213.1C487.3 212.7 487.6 212.3 488 211.9C488.2 211.7 488.9 210.9 489 210.7C489.3 210.3 489.7 209.9 490.1 209.5C490.6 209.1 491 208.7 491.3 208.3C492 207.6 492.8 206.9 493.7 206.2L493.8 206.1C494.3 205.7 494.9 205.2 495.5 204.9L496 204.6C496.4 204.4 496.8 204.1 497.1 203.9L498.5 203.2C498.8 203 499.2 202.9 499.4 202.8L500.7 202.3C500.7 202.3 504 200.9 504.4 202.4C505 203.8 502.2 205.1 502.2 205.1Z" fill="#231F20"/>
<path d="M495.3 205.3L495.8 205C496.2 204.8 496.5 204.5 496.9 204.3C496.9 204.3 497.4 204 497.5 204L498.3 203.6C498.6 203.4 498.9 203.3 499.2 203.2L499.6 203C499.6 203 500.4 202.7 500.5 202.7C500.5 202.7 500.9 202.5 501.4 202.4C501.9 202.2 502.4 202.1 502.9 202.1C503.5 202.1 503.9 202.2 504 202.6C504.1 203 503.9 203.4 503.6 203.7C503.3 204.1 502.8 204.4 502.4 204.7C502 205 501.6 205.2 501.5 205.2C501.5 205.2 501 205.5 500.6 205.7C500.4 205.8 500.3 205.9 500.2 205.9C500 206 499.8 206.1 499.7 206.2C499.7 206.2 498.7 206.8 498.6 206.9L498.4 207C498.1 207.2 497.9 207.4 497.6 207.6C497.4 207.7 497.2 207.9 497 208C496.8 208.1 496.6 208.3 496.5 208.4C496.4 208.5 496.3 208.6 496.2 208.7C496 208.9 495.8 209.1 495.6 209.2C495 209.7 494.4 210.3 493.8 210.9C493.4 211.3 493 211.7 492.6 212L492.5 212.1C492.3 212.3 492 212.6 491.8 212.9C491.6 213.1 491.4 213.3 491.3 213.5C491.2 213.7 491 213.9 490.8 214.1L490.7 214.2C490.5 214.5 490.2 214.7 490 215C489.7 215.4 489.3 215.9 489 216.3C488.9 216.4 488.9 216.5 488.8 216.6C488.4 217.1 488.1 217.5 487.8 218C487.2 219 486.6 219.8 486.3 220.3C486 220.7 485.8 221 485.8 221C485.6 221.3 484 223.9 483 223.3C482 222.7 483.3 219.9 483.4 219.7C483.4 219.7 483.6 219.3 483.8 218.8C484.1 218.3 484.4 217.5 484.9 216.7C485 216.6 485 216.5 485.1 216.4C485.3 216 485.5 215.7 485.8 215.3C485.8 215.3 486.3 214.5 486.4 214.4C486.7 214 487 213.5 487.3 213C487.6 212.6 487.9 212.2 488.2 211.8C488.4 211.6 489 210.8 489.2 210.6C489.5 210.2 489.8 209.8 490.2 209.4C490.3 209.3 490.3 209.3 490.4 209.2C490.8 208.9 491.1 208.6 491.4 208.3C492.1 207.6 492.8 206.9 493.6 206.3L493.7 206.2C494.2 206.1 494.7 205.7 495.3 205.3Z" fill="#262223"/>
<path d="M495.2 205.8L495.7 205.5C496.1 205.3 496.4 205 496.7 204.8C496.8 204.8 497.2 204.5 497.3 204.5C497.4 204.5 498 204.1 498.1 204.1C498.4 203.9 498.7 203.8 499 203.7C499 203.7 499.4 203.6 499.4 203.5C499.5 203.5 500.2 203.2 500.2 203.2C500.3 203.2 500.6 203 501.1 202.8C501.6 202.6 502.1 202.5 502.5 202.5C503.1 202.4 503.5 202.5 503.6 202.8C503.7 203.1 503.5 203.4 503.1 203.8C502.8 204.1 502.4 204.4 502 204.7C501.6 205 501.3 205.1 501.2 205.2C501.1 205.2 500.7 205.5 500.4 205.7C500.2 205.8 500.1 205.9 500 205.9C499.8 206 499.7 206.1 499.5 206.2C499.4 206.3 498.6 206.8 498.5 206.9L498.3 207C498 207.2 497.8 207.4 497.5 207.6C497.3 207.7 497.2 207.9 497 208C496.8 208.1 496.7 208.3 496.5 208.4C496.4 208.5 496.3 208.6 496.2 208.7C496 208.9 495.8 209 495.6 209.2C495 209.7 494.4 210.3 493.8 210.9C493.4 211.3 493.1 211.6 492.7 212L492.6 212.1C492.4 212.3 492.1 212.6 491.9 212.9C491.7 213.1 491.6 213.3 491.4 213.5C491.3 213.7 491.1 213.9 490.9 214L490.8 214.1C490.6 214.4 490.3 214.6 490.1 214.9C489.8 215.3 489.4 215.8 489.1 216.2C489 216.3 489 216.4 488.9 216.5C488.6 217 488.2 217.4 487.9 217.8C487.3 218.7 486.8 219.5 486.4 220C486.1 220.4 486 220.7 485.9 220.7C485.6 221.2 484.1 223.5 483.4 223.1C482.6 222.6 483.7 220.2 484 219.6C484 219.5 484.2 219.2 484.4 218.7C484.7 218.2 485 217.5 485.5 216.7C485.6 216.6 485.6 216.5 485.7 216.4C485.9 216 486.1 215.7 486.3 215.4C486.4 215.3 486.8 214.6 486.9 214.6C487.2 214.2 487.5 213.8 487.8 213.3C488.1 212.9 488.4 212.6 488.7 212.2C488.9 212 489.4 211.3 489.6 211.1C489.9 210.7 490.2 210.4 490.5 210C490.6 209.9 490.6 209.9 490.7 209.8C491 209.5 491.3 209.2 491.6 208.9C492.3 208.3 492.9 207.6 493.7 207L493.8 206.9C494.1 206.5 494.6 206.1 495.2 205.8Z" fill="#282626"/>
<path d="M495 206.2C495.1 206.1 495.4 205.9 495.5 205.9C495.8 205.7 496.2 205.4 496.5 205.3C496.6 205.2 497 205 497 205C497.1 204.9 497.6 204.7 497.7 204.6C498 204.4 498.3 204.3 498.5 204.2C498.5 204.2 498.8 204.1 498.9 204C499 203.9 499.6 203.7 499.7 203.7C499.8 203.6 500.2 203.5 500.6 203.3C501.1 203.1 501.6 203 502 202.9C502.6 202.8 503 202.8 503 203.1C503.1 203.3 502.8 203.6 502.4 204C502.1 204.3 501.7 204.5 501.3 204.8C501 205 500.6 205.2 500.5 205.3C500.4 205.4 500 205.6 499.7 205.8C499.6 205.9 499.4 206 499.4 206C499.2 206.1 499.1 206.2 498.9 206.3C498.8 206.4 498.1 206.8 497.9 206.9L497.7 207C497.5 207.2 497.2 207.3 497 207.5C496.8 207.6 496.7 207.8 496.5 207.9C496.3 208 496.2 208.2 496 208.3C495.9 208.4 495.8 208.5 495.7 208.5C495.5 208.7 495.3 208.8 495.1 209C494.5 209.5 494 210 493.4 210.6C493 211 492.7 211.3 492.3 211.7L492.2 211.8C492 212 491.8 212.3 491.5 212.5C491.3 212.7 491.2 212.9 491 213.1C490.9 213.3 490.7 213.4 490.5 213.6L490.4 213.7C490.2 213.9 490 214.2 489.8 214.4C489.5 214.8 489.2 215.2 488.9 215.6C488.8 215.7 488.8 215.8 488.7 215.8C488.4 216.2 488 216.7 487.8 217.1C487.2 217.9 486.7 218.7 486.3 219.2C486.1 219.6 485.9 219.8 485.8 219.9C485.3 220.7 484 222.7 483.5 222.3C482.9 221.9 483.9 219.8 484.3 219C484.4 218.9 484.5 218.6 484.7 218.2C485 217.7 485.3 217 485.8 216.3C485.9 216.2 485.9 216.1 486 216C486.2 215.7 486.4 215.3 486.6 215C486.7 214.9 487.1 214.3 487.1 214.2C487.4 213.8 487.6 213.4 487.9 213C488.2 212.6 488.4 212.3 488.7 212C488.9 211.8 489.4 211.2 489.6 211C489.9 210.7 490.2 210.3 490.5 210C490.6 209.9 490.6 209.9 490.7 209.8C491 209.5 491.3 209.2 491.6 209C492.2 208.4 492.9 207.8 493.5 207.2L493.6 207.1C494.1 206.9 494.5 206.5 495 206.2Z" fill="#2B2929"/>
<path d="M494.9 206.6C495 206.5 495.3 206.3 495.3 206.3C495.6 206.1 495.9 205.9 496.2 205.7C496.3 205.6 496.6 205.5 496.7 205.4C496.8 205.3 497.3 205.1 497.4 205C497.7 204.8 497.9 204.7 498.2 204.6C498.3 204.6 498.5 204.5 498.5 204.4C498.7 204.3 499.1 204.1 499.3 204.1C499.5 204 499.8 203.9 500.1 203.7C500.5 203.5 501 203.4 501.4 203.3C502 203.1 502.4 203.1 502.4 203.3C502.4 203.4 502.2 203.7 501.7 204.1C501.4 204.3 501 204.6 500.6 204.8C500.3 205 500 205.1 499.9 205.2C499.8 205.3 499.4 205.5 499.1 205.6C499 205.7 498.9 205.7 498.8 205.8C498.7 205.9 498.5 206 498.3 206.1C498.1 206.2 497.6 206.6 497.4 206.7L497.2 206.8C497 207 496.7 207.1 496.5 207.3C496.3 207.4 496.2 207.6 496 207.7C495.8 207.8 495.7 207.9 495.5 208.1C495.4 208.2 495.3 208.2 495.2 208.3C495 208.5 494.8 208.6 494.7 208.8C494.2 209.3 493.6 209.8 493.1 210.3C492.8 210.6 492.4 211 492.1 211.3L492 211.4C491.8 211.6 491.6 211.9 491.4 212.1C491.2 212.3 491.1 212.5 490.9 212.7C490.8 212.9 490.6 213 490.5 213.2L490.4 213.3C490.2 213.5 490 213.8 489.8 214C489.5 214.4 489.2 214.8 488.9 215.2C488.8 215.3 488.8 215.4 488.7 215.4C488.4 215.8 488.1 216.2 487.8 216.6C487.3 217.4 486.8 218.1 486.4 218.6C486.2 218.9 486.1 219.1 486 219.3C485.3 220.4 484.3 222 483.9 221.8C483.5 221.6 484.3 219.8 484.9 218.7C485 218.5 485.1 218.3 485.3 217.9C485.6 217.4 485.9 216.8 486.3 216.1C486.4 216 486.4 215.9 486.5 215.8C486.7 215.5 486.9 215.2 487.1 214.9C487.2 214.7 487.5 214.3 487.6 214.1C487.8 213.7 488.1 213.4 488.4 213C488.7 212.7 488.9 212.4 489.2 212C489.4 211.8 489.8 211.3 490 211C490.3 210.7 490.5 210.4 490.8 210L490.9 209.9C491.2 209.6 491.5 209.4 491.7 209.1C492.3 208.5 492.9 208 493.5 207.4L493.6 207.3C494 207.3 494.4 206.9 494.9 206.6Z" fill="#2E2C2D"/>
<path d="M494.7 207.1C494.8 207 495 206.9 495.1 206.8C495.4 206.6 495.7 206.4 496 206.2C496.1 206.1 496.4 206 496.5 205.9C496.7 205.8 497 205.6 497.2 205.5C497.4 205.4 497.7 205.2 497.9 205.1C498 205.1 498.1 205 498.2 204.9C498.4 204.8 498.7 204.6 498.9 204.6C499.1 204.5 499.4 204.4 499.7 204.2C500.1 204 500.6 203.9 500.9 203.8C501.5 203.6 501.9 203.5 501.9 203.6C501.9 203.7 501.6 203.9 501.1 204.2C500.8 204.4 500.4 204.6 500 204.9C499.7 205.1 499.5 205.2 499.3 205.3C499.1 205.4 498.8 205.6 498.6 205.7C498.5 205.8 498.4 205.8 498.3 205.9C498.2 206 498 206.1 497.9 206.2C497.7 206.4 497.3 206.6 497 206.8C497 206.8 496.9 206.9 496.8 206.9C496.6 207.1 496.4 207.2 496.1 207.4C496 207.5 495.8 207.6 495.7 207.8C495.6 207.9 495.4 208 495.3 208.2C495.2 208.3 495.1 208.3 495 208.4C494.8 208.5 494.7 208.7 494.5 208.8C494 209.3 493.5 209.8 493 210.3C492.7 210.6 492.3 211 492 211.3L491.9 211.4C491.7 211.6 491.5 211.8 491.3 212.1C491.1 212.3 491 212.5 490.8 212.6C490.7 212.8 490.5 212.9 490.4 213.1L490.3 213.2C490.1 213.4 489.9 213.7 489.7 213.9C489.4 214.3 489.1 214.6 488.8 215C488.7 215.1 488.7 215.2 488.6 215.2C488.3 215.6 488 216 487.7 216.4C487.2 217.1 486.7 217.7 486.3 218.3C486.1 218.6 486 218.8 485.9 218.9C485.1 220.2 484.2 221.6 484 221.4C483.8 221.3 484.5 219.9 485.2 218.5C485.3 218.3 485.4 218 485.6 217.7C485.9 217.2 486.2 216.6 486.6 216C486.6 215.9 486.7 215.8 486.7 215.8C486.9 215.5 487.1 215.2 487.3 214.9C487.4 214.7 487.7 214.4 487.8 214.2C488 213.9 488.3 213.5 488.6 213.2C488.8 212.9 489.1 212.6 489.3 212.3C489.5 212 489.8 211.7 490 211.4C490.2 211.1 490.5 210.8 490.8 210.5L490.9 210.4C491.2 210.2 491.4 209.9 491.7 209.7C492.3 209.2 492.8 208.6 493.4 208.1L493.5 208C493.9 207.7 494.3 207.3 494.7 207.1Z" fill="#303030"/>
<path d="M484.4 220.8C484.4 220.8 485.1 219.4 486.1 217.4C486.4 216.9 486.7 216.4 487.1 215.8C487.5 215.2 487.8 214.6 488.3 214C488.7 213.4 489.2 212.9 489.7 212.3C490.2 211.7 490.7 211.1 491.2 210.5C492.4 209.5 493.4 208.3 494.6 207.4C495.2 207 495.7 206.5 496.3 206.2C496.9 205.9 497.4 205.5 497.9 205.2C498.4 204.9 498.9 204.7 499.3 204.5C499.7 204.3 500.1 204.2 500.4 204C501 203.8 501.4 203.6 501.4 203.6C501.4 203.6 501.1 203.8 500.5 204.1C500.2 204.3 499.8 204.4 499.4 204.7C499 204.9 498.6 205.2 498.1 205.5C497.6 205.8 497.1 206.2 496.6 206.6C496.1 207 495.6 207.4 495 207.9C493.9 208.8 492.9 209.9 491.8 211C491.3 211.5 490.8 212.1 490.3 212.7C489.8 213.3 489.3 213.8 488.9 214.4C488.1 215.6 487.2 216.6 486.6 217.5C485.3 219.6 484.4 220.8 484.4 220.8Z" fill="#333333"/>
<path d="M502.9 223.7C502.9 224.8 502.2 226 501.1 226.6C500.1 227.1 499.2 226.7 499.2 225.6C499.2 224.5 499.9 223.3 501 222.7C502 222.2 502.9 222.6 502.9 223.7Z" fill="#4D4D4D"/>
<path d="M504.1 208.2L503.7 209.7L503.3 211.3L500.9 220C500.9 220 500 220.5 499.5 220.9C499 221.3 498.3 222.2 498.3 222.2L491.2 218.4H491.1C491.1 218.4 490.8 218 491.1 217.7C491.6 217.1 492.5 215.9 493.6 214.6C494.5 213.6 495.5 212.6 496.6 211.8C500.6 208.9 503.3 208.1 504.1 207.9C504.2 207.7 504.1 208.2 504.1 208.2Z" fill="#333333"/>
<path d="M516 217.9C516 218 515.8 218.3 515.7 218.3C514 218.9 511.8 219.6 509.9 220.2C509.7 220.3 509.4 220.4 509.2 220.4C507.1 221.1 505.6 221.6 505.6 221.6C505.6 221.6 505.6 221.3 505.1 220.6C504.7 219.9 504.4 219.8 504.4 219.8L506.6 212.4L507.1 210.7L508 207.7C508 207.7 508.2 207.5 508.4 207.5C509.5 207.7 512.8 208.3 514.5 211.4C515.9 214.3 516 216.8 516 217.9Z" fill="#333333"/>
<path d="M515.3 222.7C515 223.6 514.2 226.5 512.7 229.2C511.4 231.4 509.8 233.4 509.2 234C509.1 234.1 508.8 233.9 508.8 233.9L505.5 229.3L503.9 227C503.9 227 504.5 226.4 504.8 225.8C505.1 225.2 505.3 224.7 505.3 224.7L508.4 224L508.9 223.9L515.2 222.5C515.1 222.5 515.3 222.5 515.3 222.7Z" fill="#333333"/>
<path d="M506.3 237C505.3 237.8 502.1 240.6 498.8 241.3C495.9 242 494.2 242.2 491.3 241.1C491.2 241.1 491.2 240.8 491.3 240.7C491.9 239.7 492.9 238.2 493.9 236.6L494.3 236C496.4 232.9 498.5 229.7 498.5 229.7C498.5 229.7 499.5 230 500.6 229.5C501.7 229.1 502.3 228.6 502.3 228.6L503.7 231.3V231.4L506.3 236.4C506.4 236.4 506.5 236.8 506.3 237Z" fill="#333333"/>
<path d="M496.7 226C496.7 226 496.7 227.3 496.8 227.8L491.1 235.3L490.7 235.8L488.6 238.6C488.6 238.6 488.3 238.8 488.1 238.5C487.4 237.4 485.6 234.7 486.2 229.3C486.7 224.8 488.1 222.2 488.7 221.3C488.7 221.2 488.8 221.2 488.9 221.1C489.1 221 489.3 221 489.3 221H489.4L497.1 224C497.1 224.2 496.7 225 496.7 226Z" fill="#333333"/>
<path d="M496.7 226C496.8 225 497.1 224.1 497.1 224.1L489.4 221.1H489.3C489.3 221.1 489.1 221.1 488.9 221.2C487.8 223.7 487.2 226.3 487.3 228.7C487.5 232 488.9 234.3 491.2 235.4L496.9 227.9C496.7 227.3 496.7 226 496.7 226Z" fill="url(#paint9_linear)"/>
<path d="M500.6 229.5C499.5 229.9 498.5 229.7 498.5 229.7C498.5 229.7 496.3 232.9 494.3 236C495.8 236 497.5 235.5 499.2 234.6C500.8 233.8 502.3 232.6 503.7 231.3L502.3 228.6C502.3 228.6 501.7 229.1 500.6 229.5Z" fill="url(#paint10_linear)"/>
<path d="M493.5 214.5C492.4 215.8 491.5 217 491 217.6C490.8 217.9 491 218.3 491 218.3H491.1L498.2 222.1C498.2 222.1 498.9 221.2 499.4 220.8C499.9 220.4 500.8 219.9 500.8 219.9L503.2 211.2L503.6 209.6C501.9 209.5 500 209.9 498 210.9C496.5 211.9 494.9 213.1 493.5 214.5Z" fill="url(#paint11_linear)"/>
<path d="M505.2 224.7C505.2 224.7 505.1 225.2 504.7 225.8C504.4 226.4 503.8 227 503.8 227L505.4 229.3C506.7 227.6 507.9 225.8 508.7 223.9L508.2 224L505.2 224.7Z" fill="url(#paint12_linear)"/>
<path d="M507 210.8L506.5 212.5L504.3 219.9C504.3 219.9 504.6 220 505 220.7C505.4 221.4 505.5 221.7 505.5 221.7C505.5 221.7 507.1 221.2 509.1 220.5C509.3 220.4 509.6 220.3 509.8 220.3C510 219.2 510.1 218.1 510.1 217C509.9 214.1 508.8 211.9 507 210.8Z" fill="url(#paint13_linear)"/>
<path d="M503.7 207.8C503.7 207.8 504.3 207.5 504.2 208.1C504.1 208.7 500.9 220 500.9 220C500.9 220 499.9 220.6 499.3 221.1C498.8 221.6 498.2 222.2 498.2 222.2L496.7 221.4C496.7 221.4 497.7 220.2 498.8 219.9C499.2 219.8 502.2 208.4 502.2 208.4L503.7 207.8Z" fill="url(#paint14_linear)"/>
<path d="M489.3 221.1L495.7 224C495.7 224 495.3 225.2 495.3 226C495.3 226.5 495.5 227.4 495.5 227.4L488 237.2L487.5 237.4L488.2 238.5C488.2 238.5 488.5 238.9 488.8 238.5C489.1 238.1 496.8 227.9 496.8 227.9C496.8 227.9 496.7 226.9 496.7 226.3C496.6 225.4 497.1 224.2 497.1 224.2L489.3 221.1Z" fill="url(#paint15_linear)"/>
<path d="M500.5 229.6C500.5 229.6 501.4 229.2 501.8 229C502.2 228.8 502.3 228.6 502.3 228.6L506.4 236.4C506.4 236.4 506.7 236.7 506.3 237C505.9 236.9 505.4 236.7 504.9 236.4C504.5 235.4 503.6 233.8 501.2 229.5C501.2 229.6 500.9 229.3 500.5 229.6Z" fill="url(#paint16_linear)"/>
<path d="M516 217.9C516.1 218.3 515.9 218.3 515.7 218.3C515.5 218.4 505.5 221.6 505.5 221.6C505.5 221.6 505.3 221 505 220.6C507.8 219.7 514 217.4 514 217.4C514 217.4 516 217.8 516 217.9Z" fill="#666666"/>
<path d="M483.5 249.1C483.5 249.1 478.4 247.8 476.2 246.6C474 245.4 469.6 243.1 469.6 243.1L474 241C474 241 472.6 230 474.6 222.2C476.6 214.5 482.6 203.5 494.5 196.8C503.6 191.7 507.3 192.1 507.3 192.1C507.3 192.1 516 194.2 520.5 201.8C518.1 199 515.7 196.9 513.4 195.4C513.4 195.4 510.4 194 507 194.5C502.4 195.3 489.6 200.6 483.9 208.7C483.9 208.7 477.8 218.4 476.5 223.8C475 230.1 474.8 240.4 475.5 243.2C476.2 246 479.3 247.5 483.5 249.1Z" fill="#141414"/>
<path d="M431.7 219.4C433.302 219.4 434.6 218.102 434.6 216.5C434.6 214.898 433.302 213.6 431.7 213.6C430.098 213.6 428.8 214.898 428.8 216.5C428.8 218.102 430.098 219.4 431.7 219.4Z" fill="#B3B3B3"/>
<path d="M432.2 217.9C433.139 217.9 433.9 217.139 433.9 216.2C433.9 215.261 433.139 214.5 432.2 214.5C431.261 214.5 430.5 215.261 430.5 216.2C430.5 217.139 431.261 217.9 432.2 217.9Z" fill="#CCCCCC"/>
<path d="M432.7 216.9C433.363 216.9 433.9 216.363 433.9 215.7C433.9 215.037 433.363 214.5 432.7 214.5C432.037 214.5 431.5 215.037 431.5 215.7C431.5 216.363 432.037 216.9 432.7 216.9Z" fill="#E6E6E6"/>
<path d="M429.6 218.2C429.6 218.2 429.7 218.2 429.8 218.3C429.9 218.4 430 218.5 430.2 218.6C430.3 218.6 430.4 218.7 430.5 218.7C430.6 218.8 430.7 218.8 430.8 218.8C430.9 218.8 431 218.9 431.2 218.9H431.6C431.7 218.9 431.9 218.9 432 218.9C432.1 218.9 432.3 218.9 432.4 218.8C432.5 218.8 432.6 218.7 432.7 218.7C432.8 218.7 432.9 218.6 433 218.6C433.2 218.5 433.3 218.4 433.4 218.4C433.5 218.3 433.6 218.3 433.6 218.3C433.6 218.3 433.6 218.3 433.5 218.4C433.4 218.5 433.3 218.6 433.1 218.7C432.9 218.8 432.7 218.9 432.4 219C432.3 219.1 432.1 219.1 432 219.1C431.9 219.1 431.7 219.2 431.6 219.1L431.2 219C431.1 219 430.9 218.9 430.8 218.9C430.5 218.8 430.3 218.7 430.2 218.5C430 218.4 429.9 218.2 429.9 218.1C429.7 218.3 429.6 218.2 429.6 218.2Z" fill="#666666"/>
<path opacity="0.5" d="M364.9 190.7C364.9 190.7 362.9 183.2 363.4 178.7C363.9 174.2 363.9 170.7 363.9 166.7C363.9 162.7 354.8 153.7 351.4 148.7C345.8 140.6 348.4 125.7 349.9 118.7C351.4 111.7 357.3 110 361.8 104.5C366.3 99 367.9 86.7 367.4 73.2C366.9 59.7 379.4 51.2 385.9 56.2C392.4 61.2 381.4 3 398.9 3C416.4 3 420.9 37.7 417.4 45.7C413.9 53.7 423.9 65.7 425.9 68.7C427.9 71.7 437.3 69.2 439.9 77.7C442.5 86.2 443.4 106.7 438.9 115.7C434.4 124.7 437.4 138.8 439.4 147.3C440.2 150.7 440.7 164 430.9 172.3C427.6 175.1 423.5 176.9 421.5 180.8C414.6 193.9 410.9 208.9 408.6 210.1C403.5 212.6 366.7 194.8 364.9 190.7Z" fill="#CCCCCC"/>
<path d="M413.6 65.7001C419.1 69.0001 425.3 65.7001 429.9 69.0001C434.6 72.3001 436.6 78.7001 436.9 80.0001C437.2 81.3001 432.2 70.7001 422.2 69.3001C412.2 68.0001 415.5 66.6001 406.9 64.3001C398.2 62.0001 397.9 66.0001 397.9 66.0001C397.9 66.0001 400.2 57.7001 413.6 65.7001Z" fill="white"/>
<path d="M418.2 112.7C418.2 112.7 427.2 110.4 430.2 113C433.2 115.6 440.9 117.3 440.9 117.3C440.9 117.3 446.2 120.6 440.9 125C435.6 129.3 431.9 130.7 431.9 130.7C431.9 130.7 439.2 126.7 437.9 122C436.6 117.3 432.9 116 430.6 115C428.2 114.1 420 110.7 418.2 112.7Z" fill="white"/>
<path opacity="0.5" d="M364.7 192.8C364.7 192.8 370.9 184.7 369.6 176C368.3 167.3 363.2 156.5 363.6 150.3C365.2 125.4 375.7 133.2 377.4 117.9C378.4 108.9 373.6 97.4 380.7 96.4C385.9 95.7 392.7 126.2 383.8 144.8C381.9 148.9 389.4 165.5 391.4 170.9C393.4 176.3 399.9 155.3 400.6 151C401.3 146.7 399.7 131.2 400.7 129.2C401.7 127.2 406.4 139.3 408.7 144C411 148.7 414 156.8 411.3 162.8C408.6 168.8 401.7 185.5 404.7 192.5C407.7 199.5 410.6 188.7 413.6 184.1C416.6 179.5 415.3 177.8 417.9 179.1C420.5 180.4 408.5 210.1 408.5 210.1C408.5 210.1 393.5 207.1 382.2 201.4C370.9 195.7 364.7 192.8 364.7 192.8Z" fill="white"/>
<path opacity="0.3" d="M410.4 209.9C410.4 209.9 418.5 210.2 419.2 207C421 198.4 436.1 199.8 432.7 187.5C431.4 182.8 429.9 172.1 429.4 171.5C423.4 164.5 426.6 182.8 423.4 182.8C420.2 182.8 412.1 184.6 410.4 188.6C408.7 192.6 407.4 194.4 403.4 194.9C401.9 195.1 391.6 187.9 385.4 187.6C375.4 187.1 368.2 193.3 366.1 193.1C362.8 192.8 392.4 205.6 398.4 207.4C404.4 209.2 405.9 212.6 410.4 209.9Z" fill="white"/>
<path opacity="0.5" d="M408.7 176C408.7 176 417.2 165 418.2 157C419.2 149 419 150.2 416.7 146.2C414.4 142.2 413.2 137.2 413.9 128.9C414.6 120.6 412.1 103.1 410.1 109.4C408.1 115.7 408.1 120.9 408.8 122.4C409.5 123.9 410.6 132.9 411.1 134.7C411.6 136.5 414.4 147.5 415.1 152C415.8 156.5 408.4 171.5 408.7 176Z" fill="#CCCCCC"/>
<path opacity="0.3" d="M378.2 192.7C377.7 193.6 382.5 174.4 379.7 167.9C376.9 161.4 371.9 150.6 374.2 145.4C376.5 140.2 379.7 133.1 379.7 133.1C379.7 133.1 383.5 127.3 382.5 132.1C381.5 136.9 378.5 142.6 377.7 145.4C376.9 148.2 386.7 179 378.2 192.7Z" fill="white"/>
<path d="M370.4 106.6C370.4 106.6 371.1 103.1 373.6 102.1C376.1 101.1 380.9 103.3 380.9 103.3C380.9 103.3 381.7 100.6 384.6 100.6C387.4 100.6 387.4 102.6 387.4 102.6C387.4 102.6 386.7 98.6001 383.1 98.6001C379.4 98.6001 379.6 101.3 379.6 101.3C379.6 101.3 374.3 99.3001 372.3 100.6C370.2 101.9 370.2 104.2 370.4 106.6Z" fill="white"/>
<path d="M394.7 140.4C394.7 140.4 396.2 138.6 398.4 139.4C400.6 140.2 400.4 142.6 400.9 142.9C402.4 140.9 403.4 141.6 404.4 142.2C405.4 142.8 405.4 145.4 406.6 145.4C406.1 141.9 404.9 140.6 403.4 140.7C401.9 140.8 401.1 140.5 401.1 140.5C401.1 140.5 399.3 137.2 397.4 137.7C395.5 138.2 394.7 140.4 394.7 140.4Z" fill="white"/>
<path d="M427.7 192.7C427.7 192.7 422.9 196 420.9 198.4C418.9 200.7 417.9 204.7 417.9 204.7C417.9 204.7 419.4 199.5 422.1 198.5C424.7 197.6 427.6 195.1 427.7 192.7Z" fill="white"/>
<path d="M395.1 20.2C395.1 20.2 395.9 14.9 399.6 15.5C403.3 16.2 406.4 21 406.4 21C406.4 21 401.1 16.2 399.4 17C397.7 17.9 395.1 20.2 395.1 20.2Z" fill="white"/>
<path d="M384.1 65.6001C384.1 65.6001 390.8 69.4001 390.4 76.1001C393.2 74.9001 396.7 78.6001 396.9 81.1001C393.4 78.4001 393.1 77.6001 393.1 77.6001H389.1C389.1 77.6001 390.9 71.1001 384.1 65.6001Z" fill="white"/>
<path d="M353.4 133.4C353.4 133.4 353.4 118.9 367.9 119.6C382.4 120.3 385.1 131.6 385.1 131.6C385.1 131.6 386.9 130.9 389.8 132.3C392.6 133.6 386.1 128.8 386.1 128.8C386.1 128.8 378.1 115.1 367.6 117C357.1 118.7 352.7 125.9 353.4 133.4Z" fill="white"/>
<path opacity="0.5" d="M364.9 191.9C364.9 191.9 362.4 183.7 358.9 178.1C355.4 172.4 353.9 165.4 355.7 162.3C357.5 159.1 360.5 158 363 160.6C365.5 163.3 367.2 173.6 366.7 177.8C366.2 182 369 193.3 370.3 195.1C371.7 196.9 364.9 191.9 364.9 191.9Z" fill="#CCCCCC"/>
<path d="M386.9 200.9C386.9 200.9 394.9 195.6 395.4 189.2C395.9 182.8 393.1 178 395.7 172.9C398.4 167.7 399.2 162.9 399.2 162.9C399.2 162.9 393.9 171.6 393.5 175.2C393.2 178.9 395.8 186.7 393.7 191.2C391.6 195.7 386.9 200.9 386.9 200.9Z" fill="white"/>
<path d="M383.2 172.1C383.2 172.1 380.2 158.9 383 152.4C385.8 145.9 385.3 142.1 385.3 142.1C385.3 142.1 380.5 152.8 380.8 157.8C381.2 162.7 383.2 172.1 383.2 172.1Z" fill="white"/>
<path opacity="0.3" d="M370.2 200.1C370.2 200.1 369.5 186.3 371.5 183.1C373.5 179.9 376 180.8 375.2 175.3C374.4 169.8 372.9 162.1 374.5 161.1C376.2 160.1 384 169.4 383.5 175.9C383 182.4 380.3 189.1 380.8 190.7C381.3 192.3 382.5 207 382.5 207L370.2 200.1Z" fill="white"/>
<path opacity="0.5" d="M397.7 105.6C397.7 105.6 397.9 101.4 395.7 97.3999C393.5 93.3999 395 82.6999 397.2 82.5999C399.4 82.3999 400 76.5999 401.2 75.3999C402.4 74.1999 405.2 80.0999 402.7 85.1999C400.2 90.3999 398.2 97.8999 397.7 105.6Z" fill="white"/>
<path opacity="0.3" d="M433.2 85.1001C433.2 85.1001 436.5 86.9001 435.9 90.4001C435.3 93.9001 432.2 98.7001 431.1 102.4C429.9 106.1 426.3 121.4 426.9 128.6C427.6 135.8 426.7 148.1 426.7 148.1C426.7 148.1 423.9 122.9 422.9 118.8C421.9 114.6 424.4 102.1 425.7 100C427 97.8001 423 89.7001 425.9 88.3001C428.7 86.9001 428.9 80.2001 433.2 85.1001Z" fill="white"/>
<path opacity="0.5" d="M369.4 205.2C369.4 205.2 386.1 214.7 389.7 215.9C393.4 217.1 395 217.1 395 217.1C395 217.1 404.7 215.6 404.8 211.4C404.9 207.2 407.6 200.4 407.1 194.4C406.6 188.4 401.8 186.1 407.1 173.2C412.4 160.4 411.3 152.4 407.3 154.9C403.3 157.4 399.6 168.4 400.1 172.6C400.6 176.8 398.3 183.6 393.9 185.9C389.6 188.2 384.2 186.4 385.9 177.9C387.6 169.4 391.4 145.6 393.9 138.1C396.4 130.6 400.2 130.6 397.9 121.4C395.6 112.2 392.7 103.2 390.1 107.2C387.4 111.2 390.1 115.2 391.4 119.4C392.7 123.6 391.2 131.2 390.4 133.6C389.6 135.9 384.2 133.9 383.9 137.4C383.6 140.9 384.8 143.7 383.6 144.9C382.4 146.1 377.1 151.9 378.2 156.1C379.4 160.3 376.5 167.9 376.7 171.8C376.9 175.6 371.2 176.5 371.2 180.1C371.2 183.8 372 192.6 373.2 194.6C374.6 196.6 373.2 204.2 369.4 205.2Z" fill="white"/>
<path opacity="0.5" d="M493.4 168.1C493.4 168.1 471.7 180.3 458.6 188.1C445.5 195.9 431.3 205.4 426.4 206.6C421.6 207.8 420.4 206.3 426.6 203.1C432.8 199.9 434.3 198.1 436.6 193.6C438.9 189.1 440.3 186.3 444.1 187.8C447.9 189.3 453.3 192.3 452.6 186.6C451.9 180.9 447.9 180.9 450.4 172.4C452.9 163.9 453.7 157.6 454.2 154.1C454.7 150.6 459.9 147.1 460.7 151.1C461.5 155.1 460.7 159.3 461.4 160.8C462.9 158.3 466.1 158.8 467.1 160.5C467.1 160.5 469.8 166.3 470.3 165.2C471.8 162.4 475.8 162.5 477.5 164.4C480.2 162.6 486 166.2 487 167.4C487.9 168.4 487.3 170 493.4 168.1Z" fill="white"/>
<path opacity="0.5" d="M464.9 172.9C464.9 172.9 455.2 166.1 455.2 160.4C455.2 154.7 450.9 145.9 449.5 150.7C448.2 155.5 450.7 164.7 454 169.2C457.3 173.7 456.3 177.9 454.2 182C452 186.2 448.7 188 447.2 190.8C445.7 193.6 443.7 197 443.7 197C443.7 197 462.9 188.8 466.4 184.3C469.9 179.8 470.2 180 473.2 177.6C476.2 175.4 467.6 175.4 464.9 172.9Z" fill="white"/>
<path opacity="0.5" d="M480.2 146.6C477.6 142.9 478.7 138.8 476.4 139.9C474.1 141.1 472.7 140.1 475.4 144.9C478.1 149.7 477.4 151.7 477.4 154.6C477.4 157.4 481.1 147.7 480.2 146.6Z" fill="white"/>
<path opacity="0.5" d="M436.6 198.4C436.6 198.4 436.6 193.6 438.6 188.1C440.6 182.6 438.9 175.8 442.8 178.8C446.6 181.8 444 186.6 445.6 188.8C447.3 191 448.4 193.6 447.3 194.1C446.1 194.6 439.7 195.1 436.6 198.4Z" fill="#CCCCCC"/>
<path d="M445.6 167.9C445.6 167.9 446.1 165.9 448.1 167.1C450.1 168.3 451.1 169.1 451.1 169.1C451.1 169.1 450.3 164.3 447.1 165.3C443.9 166.2 445.6 167.1 445.6 167.9Z" fill="white"/>
<path opacity="0.5" d="M406.4 209C406.4 209 417.7 210.3 422.4 208C427.1 205.7 432.9 201.2 433.7 200.2C434.5 199.2 435.7 179.4 437.7 169.2C439.7 159 442 153.9 437.4 151.4C432.8 148.9 431.1 144.3 430 140.9C428.9 137.4 420.9 139.7 423.1 146.9C425.3 154.1 426.1 158.7 424.9 161.9C423.7 165.1 418.6 172.7 416.6 173.9C414.6 175.1 402.3 195.9 403.8 199.4C405.3 202.9 406.4 209 406.4 209Z" fill="white"/>
<path opacity="0.5" d="M426.6 203.1C426.6 203.1 437.9 199.8 442.6 196.1C447.3 192.4 447.8 173.4 444.6 170.9C441.4 168.4 442.3 163.9 441.6 159.1C440.9 154.3 440.3 148.4 437.3 152.1C434.3 155.8 433.1 161.8 434.3 165.6C435.5 169.4 438.6 174.4 436 178.1C433.3 181.8 429 181.3 428.2 184.9C427.2 188.6 426.6 203.1 426.6 203.1Z" fill="#CCCCCC"/>
</g>
<defs>
<linearGradient id="paint0_linear" x1="398.556" y1="86.9558" x2="552.697" y2="206.239" gradientUnits="userSpaceOnUse">
<stop stop-color="#EDEDED"/>
<stop offset="0.0483871" stop-color="#74747A"/>
<stop offset="0.1882" stop-color="#47474F"/>
<stop offset="0.7581" stop-color="#4A4A53"/>
<stop offset="1" stop-color="#61616B"/>
</linearGradient>
<linearGradient id="paint1_linear" x1="328.798" y1="201.951" x2="446.65" y2="225.937" gradientUnits="userSpaceOnUse">
<stop stop-color="#1264AC"/>
<stop offset="0.1024" stop-color="#115690"/>
<stop offset="0.8702" stop-color="#105084"/>
<stop offset="1" stop-color="#125EA0"/>
</linearGradient>
<linearGradient id="paint2_linear" x1="395.977" y1="137.82" x2="364.859" y2="204.778" gradientUnits="userSpaceOnUse">
<stop stop-color="#086ACA"/>
<stop offset="1" stop-color="#125D9E"/>
</linearGradient>
<linearGradient id="paint3_linear" x1="444.298" y1="149.505" x2="389.101" y2="202.408" gradientUnits="userSpaceOnUse">
<stop stop-color="#1C6BBD"/>
<stop offset="1" stop-color="#135388"/>
</linearGradient>
<linearGradient id="paint4_linear" x1="558.338" y1="146.64" x2="581.657" y2="202.895" gradientUnits="userSpaceOnUse">
<stop offset="0.1774" stop-color="#1E6ACC"/>
<stop offset="1" stop-color="#114267"/>
</linearGradient>
<linearGradient id="paint5_linear" x1="601.715" y1="92.0324" x2="461.461" y2="67.1283" gradientUnits="userSpaceOnUse">
<stop offset="0.129" stop-color="#0069D3"/>
<stop offset="1" stop-color="#0A64B8"/>
</linearGradient>
<linearGradient id="paint6_linear" x1="564.707" y1="153.339" x2="577.4" y2="177.392" gradientUnits="userSpaceOnUse">
<stop stop-color="#4D85CE"/>
<stop offset="0.3495" stop-color="#010201"/>
</linearGradient>
<linearGradient id="paint7_linear" x1="652.595" y1="130.962" x2="657.342" y2="164.027" gradientUnits="userSpaceOnUse">
<stop offset="0.0537634" stop-color="#808080"/>
<stop offset="1" stop-color="#BDBDBD"/>
</linearGradient>
<linearGradient id="paint8_linear" x1="498.81" y1="209.038" x2="503.557" y2="242.103" gradientUnits="userSpaceOnUse">
<stop offset="0.0537634" stop-color="#808080"/>
<stop offset="1" stop-color="#BDBDBD"/>
</linearGradient>
<linearGradient id="paint9_linear" x1="492.179" y1="215.156" x2="492.179" y2="233.514" gradientUnits="userSpaceOnUse">
<stop stop-color="#404040"/>
<stop offset="0.8387" stop-color="#4D4D4D"/>
</linearGradient>
<linearGradient id="paint10_linear" x1="499.001" y1="215.417" x2="499.001" y2="233.568" gradientUnits="userSpaceOnUse">
<stop stop-color="#404040"/>
<stop offset="0.8387" stop-color="#4D4D4D"/>
</linearGradient>
<linearGradient id="paint11_linear" x1="497.311" y1="215.271" x2="497.311" y2="233.539" gradientUnits="userSpaceOnUse">
<stop stop-color="#404040"/>
<stop offset="0.8387" stop-color="#4D4D4D"/>
</linearGradient>
<linearGradient id="paint12_linear" x1="506.261" y1="215.388" x2="506.261" y2="233.623" gradientUnits="userSpaceOnUse">
<stop stop-color="#404040"/>
<stop offset="0.8387" stop-color="#4D4D4D"/>
</linearGradient>
<linearGradient id="paint13_linear" x1="507.183" y1="215.32" x2="507.183" y2="233.632" gradientUnits="userSpaceOnUse">
<stop stop-color="#404040"/>
<stop offset="0.8387" stop-color="#4D4D4D"/>
</linearGradient>
<linearGradient id="paint14_linear" x1="500.42" y1="215.086" x2="500.579" y2="207.617" gradientUnits="userSpaceOnUse">
<stop offset="0.0215054" stop-color="#666666"/>
<stop offset="1" stop-color="#333333"/>
</linearGradient>
<linearGradient id="paint15_linear" x1="490.746" y1="231.064" x2="493.909" y2="221.955" gradientUnits="userSpaceOnUse">
<stop offset="0.0215054" stop-color="#666666"/>
<stop offset="1" stop-color="#333333"/>
</linearGradient>
<linearGradient id="paint16_linear" x1="503.333" y1="237.638" x2="503.758" y2="224.67" gradientUnits="userSpaceOnUse">
<stop offset="0.0215054" stop-color="#666666"/>
<stop offset="1" stop-color="#333333"/>
</linearGradient>
</defs>
</svg>
