<svg width="242" height="242" viewBox="0 0 242 242" fill="none" xmlns="http://www.w3.org/2000/svg">
<circle cx="121" cy="121" r="66" fill="#54A0FF" stroke="#E7E2E2" stroke-width="10"/>
<g filter="url(#filter0_d)">
<circle cx="121" cy="117" r="71" fill="white"/>
<circle cx="121" cy="117" r="66" stroke="#FF6B6B" stroke-width="10"/>
</g>
<path d="M102.333 103H150.333V135H102.333V103ZM126.333 111C128.455 111 130.49 111.843 131.99 113.343C133.491 114.843 134.333 116.878 134.333 119C134.333 121.122 133.491 123.157 131.99 124.657C130.49 126.157 128.455 127 126.333 127C124.212 127 122.177 126.157 120.677 124.657C119.176 123.157 118.333 121.122 118.333 119C118.333 116.878 119.176 114.843 120.677 113.343C122.177 111.843 124.212 111 126.333 111ZM113 108.333C113 109.748 112.438 111.104 111.438 112.105C110.438 113.105 109.081 113.667 107.667 113.667V124.333C109.081 124.333 110.438 124.895 111.438 125.895C112.438 126.896 113 128.252 113 129.667H139.667C139.667 128.252 140.229 126.896 141.229 125.895C142.229 124.895 143.586 124.333 145 124.333V113.667C143.586 113.667 142.229 113.105 141.229 112.105C140.229 111.104 139.667 109.748 139.667 108.333H113ZM91.6667 113.667H97.0001V140.333H139.667V145.667H91.6667V113.667Z" fill="#3D3D3D"/>
<defs>
<filter id="filter0_d" x="0" y="0" width="242" height="242" filterUnits="userSpaceOnUse" color-interpolation-filters="sRGB">
<feFlood flood-opacity="0" result="BackgroundImageFix"/>
<feColorMatrix in="SourceAlpha" type="matrix" values="0 0 0 0 0 0 0 0 0 0 0 0 0 0 0 0 0 0 127 0"/>
<feOffset dy="4"/>
<feGaussianBlur stdDeviation="25"/>
<feColorMatrix type="matrix" values="0 0 0 0 0 0 0 0 0 0 0 0 0 0 0 0 0 0 0.05 0"/>
<feBlend mode="normal" in2="BackgroundImageFix" result="effect1_dropShadow"/>
<feBlend mode="normal" in="SourceGraphic" in2="effect1_dropShadow" result="shape"/>
</filter>
</defs>
</svg>
