<svg width="242" height="242" viewBox="0 0 242 242" fill="none" xmlns="http://www.w3.org/2000/svg">
<circle cx="121" cy="121" r="66" fill="#54A0FF" stroke="#E7E2E2" stroke-width="10"/>
<g filter="url(#filter0_d)">
<circle cx="121" cy="117" r="71" fill="white"/>
<circle cx="121" cy="117" r="66" stroke="#FF6B6B" stroke-width="10"/>
</g>
<path d="M104.083 121.417L107.708 110.542H134.292L137.917 121.417H104.083ZM134.292 133.5C133.33 133.5 132.408 133.118 131.728 132.438C131.049 131.758 130.667 130.836 130.667 129.875C130.667 128.914 131.049 127.992 131.728 127.312C132.408 126.632 133.33 126.25 134.292 126.25C135.253 126.25 136.175 126.632 136.855 127.312C137.535 127.992 137.917 128.914 137.917 129.875C137.917 130.836 137.535 131.758 136.855 132.438C136.175 133.118 135.253 133.5 134.292 133.5ZM107.708 133.5C106.747 133.5 105.825 133.118 105.145 132.438C104.465 131.758 104.083 130.836 104.083 129.875C104.083 128.914 104.465 127.992 105.145 127.312C105.825 126.632 106.747 126.25 107.708 126.25C108.67 126.25 109.592 126.632 110.272 127.312C110.951 127.992 111.333 128.914 111.333 129.875C111.333 130.836 110.951 131.758 110.272 132.438C109.592 133.118 108.67 133.5 107.708 133.5ZM137.723 109.333C137.24 107.932 135.887 106.917 134.292 106.917H107.708C106.113 106.917 104.76 107.932 104.277 109.333L99.25 123.833V143.167C99.25 143.808 99.5046 144.422 99.9578 144.876C100.411 145.329 101.026 145.583 101.667 145.583H104.083C104.724 145.583 105.339 145.329 105.792 144.876C106.245 144.422 106.5 143.808 106.5 143.167V140.75H135.5V143.167C135.5 143.808 135.755 144.422 136.208 144.876C136.661 145.329 137.276 145.583 137.917 145.583H140.333C140.974 145.583 141.589 145.329 142.042 144.876C142.495 144.422 142.75 143.808 142.75 143.167V123.833L137.723 109.333ZM108.917 102.083C109.878 102.083 110.8 101.701 111.48 101.022C112.16 100.342 112.542 99.4198 112.542 98.4583C112.542 96.0417 108.917 91.9333 108.917 91.9333C108.917 91.9333 105.292 96.0417 105.292 98.4583C105.292 99.4198 105.674 100.342 106.353 101.022C107.033 101.701 107.955 102.083 108.917 102.083ZM121 102.083C121.961 102.083 122.883 101.701 123.563 101.022C124.243 100.342 124.625 99.4198 124.625 98.4583C124.625 96.0417 121 91.9333 121 91.9333C121 91.9333 117.375 96.0417 117.375 98.4583C117.375 99.4198 117.757 100.342 118.437 101.022C119.117 101.701 120.039 102.083 121 102.083ZM133.083 102.083C134.045 102.083 134.967 101.701 135.647 101.022C136.326 100.342 136.708 99.4198 136.708 98.4583C136.708 96.0417 133.083 91.9333 133.083 91.9333C133.083 91.9333 129.458 96.0417 129.458 98.4583C129.458 99.4198 129.84 100.342 130.52 101.022C131.2 101.701 132.122 102.083 133.083 102.083Z" fill="#333333"/>
<defs>
<filter id="filter0_d" x="0" y="0" width="242" height="242" filterUnits="userSpaceOnUse" color-interpolation-filters="sRGB">
<feFlood flood-opacity="0" result="BackgroundImageFix"/>
<feColorMatrix in="SourceAlpha" type="matrix" values="0 0 0 0 0 0 0 0 0 0 0 0 0 0 0 0 0 0 127 0"/>
<feOffset dy="4"/>
<feGaussianBlur stdDeviation="25"/>
<feColorMatrix type="matrix" values="0 0 0 0 0 0 0 0 0 0 0 0 0 0 0 0 0 0 0.05 0"/>
<feBlend mode="normal" in2="BackgroundImageFix" result="effect1_dropShadow"/>
<feBlend mode="normal" in="SourceGraphic" in2="effect1_dropShadow" result="shape"/>
</filter>
</defs>
</svg>
