<svg width="624" height="494" viewBox="0 0 624 494" fill="none" xmlns="http://www.w3.org/2000/svg">
<path d="M75.1431 223.364V212.164H84.2791V223.364H82.3111V213.94H77.1111V223.364H75.1431ZM90.9508 223.556C89.6708 223.556 88.6041 223.13 87.7508 222.276C86.8974 221.423 86.4708 220.383 86.4708 219.156C86.4708 217.93 86.9028 216.89 87.7668 216.036C88.6308 215.172 89.7028 214.74 90.9828 214.74C92.2628 214.74 93.3294 215.167 94.1828 216.02C95.0468 216.874 95.4788 217.919 95.4788 219.156C95.4788 220.372 95.0468 221.412 94.1828 222.276C93.3188 223.13 92.2414 223.556 90.9508 223.556ZM90.9828 221.876C91.7508 221.876 92.3694 221.615 92.8388 221.092C93.3081 220.57 93.5428 219.924 93.5428 219.156C93.5428 218.399 93.2974 217.759 92.8068 217.236C92.3161 216.703 91.6974 216.436 90.9508 216.436C90.1934 216.436 89.5801 216.698 89.1108 217.22C88.6414 217.743 88.4068 218.388 88.4068 219.156C88.4068 219.903 88.6521 220.543 89.1428 221.076C89.6334 221.61 90.2468 221.876 90.9828 221.876ZM101.354 223.556C100.106 223.556 99.0664 223.135 98.2344 222.292C97.4024 221.439 96.9864 220.404 96.9864 219.188V219.156C96.9864 217.94 97.4024 216.9 98.2344 216.036C99.077 215.172 100.122 214.74 101.37 214.74C102.736 214.74 103.861 215.226 104.746 216.196L103.546 217.492C102.874 216.788 102.144 216.436 101.354 216.436C100.661 216.436 100.08 216.698 99.6104 217.22C99.1517 217.743 98.9224 218.378 98.9224 219.124V219.156C98.9224 219.924 99.157 220.57 99.6264 221.092C100.106 221.615 100.714 221.876 101.45 221.876C102.229 221.876 102.96 221.524 103.642 220.82L104.81 221.972C104.352 222.484 103.85 222.879 103.306 223.156C102.773 223.423 102.122 223.556 101.354 223.556ZM106.449 223.46C106.14 223.46 105.761 223.423 105.313 223.348L105.457 221.764C105.628 221.807 105.814 221.828 106.017 221.828C106.241 221.828 106.422 221.796 106.561 221.732C106.71 221.668 106.86 221.508 107.009 221.252C107.169 220.986 107.292 220.612 107.377 220.132C107.462 219.652 107.532 218.98 107.585 218.116C107.638 217.242 107.665 216.175 107.665 214.916H114.049V223.364H112.113V216.58H109.473C109.473 217.786 109.425 218.81 109.329 219.652C109.233 220.495 109.105 221.162 108.945 221.652C108.796 222.143 108.582 222.527 108.305 222.804C108.038 223.071 107.766 223.247 107.489 223.332C107.212 223.418 106.865 223.46 106.449 223.46ZM120.354 223.556C119.116 223.556 118.082 223.146 117.25 222.324C116.428 221.503 116.018 220.442 116.018 219.14C116.018 217.914 116.407 216.874 117.186 216.02C117.964 215.167 118.951 214.74 120.146 214.74C121.426 214.74 122.418 215.178 123.122 216.052C123.836 216.916 124.194 217.994 124.194 219.284C124.194 219.519 124.183 219.7 124.162 219.828H117.954C118.06 220.5 118.332 221.028 118.77 221.412C119.207 221.786 119.746 221.972 120.386 221.972C121.218 221.972 121.98 221.636 122.674 220.964L123.81 221.972C122.935 223.028 121.783 223.556 120.354 223.556ZM117.938 218.548H122.274C122.21 217.898 121.991 217.364 121.618 216.948C121.244 216.532 120.748 216.324 120.13 216.324C119.543 216.324 119.052 216.532 118.658 216.948C118.263 217.354 118.023 217.887 117.938 218.548ZM129.879 225.764V221.604H130.967C131.916 219.727 132.391 217.108 132.391 213.748V212.164H140.199V221.604H141.591L141.319 225.764H139.687V223.364H131.799L131.607 225.764H129.879ZM133.063 221.604H138.231V213.94H134.279V215.22C134.279 217.834 133.873 219.962 133.063 221.604ZM146.098 223.364V213.988H142.546V212.164H151.634V213.988H148.082V223.364H146.098ZM153.721 223.364V212.164H162.857V223.364H160.889V213.94H155.689V223.364H153.721Z" fill="#3D3D3D"/>
<path d="M251.44 223.364V212.164H260.576V223.364H258.608V213.94H253.408V223.364H251.44ZM267.248 223.556C265.968 223.556 264.901 223.13 264.048 222.276C263.194 221.423 262.768 220.383 262.768 219.156C262.768 217.93 263.2 216.89 264.064 216.036C264.928 215.172 266 214.74 267.28 214.74C268.56 214.74 269.626 215.167 270.48 216.02C271.344 216.874 271.776 217.919 271.776 219.156C271.776 220.372 271.344 221.412 270.48 222.276C269.616 223.13 268.538 223.556 267.248 223.556ZM267.28 221.876C268.048 221.876 268.666 221.615 269.136 221.092C269.605 220.57 269.84 219.924 269.84 219.156C269.84 218.399 269.594 217.759 269.104 217.236C268.613 216.703 267.994 216.436 267.248 216.436C266.49 216.436 265.877 216.698 265.408 217.22C264.938 217.743 264.704 218.388 264.704 219.156C264.704 219.903 264.949 220.543 265.44 221.076C265.93 221.61 266.544 221.876 267.28 221.876ZM277.651 223.556C276.403 223.556 275.363 223.135 274.531 222.292C273.699 221.439 273.283 220.404 273.283 219.188V219.156C273.283 217.94 273.699 216.9 274.531 216.036C275.374 215.172 276.419 214.74 277.667 214.74C279.033 214.74 280.158 215.226 281.043 216.196L279.843 217.492C279.171 216.788 278.441 216.436 277.651 216.436C276.958 216.436 276.377 216.698 275.907 217.22C275.449 217.743 275.219 218.378 275.219 219.124V219.156C275.219 219.924 275.454 220.57 275.923 221.092C276.403 221.615 277.011 221.876 277.747 221.876C278.526 221.876 279.257 221.524 279.939 220.82L281.107 221.972C280.649 222.484 280.147 222.879 279.603 223.156C279.07 223.423 278.419 223.556 277.651 223.556ZM282.746 223.46C282.436 223.46 282.058 223.423 281.61 223.348L281.754 221.764C281.924 221.807 282.111 221.828 282.314 221.828C282.538 221.828 282.719 221.796 282.858 221.732C283.007 221.668 283.156 221.508 283.306 221.252C283.466 220.986 283.588 220.612 283.674 220.132C283.759 219.652 283.828 218.98 283.882 218.116C283.935 217.242 283.962 216.175 283.962 214.916H290.346V223.364H288.41V216.58H285.77C285.77 217.786 285.722 218.81 285.626 219.652C285.53 220.495 285.402 221.162 285.242 221.652C285.092 222.143 284.879 222.527 284.602 222.804C284.335 223.071 284.063 223.247 283.786 223.332C283.508 223.418 283.162 223.46 282.746 223.46ZM296.651 223.556C295.413 223.556 294.379 223.146 293.547 222.324C292.725 221.503 292.315 220.442 292.315 219.14C292.315 217.914 292.704 216.874 293.483 216.02C294.261 215.167 295.248 214.74 296.443 214.74C297.723 214.74 298.715 215.178 299.419 216.052C300.133 216.916 300.491 217.994 300.491 219.284C300.491 219.519 300.48 219.7 300.459 219.828H294.251C294.357 220.5 294.629 221.028 295.067 221.412C295.504 221.786 296.043 221.972 296.683 221.972C297.515 221.972 298.277 221.636 298.971 220.964L300.107 221.972C299.232 223.028 298.08 223.556 296.651 223.556ZM294.235 218.548H298.571C298.507 217.898 298.288 217.364 297.915 216.948C297.541 216.532 297.045 216.324 296.427 216.324C295.84 216.324 295.349 216.532 294.955 216.948C294.56 217.354 294.32 217.887 294.235 218.548ZM307.232 223.364V214.916H314.768V223.364H312.832V216.58H309.168V223.364H307.232ZM321.216 223.556C319.936 223.556 318.87 223.13 318.016 222.276C317.163 221.423 316.736 220.383 316.736 219.156C316.736 217.93 317.168 216.89 318.032 216.036C318.896 215.172 319.968 214.74 321.248 214.74C322.528 214.74 323.595 215.167 324.448 216.02C325.312 216.874 325.744 217.919 325.744 219.156C325.744 220.372 325.312 221.412 324.448 222.276C323.584 223.13 322.507 223.556 321.216 223.556ZM321.248 221.876C322.016 221.876 322.635 221.615 323.104 221.092C323.574 220.57 323.808 219.924 323.808 219.156C323.808 218.399 323.563 217.759 323.072 217.236C322.582 216.703 321.963 216.436 321.216 216.436C320.459 216.436 319.846 216.698 319.376 217.22C318.907 217.743 318.672 218.388 318.672 219.156C318.672 219.903 318.918 220.543 319.408 221.076C319.899 221.61 320.512 221.876 321.248 221.876ZM326.644 223.364L329.956 218.468L326.772 214.916H329.028L332.532 219.06V214.916H334.468V219.06L337.988 214.916H340.244L337.06 218.468L340.356 223.364H338.18L335.764 219.764L334.468 221.236V223.364H332.532V221.236L331.236 219.764L328.82 223.364H326.644ZM348.804 223.364H346.884V222.324C346.201 223.135 345.289 223.54 344.148 223.54C343.305 223.54 342.591 223.311 342.004 222.852C341.428 222.383 341.14 221.732 341.14 220.9C341.14 219.994 341.455 219.306 342.084 218.836C342.713 218.367 343.54 218.132 344.564 218.132C345.385 218.132 346.164 218.25 346.9 218.484V218.324C346.9 217.738 346.719 217.29 346.356 216.98C346.004 216.671 345.492 216.516 344.82 216.516C344.052 216.516 343.247 216.692 342.404 217.044L341.876 215.492C342.921 215.023 343.993 214.788 345.092 214.788C346.319 214.788 347.241 215.098 347.86 215.716C348.489 216.335 348.804 217.215 348.804 218.356V223.364ZM346.932 220.308V219.828C346.356 219.604 345.711 219.492 344.996 219.492C344.388 219.492 343.913 219.61 343.572 219.844C343.231 220.079 343.06 220.41 343.06 220.836C343.06 221.22 343.215 221.524 343.524 221.748C343.833 221.972 344.223 222.084 344.692 222.084C345.343 222.084 345.876 221.919 346.292 221.588C346.719 221.258 346.932 220.831 346.932 220.308ZM351.107 225.924V214.916H353.043V216.324C353.789 215.268 354.744 214.74 355.907 214.74C356.973 214.74 357.896 215.14 358.675 215.94C359.453 216.73 359.843 217.802 359.843 219.156C359.843 220.49 359.453 221.556 358.675 222.356C357.896 223.146 356.973 223.54 355.907 223.54C354.744 223.54 353.789 223.044 353.043 222.052V225.924H351.107ZM355.459 221.86C356.141 221.86 356.712 221.61 357.171 221.108C357.64 220.607 357.875 219.946 357.875 219.124C357.875 218.324 357.64 217.674 357.171 217.172C356.701 216.671 356.131 216.42 355.459 216.42C354.787 216.42 354.205 216.676 353.715 217.188C353.235 217.7 352.995 218.356 352.995 219.156C352.995 219.946 353.235 220.596 353.715 221.108C354.205 221.61 354.787 221.86 355.459 221.86ZM368.913 223.364H366.993V222.324C366.311 223.135 365.399 223.54 364.257 223.54C363.415 223.54 362.7 223.311 362.113 222.852C361.537 222.383 361.249 221.732 361.249 220.9C361.249 219.994 361.564 219.306 362.193 218.836C362.823 218.367 363.649 218.132 364.673 218.132C365.495 218.132 366.273 218.25 367.009 218.484V218.324C367.009 217.738 366.828 217.29 366.465 216.98C366.113 216.671 365.601 216.516 364.929 216.516C364.161 216.516 363.356 216.692 362.513 217.044L361.985 215.492C363.031 215.023 364.103 214.788 365.201 214.788C366.428 214.788 367.351 215.098 367.969 215.716C368.599 216.335 368.913 217.215 368.913 218.356V223.364ZM367.041 220.308V219.828C366.465 219.604 365.82 219.492 365.105 219.492C364.497 219.492 364.023 219.61 363.681 219.844C363.34 220.079 363.169 220.41 363.169 220.836C363.169 221.22 363.324 221.524 363.633 221.748C363.943 221.972 364.332 222.084 364.801 222.084C365.452 222.084 365.985 221.919 366.401 221.588C366.828 221.258 367.041 220.831 367.041 220.308Z" fill="#3D3D3D"/>
<path d="M459.862 223.364V212.164H467.398V213.94H461.814V223.364H459.862ZM469.138 225.924V214.916H471.074V216.324C471.821 215.268 472.775 214.74 473.938 214.74C475.005 214.74 475.927 215.14 476.706 215.94C477.485 216.73 477.874 217.802 477.874 219.156C477.874 220.49 477.485 221.556 476.706 222.356C475.927 223.146 475.005 223.54 473.938 223.54C472.775 223.54 471.821 223.044 471.074 222.052V225.924H469.138ZM473.49 221.86C474.173 221.86 474.743 221.61 475.202 221.108C475.671 220.607 475.906 219.946 475.906 219.124C475.906 218.324 475.671 217.674 475.202 217.172C474.733 216.671 474.162 216.42 473.49 216.42C472.818 216.42 472.237 216.676 471.746 217.188C471.266 217.7 471.026 218.356 471.026 219.156C471.026 219.946 471.266 220.596 471.746 221.108C472.237 221.61 472.818 221.86 473.49 221.86ZM481.585 225.972C480.881 225.972 480.214 225.802 479.585 225.46L480.241 224.02C480.635 224.234 481.014 224.34 481.377 224.34C481.654 224.34 481.883 224.266 482.065 224.116C482.246 223.978 482.417 223.727 482.577 223.364L479.057 214.916H481.121L483.521 221.188L485.713 214.916H487.729L484.369 223.604C484.027 224.468 483.649 225.076 483.233 225.428C482.817 225.791 482.267 225.972 481.585 225.972ZM492.268 223.556C490.817 223.556 489.585 223.124 488.572 222.26L489.484 220.98C490.273 221.652 491.159 221.988 492.14 221.988C492.588 221.988 492.967 221.882 493.276 221.668C493.585 221.444 493.74 221.162 493.74 220.82C493.74 220.5 493.591 220.244 493.292 220.052C492.993 219.86 492.572 219.764 492.028 219.764H490.988V218.372H492.028C492.476 218.372 492.833 218.271 493.1 218.068C493.377 217.855 493.516 217.588 493.516 217.268C493.516 216.98 493.383 216.751 493.116 216.58C492.86 216.399 492.529 216.308 492.124 216.308C491.185 216.308 490.385 216.596 489.724 217.172L488.86 215.956C489.788 215.146 490.935 214.74 492.3 214.74C493.228 214.74 493.985 214.954 494.572 215.38C495.159 215.807 495.452 216.351 495.452 217.012C495.452 217.908 495.009 218.548 494.124 218.932C495.148 219.295 495.66 219.978 495.66 220.98C495.66 221.706 495.345 222.319 494.716 222.82C494.087 223.311 493.271 223.556 492.268 223.556ZM501.685 223.556C500.405 223.556 499.338 223.13 498.485 222.276C497.632 221.423 497.205 220.383 497.205 219.156C497.205 217.93 497.637 216.89 498.501 216.036C499.365 215.172 500.437 214.74 501.717 214.74C502.997 214.74 504.064 215.167 504.917 216.02C505.781 216.874 506.213 217.919 506.213 219.156C506.213 220.372 505.781 221.412 504.917 222.276C504.053 223.13 502.976 223.556 501.685 223.556ZM501.717 221.876C502.485 221.876 503.104 221.615 503.573 221.092C504.042 220.57 504.277 219.924 504.277 219.156C504.277 218.399 504.032 217.759 503.541 217.236C503.05 216.703 502.432 216.436 501.685 216.436C500.928 216.436 500.314 216.698 499.845 217.22C499.376 217.743 499.141 218.388 499.141 219.156C499.141 219.903 499.386 220.543 499.877 221.076C500.368 221.61 500.981 221.876 501.717 221.876ZM508.185 223.364V214.916H512.521C513.363 214.916 514.035 215.108 514.537 215.492C515.049 215.866 515.305 216.378 515.305 217.028C515.305 217.914 514.851 218.559 513.945 218.964C515.107 219.295 515.689 219.999 515.689 221.076C515.689 221.791 515.406 222.351 514.841 222.756C514.286 223.162 513.529 223.364 512.569 223.364H508.185ZM510.089 221.828H512.281C512.739 221.828 513.091 221.732 513.337 221.54C513.593 221.338 513.721 221.071 513.721 220.74C513.721 220.42 513.587 220.17 513.321 219.988C513.065 219.807 512.686 219.716 512.185 219.716H510.089V221.828ZM510.089 218.404H512.073C512.467 218.404 512.777 218.308 513.001 218.116C513.225 217.924 513.337 217.674 513.337 217.364C513.337 217.076 513.235 216.847 513.033 216.676C512.83 216.495 512.521 216.404 512.105 216.404H510.089V218.404ZM517.622 223.364V214.916H519.558V217.876H521.334C522.337 217.876 523.148 218.1 523.766 218.548C524.385 218.996 524.694 219.663 524.694 220.548C524.694 221.423 524.406 222.111 523.83 222.612C523.254 223.114 522.47 223.364 521.478 223.364H517.622ZM519.558 221.796H521.222C521.713 221.796 522.092 221.69 522.358 221.476C522.625 221.263 522.758 220.954 522.758 220.548C522.758 220.175 522.62 219.887 522.342 219.684C522.076 219.482 521.692 219.38 521.19 219.38H519.558V221.796ZM525.974 223.364V214.916H527.91V223.364H525.974ZM534.213 223.556C532.976 223.556 531.941 223.146 531.109 222.324C530.288 221.503 529.877 220.442 529.877 219.14C529.877 217.914 530.266 216.874 531.045 216.02C531.824 215.167 532.81 214.74 534.005 214.74C535.285 214.74 536.277 215.178 536.981 216.052C537.696 216.916 538.053 217.994 538.053 219.284C538.053 219.519 538.042 219.7 538.021 219.828H531.813C531.92 220.5 532.192 221.028 532.629 221.412C533.066 221.786 533.605 221.972 534.245 221.972C535.077 221.972 535.84 221.636 536.533 220.964L537.669 221.972C536.794 223.028 535.642 223.556 534.213 223.556ZM531.797 218.548H536.133C536.069 217.898 535.85 217.364 535.477 216.948C535.104 216.532 534.608 216.324 533.989 216.324C533.402 216.324 532.912 216.532 532.517 216.948C532.122 217.354 531.882 217.887 531.797 218.548ZM469.99 246.396V242.7H470.902C471.531 241.442 471.846 239.527 471.846 236.956V235.916H478.39V242.7H479.59L479.334 246.396H477.718V244.364H471.798L471.606 246.396H469.99ZM472.886 242.7H476.454V237.58H473.67V238.7C473.67 240.268 473.409 241.602 472.886 242.7ZM485.216 244.556C483.936 244.556 482.87 244.13 482.016 243.276C481.163 242.423 480.736 241.383 480.736 240.156C480.736 238.93 481.168 237.89 482.032 237.036C482.896 236.172 483.968 235.74 485.248 235.74C486.528 235.74 487.595 236.167 488.448 237.02C489.312 237.874 489.744 238.919 489.744 240.156C489.744 241.372 489.312 242.412 488.448 243.276C487.584 244.13 486.507 244.556 485.216 244.556ZM485.248 242.876C486.016 242.876 486.635 242.615 487.104 242.092C487.574 241.57 487.808 240.924 487.808 240.156C487.808 239.399 487.563 238.759 487.072 238.236C486.582 237.703 485.963 237.436 485.216 237.436C484.459 237.436 483.846 237.698 483.376 238.22C482.907 238.743 482.672 239.388 482.672 240.156C482.672 240.903 482.918 241.543 483.408 242.076C483.899 242.61 484.512 242.876 485.248 242.876ZM500.273 244.556C498.492 244.556 497.062 243.9 495.985 242.588L497.361 241.308C498.193 242.29 499.174 242.78 500.305 242.78C500.87 242.78 501.334 242.626 501.697 242.316C502.06 241.996 502.241 241.575 502.241 241.052C502.241 240.508 502.006 240.087 501.537 239.788C501.078 239.479 500.454 239.324 499.665 239.324H498.753L498.433 238.092L501.457 234.876H496.609V233.164H504.017V234.636L500.897 237.836C501.878 237.975 502.673 238.306 503.281 238.828C503.889 239.34 504.193 240.071 504.193 241.02C504.193 242.055 503.825 242.903 503.089 243.564C502.364 244.226 501.425 244.556 500.273 244.556ZM505.94 246.684L505.732 245.868C506.649 245.687 507.108 245.244 507.108 244.54C507.108 244.519 507.102 244.487 507.092 244.444C507.092 244.412 507.092 244.386 507.092 244.364H506.276V242.172H508.404V244.028C508.404 244.892 508.201 245.532 507.796 245.948C507.39 246.375 506.772 246.62 505.94 246.684ZM514.348 244.556C512.78 244.556 511.41 243.986 510.236 242.844L511.452 241.42C512.412 242.316 513.372 242.764 514.332 242.764C515.004 242.764 515.543 242.588 515.948 242.236C516.354 241.874 516.556 241.394 516.556 240.796C516.556 240.231 516.338 239.783 515.9 239.452C515.474 239.111 514.919 238.94 514.236 238.94C513.564 238.94 512.876 239.106 512.172 239.436L510.988 238.652L511.308 233.164H517.996V234.908H513.004L512.828 237.532C513.415 237.319 514.007 237.212 514.604 237.212C515.746 237.212 516.679 237.516 517.404 238.124C518.13 238.732 518.492 239.612 518.492 240.764C518.492 241.906 518.108 242.823 517.34 243.516C516.583 244.21 515.586 244.556 514.348 244.556ZM527.258 244.364V237.58H524.538V235.916H531.93V237.58H529.21V244.364H527.258Z" fill="#3D3D3D"/>
<path d="M74.0572 465.364V454.164H76.0252V459.796L81.3532 454.164H83.7692L79.1132 458.98L83.9772 465.364H81.5932L77.7692 460.324L76.0252 462.116V465.364H74.0572ZM85.4269 467.924V456.916H87.3629V458.324C88.1096 457.268 89.0643 456.74 90.2269 456.74C91.2936 456.74 92.2163 457.14 92.9949 457.94C93.7736 458.73 94.1629 459.802 94.1629 461.156C94.1629 462.49 93.7736 463.556 92.9949 464.356C92.2163 465.146 91.2936 465.54 90.2269 465.54C89.0643 465.54 88.1096 465.044 87.3629 464.052V467.924H85.4269ZM89.7789 463.86C90.4616 463.86 91.0323 463.61 91.4909 463.108C91.9603 462.607 92.1949 461.946 92.1949 461.124C92.1949 460.324 91.9603 459.674 91.4909 459.172C91.0216 458.671 90.4509 458.42 89.7789 458.42C89.1069 458.42 88.5256 458.676 88.0349 459.188C87.5549 459.7 87.3149 460.356 87.3149 461.156C87.3149 461.946 87.5549 462.596 88.0349 463.108C88.5256 463.61 89.1069 463.86 89.7789 463.86ZM100.018 465.556C98.7804 465.556 97.7457 465.146 96.9137 464.324C96.0924 463.503 95.6817 462.442 95.6817 461.14C95.6817 459.914 96.071 458.874 96.8497 458.02C97.6284 457.167 98.615 456.74 99.8097 456.74C101.09 456.74 102.082 457.178 102.786 458.052C103.5 458.916 103.858 459.994 103.858 461.284C103.858 461.519 103.847 461.7 103.826 461.828H97.6177C97.7244 462.5 97.9964 463.028 98.4337 463.412C98.871 463.786 99.4097 463.972 100.05 463.972C100.882 463.972 101.644 463.636 102.338 462.964L103.474 463.972C102.599 465.028 101.447 465.556 100.018 465.556ZM97.6017 460.548H101.938C101.874 459.898 101.655 459.364 101.282 458.948C100.908 458.532 100.412 458.324 99.7937 458.324C99.207 458.324 98.7164 458.532 98.3217 458.948C97.927 459.354 97.687 459.887 97.6017 460.548ZM104.826 467.396V463.7H105.738C106.367 462.442 106.682 460.527 106.682 457.956V456.916H113.226V463.7H114.426L114.17 467.396H112.554V465.364H106.634L106.442 467.396H104.826ZM107.722 463.7H111.29V458.58H108.506V459.7C108.506 461.268 108.245 462.602 107.722 463.7ZM116.036 465.364V456.916H117.924V462.58C119.695 460.063 121.028 458.175 121.924 456.916H123.748V465.364H121.876V459.732L117.86 465.364H116.036ZM127.985 465.364V458.58H125.265V456.916H132.657V458.58H129.937V465.364H127.985ZM134.193 465.364V456.916H136.129V460.34H139.857V456.916H141.793V465.364H139.857V461.956H136.129V465.364H134.193ZM144.224 465.364V456.916H146.16V459.876H147.936C148.938 459.876 149.749 460.1 150.368 460.548C150.986 460.996 151.296 461.663 151.296 462.548C151.296 463.423 151.008 464.111 150.432 464.612C149.856 465.114 149.072 465.364 148.08 465.364H144.224ZM146.16 463.796H147.824C148.314 463.796 148.693 463.69 148.96 463.476C149.226 463.263 149.36 462.954 149.36 462.548C149.36 462.175 149.221 461.887 148.944 461.684C148.677 461.482 148.293 461.38 147.792 461.38H146.16V463.796ZM152.576 465.364V456.916H154.512V465.364H152.576ZM160.815 465.556C159.577 465.556 158.543 465.146 157.711 464.324C156.889 463.503 156.479 462.442 156.479 461.14C156.479 459.914 156.868 458.874 157.647 458.02C158.425 457.167 159.412 456.74 160.607 456.74C161.887 456.74 162.879 457.178 163.583 458.052C164.297 458.916 164.655 459.994 164.655 461.284C164.655 461.519 164.644 461.7 164.623 461.828H158.415C158.521 462.5 158.793 463.028 159.231 463.412C159.668 463.786 160.207 463.972 160.847 463.972C161.679 463.972 162.441 463.636 163.135 462.964L164.271 463.972C163.396 465.028 162.244 465.556 160.815 465.556ZM158.399 460.548H162.735C162.671 459.898 162.452 459.364 162.079 458.948C161.705 458.532 161.209 458.324 160.591 458.324C160.004 458.324 159.513 458.532 159.119 458.948C158.724 459.354 158.484 459.887 158.399 460.548Z" fill="#3D3D3D"/>
<path d="M254.854 465.492C254.395 465.492 253.942 465.434 253.494 465.316L253.686 463.7C253.878 463.764 254.091 463.796 254.326 463.796C254.582 463.796 254.801 463.759 254.982 463.684C255.174 463.599 255.371 463.407 255.574 463.108C255.787 462.81 255.953 462.404 256.07 461.892C256.198 461.37 256.305 460.644 256.39 459.716C256.475 458.788 256.518 457.674 256.518 456.372V454.164H264.198V465.364H262.23V455.94H258.358V456.948C258.358 458.687 258.283 460.132 258.134 461.284C257.985 462.426 257.75 463.3 257.43 463.908C257.11 464.506 256.747 464.922 256.342 465.156C255.947 465.38 255.451 465.492 254.854 465.492ZM274.368 465.556C273.259 465.556 272.331 465.22 271.584 464.548C270.848 463.866 270.4 462.996 270.24 461.94H268.784V465.364H266.864V456.916H268.784V460.34H270.24C270.411 459.306 270.87 458.452 271.616 457.78C272.374 457.098 273.302 456.756 274.4 456.756C275.648 456.756 276.662 457.178 277.44 458.02C278.219 458.863 278.608 459.908 278.608 461.156C278.608 462.383 278.214 463.423 277.424 464.276C276.635 465.13 275.616 465.556 274.368 465.556ZM274.4 463.876C275.126 463.876 275.686 463.62 276.08 463.108C276.486 462.586 276.688 461.935 276.688 461.156C276.688 460.388 276.475 459.743 276.048 459.22C275.632 458.698 275.072 458.436 274.368 458.436C273.643 458.436 273.083 458.692 272.688 459.204C272.294 459.716 272.096 460.367 272.096 461.156C272.096 461.924 272.304 462.57 272.72 463.092C273.136 463.615 273.696 463.876 274.4 463.876ZM284.711 463.876C285.426 463.876 286.007 463.631 286.455 463.14C286.914 462.639 287.143 462.02 287.143 461.284C287.143 460.559 286.903 459.946 286.423 459.444C285.954 458.932 285.373 458.676 284.679 458.676C283.975 458.676 283.394 458.927 282.935 459.428C282.487 459.93 282.263 460.548 282.263 461.284C282.263 462.01 282.498 462.623 282.967 463.124C283.437 463.626 284.018 463.876 284.711 463.876ZM284.679 465.556C283.314 465.556 282.247 465.124 281.479 464.26C280.711 463.396 280.327 462.186 280.327 460.628C280.327 460.127 280.338 459.69 280.359 459.316C280.391 458.932 280.445 458.522 280.519 458.084C280.594 457.636 280.706 457.247 280.855 456.916C281.015 456.586 281.213 456.271 281.447 455.972C281.693 455.663 282.002 455.407 282.375 455.204C282.759 454.991 283.202 454.831 283.703 454.724L288.311 453.764L288.631 455.316L284.023 456.324C283.255 456.484 282.706 456.772 282.375 457.188C282.045 457.594 281.853 458.106 281.799 458.724C282.055 458.298 282.455 457.93 282.999 457.62C283.554 457.3 284.237 457.14 285.047 457.14C286.146 457.14 287.09 457.54 287.879 458.34C288.679 459.13 289.079 460.1 289.079 461.252C289.079 462.436 288.658 463.45 287.815 464.292C286.983 465.135 285.938 465.556 284.679 465.556ZM295.068 465.556C293.788 465.556 292.721 465.13 291.868 464.276C291.015 463.423 290.588 462.383 290.588 461.156C290.588 459.93 291.02 458.89 291.884 458.036C292.748 457.172 293.82 456.74 295.1 456.74C296.38 456.74 297.447 457.167 298.3 458.02C299.164 458.874 299.596 459.919 299.596 461.156C299.596 462.372 299.164 463.412 298.3 464.276C297.436 465.13 296.359 465.556 295.068 465.556ZM295.1 463.876C295.868 463.876 296.487 463.615 296.956 463.092C297.425 462.57 297.66 461.924 297.66 461.156C297.66 460.399 297.415 459.759 296.924 459.236C296.433 458.703 295.815 458.436 295.068 458.436C294.311 458.436 293.697 458.698 293.228 459.22C292.759 459.743 292.524 460.388 292.524 461.156C292.524 461.903 292.769 462.543 293.26 463.076C293.751 463.61 294.364 463.876 295.1 463.876ZM307.104 455.348C306.666 455.743 306.112 455.94 305.44 455.94C304.768 455.94 304.208 455.743 303.76 455.348C303.312 454.943 303.034 454.399 302.928 453.716L304.112 453.492C304.336 454.218 304.778 454.58 305.44 454.58C306.101 454.58 306.544 454.218 306.768 453.492L307.936 453.716C307.829 454.399 307.552 454.943 307.104 455.348ZM301.568 465.364V456.916H303.456V462.58C305.226 460.063 306.56 458.175 307.456 456.916H309.28V465.364H307.408V459.732L303.392 465.364H301.568ZM316.505 465.364V456.916H318.425L321.065 460.836L323.721 456.916H325.641V465.364H323.689V459.732L321.033 463.524L318.393 459.764V465.364H316.505ZM335.156 465.364H333.236V464.324C332.553 465.135 331.641 465.54 330.5 465.54C329.657 465.54 328.942 465.311 328.356 464.852C327.78 464.383 327.492 463.732 327.492 462.9C327.492 461.994 327.806 461.306 328.436 460.836C329.065 460.367 329.892 460.132 330.916 460.132C331.737 460.132 332.516 460.25 333.252 460.484V460.324C333.252 459.738 333.07 459.29 332.708 458.98C332.356 458.671 331.844 458.516 331.172 458.516C330.404 458.516 329.598 458.692 328.756 459.044L328.228 457.492C329.273 457.023 330.345 456.788 331.444 456.788C332.67 456.788 333.593 457.098 334.212 457.716C334.841 458.335 335.156 459.215 335.156 460.356V465.364ZM333.284 462.308V461.828C332.708 461.604 332.062 461.492 331.348 461.492C330.74 461.492 330.265 461.61 329.924 461.844C329.582 462.079 329.412 462.41 329.412 462.836C329.412 463.22 329.566 463.524 329.876 463.748C330.185 463.972 330.574 464.084 331.044 464.084C331.694 464.084 332.228 463.919 332.644 463.588C333.07 463.258 333.284 462.831 333.284 462.308ZM337.458 467.924V456.916H339.394V458.324C340.141 457.268 341.096 456.74 342.258 456.74C343.325 456.74 344.248 457.14 345.026 457.94C345.805 458.73 346.194 459.802 346.194 461.156C346.194 462.49 345.805 463.556 345.026 464.356C344.248 465.146 343.325 465.54 342.258 465.54C341.096 465.54 340.141 465.044 339.394 464.052V467.924H337.458ZM341.81 463.86C342.493 463.86 343.064 463.61 343.522 463.108C343.992 462.607 344.226 461.946 344.226 461.124C344.226 460.324 343.992 459.674 343.522 459.172C343.053 458.671 342.482 458.42 341.81 458.42C341.138 458.42 340.557 458.676 340.066 459.188C339.586 459.7 339.346 460.356 339.346 461.156C339.346 461.946 339.586 462.596 340.066 463.108C340.557 463.61 341.138 463.86 341.81 463.86ZM348.177 465.364V456.916H350.097V460.964L353.777 456.916H356.049L352.769 460.468L356.321 465.364H354.033L351.473 461.876L350.097 463.332V465.364H348.177ZM357.661 465.364V456.916H359.549V462.58C361.32 460.063 362.653 458.175 363.549 456.916H365.373V465.364H363.501V459.732L359.485 465.364H357.661Z" fill="#3D3D3D"/>
<path d="M461.018 465.364V454.164H463.114L466.522 459.46L469.93 454.164H472.026V465.364H470.058V457.332L466.522 462.612H466.458L462.954 457.364V465.364H461.018ZM478.701 465.556C477.421 465.556 476.354 465.13 475.501 464.276C474.647 463.423 474.221 462.383 474.221 461.156C474.221 459.93 474.653 458.89 475.517 458.036C476.381 457.172 477.453 456.74 478.733 456.74C480.013 456.74 481.079 457.167 481.933 458.02C482.797 458.874 483.229 459.919 483.229 461.156C483.229 462.372 482.797 463.412 481.933 464.276C481.069 465.13 479.991 465.556 478.701 465.556ZM478.733 463.876C479.501 463.876 480.119 463.615 480.589 463.092C481.058 462.57 481.293 461.924 481.293 461.156C481.293 460.399 481.047 459.759 480.557 459.236C480.066 458.703 479.447 458.436 478.701 458.436C477.943 458.436 477.33 458.698 476.861 459.22C476.391 459.743 476.157 460.388 476.157 461.156C476.157 461.903 476.402 462.543 476.893 463.076C477.383 463.61 477.997 463.876 478.733 463.876ZM487.008 465.364V458.58H484.288V456.916H491.68V458.58H488.96V465.364H487.008ZM497.232 465.556C495.952 465.556 494.885 465.13 494.032 464.276C493.179 463.423 492.752 462.383 492.752 461.156C492.752 459.93 493.184 458.89 494.048 458.036C494.912 457.172 495.984 456.74 497.264 456.74C498.544 456.74 499.611 457.167 500.464 458.02C501.328 458.874 501.76 459.919 501.76 461.156C501.76 462.372 501.328 463.412 500.464 464.276C499.6 465.13 498.523 465.556 497.232 465.556ZM497.264 463.876C498.032 463.876 498.651 463.615 499.12 463.092C499.589 462.57 499.824 461.924 499.824 461.156C499.824 460.399 499.579 459.759 499.088 459.236C498.597 458.703 497.979 458.436 497.232 458.436C496.475 458.436 495.861 458.698 495.392 459.22C494.923 459.743 494.688 460.388 494.688 461.156C494.688 461.903 494.933 462.543 495.424 463.076C495.915 463.61 496.528 463.876 497.264 463.876ZM510.564 467.396V465.364H503.732V456.916H505.652V463.7H509.3V456.916H511.22V463.7H512.436L512.18 467.396H510.564ZM514.044 465.364V456.916H515.932V462.58C517.703 460.063 519.036 458.175 519.932 456.916H521.756V465.364H519.884V459.732L515.868 465.364H514.044ZM524.185 465.364V456.916H526.105V460.964L529.785 456.916H532.057L528.777 460.468L532.329 465.364H530.041L527.481 461.876L526.105 463.332V465.364H524.185ZM533.605 465.46C533.296 465.46 532.917 465.423 532.469 465.348L532.613 463.764C532.784 463.807 532.97 463.828 533.173 463.828C533.397 463.828 533.578 463.796 533.717 463.732C533.866 463.668 534.016 463.508 534.165 463.252C534.325 462.986 534.448 462.612 534.533 462.132C534.618 461.652 534.688 460.98 534.741 460.116C534.794 459.242 534.821 458.175 534.821 456.916H541.205V465.364H539.269V458.58H536.629C536.629 459.786 536.581 460.81 536.485 461.652C536.389 462.495 536.261 463.162 536.101 463.652C535.952 464.143 535.738 464.527 535.461 464.804C535.194 465.071 534.922 465.247 534.645 465.332C534.368 465.418 534.021 465.46 533.605 465.46Z" fill="#3D3D3D"/>
<g filter="url(#filter0_d)">
<circle cx="121" cy="121.364" r="71" fill="#54A0FF"/>
<circle cx="121" cy="121.364" r="66" stroke="#E7E2E2" stroke-width="10"/>
</g>
<g filter="url(#filter1_d)">
<circle cx="121" cy="117.364" r="71" fill="#54A0FF"/>
<circle cx="121" cy="117.364" r="66" stroke="white" stroke-width="10"/>
</g>
<g filter="url(#filter2_d)">
<circle cx="312" cy="121.364" r="71" fill="#54A0FF"/>
<circle cx="312" cy="121.364" r="66" stroke="#E7E2E2" stroke-width="10"/>
</g>
<g filter="url(#filter3_d)">
<circle cx="312" cy="117.364" r="71" fill="#54A0FF"/>
<circle cx="312" cy="117.364" r="66" stroke="white" stroke-width="10"/>
</g>
<g filter="url(#filter4_d)">
<circle cx="503" cy="121.364" r="71" fill="#54A0FF"/>
<circle cx="503" cy="121.364" r="66" stroke="#E7E2E2" stroke-width="10"/>
</g>
<g filter="url(#filter5_d)">
<circle cx="503" cy="117.364" r="71" fill="#54A0FF"/>
<circle cx="503" cy="117.364" r="66" stroke="white" stroke-width="10"/>
</g>
<g filter="url(#filter6_d)">
<circle cx="121" cy="368.364" r="71" fill="#54A0FF"/>
<circle cx="121" cy="368.364" r="66" stroke="#E7E2E2" stroke-width="10"/>
</g>
<g filter="url(#filter7_d)">
<circle cx="121" cy="364.364" r="71" fill="#54A0FF"/>
<circle cx="121" cy="364.364" r="66" stroke="white" stroke-width="10"/>
</g>
<g filter="url(#filter8_d)">
<circle cx="312" cy="368.364" r="71" fill="#54A0FF"/>
<circle cx="312" cy="368.364" r="66" stroke="#E7E2E2" stroke-width="10"/>
</g>
<g filter="url(#filter9_d)">
<circle cx="312" cy="364.364" r="71" fill="#54A0FF"/>
<circle cx="312" cy="364.364" r="66" stroke="white" stroke-width="10"/>
</g>
<g filter="url(#filter10_d)">
<circle cx="503" cy="368.364" r="71" fill="#54A0FF"/>
<circle cx="503" cy="368.364" r="66" stroke="#E7E2E2" stroke-width="10"/>
</g>
<g filter="url(#filter11_d)">
<circle cx="503" cy="364.364" r="71" fill="#54A0FF"/>
<circle cx="503" cy="364.364" r="66" stroke="white" stroke-width="10"/>
</g>
<path d="M101.123 100.501L103.077 105.24L107.81 103.271L105.841 108.003L110.58 109.957L105.841 111.912L107.81 116.644L103.077 114.675L101.123 119.414L99.1688 114.675L94.4363 116.644L96.4052 111.912L91.6665 109.957L96.4052 108.003L94.4363 103.271L99.1688 105.24L101.123 100.501Z" fill="white"/>
<path d="M110.778 136.826V136.424H130.795V136.826C130.795 137.993 131.259 139.113 132.084 139.938C132.909 140.764 134.029 141.228 135.196 141.228H137.598C138.765 141.228 139.885 140.764 140.711 139.938C141.536 139.113 142 137.993 142 136.826V117.613V117.276L141.889 116.958L136.894 102.548L136.892 102.542C136.103 100.287 133.968 98.8011 131.594 98.8011H109.979C107.605 98.8011 105.47 100.287 104.681 102.542L104.681 102.542L104.679 102.548L99.6836 116.958L99.5732 117.276V117.613V136.826C99.5732 137.993 100.037 139.113 100.862 139.938C101.688 140.764 102.808 141.228 103.975 141.228H106.377C107.544 141.228 108.664 140.764 109.489 139.938C110.314 139.113 110.778 137.993 110.778 136.826ZM130.152 106.404L132.422 113.211H109.151L111.421 106.404H130.152ZM131.594 125.219C131.169 125.219 130.761 125.051 130.461 124.75C130.16 124.449 129.991 124.042 129.991 123.617C129.991 123.192 130.16 122.784 130.461 122.484C130.761 122.183 131.169 122.014 131.594 122.014C132.019 122.014 132.427 122.183 132.727 122.484C133.028 122.784 133.196 123.192 133.196 123.617C133.196 124.042 133.028 124.449 132.727 124.75C132.427 125.051 132.019 125.219 131.594 125.219ZM109.979 125.219C109.554 125.219 109.146 125.051 108.846 124.75C108.545 124.449 108.377 124.042 108.377 123.617C108.377 123.192 108.545 122.784 108.846 122.484C109.146 122.183 109.554 122.014 109.979 122.014C110.404 122.014 110.812 122.183 111.112 122.484C111.413 122.784 111.582 123.192 111.582 123.617C111.582 124.042 111.413 124.449 111.112 124.75C110.812 125.051 110.404 125.219 109.979 125.219Z" fill="white" stroke="#54A0FF" stroke-width="4"/>
<path d="M140.5 357.698V353.364H110.167V357.698H140.5ZM140.5 375.031V364.198H110.167V375.031H140.5ZM140.5 349.031C141.649 349.031 142.751 349.487 143.564 350.3C144.377 351.113 144.833 352.215 144.833 353.364V375.031C144.833 376.18 144.377 377.282 143.564 378.095C142.751 378.908 141.649 379.364 140.5 379.364H110.167C107.762 379.364 105.833 377.414 105.833 375.031V353.364C105.833 350.959 107.762 349.031 110.167 349.031H140.5ZM101.5 383.698H134V388.031H101.5C100.351 388.031 99.2484 387.574 98.4357 386.762C97.6231 385.949 97.1665 384.847 97.1665 383.698V359.864H101.5V383.698Z" fill="white"/>
<path d="M322.333 350.864L319.75 352.802L326.208 361.198H315.875V357.323H312V361.198H288.75C285.882 361.198 283.583 363.497 283.583 366.364V374.114H288.75C288.75 376.17 289.566 378.141 291.02 379.594C292.473 381.048 294.444 381.864 296.5 381.864C298.555 381.864 300.527 381.048 301.98 379.594C303.433 378.141 304.25 376.17 304.25 374.114H319.75C319.75 376.17 320.566 378.141 322.02 379.594C323.473 381.048 325.444 381.864 327.5 381.864C329.555 381.864 331.527 381.048 332.98 379.594C334.433 378.141 335.25 376.17 335.25 374.114H340.417V366.364C340.417 363.497 338.117 361.198 335.25 361.198H330.083L322.333 350.864ZM296.5 370.239C297.528 370.239 298.513 370.648 299.24 371.374C299.967 372.101 300.375 373.087 300.375 374.114C300.375 375.142 299.967 376.128 299.24 376.854C298.513 377.581 297.528 377.989 296.5 377.989C295.472 377.989 294.487 377.581 293.76 376.854C293.033 376.128 292.625 375.142 292.625 374.114C292.625 373.087 293.033 372.101 293.76 371.374C294.487 370.648 295.472 370.239 296.5 370.239ZM327.5 370.239C328.528 370.239 329.513 370.648 330.24 371.374C330.967 372.101 331.375 373.087 331.375 374.114C331.375 375.142 330.967 376.128 330.24 376.854C329.513 377.581 328.528 377.989 327.5 377.989C326.472 377.989 325.487 377.581 324.76 376.854C324.033 376.128 323.625 375.142 323.625 374.114C323.625 373.087 324.033 372.101 324.76 371.374C325.487 370.648 326.472 370.239 327.5 370.239Z" fill="white"/>
<path d="M476.888 103.364H506.602V105.422H516.892L524.224 115.198H529.112C531.825 115.198 534 117.373 534 120.086V127.418H529.112C529.112 129.363 528.34 131.228 526.965 132.603C525.59 133.978 523.725 134.75 521.78 134.75C519.836 134.75 517.971 133.978 516.596 132.603C515.221 131.228 514.448 129.363 514.448 127.418H495.668C495.668 129.363 494.896 131.228 493.521 132.603C492.146 133.978 490.281 134.75 488.336 134.75C486.392 134.75 484.527 133.978 483.152 132.603C481.777 131.228 481.004 129.363 481.004 127.418H472V108.252C472 105.539 474.175 103.364 476.888 103.364ZM507.116 109.088V115.198H519.678L515.059 109.088H507.116ZM488.336 123.752C487.364 123.752 486.431 124.138 485.744 124.826C485.056 125.513 484.67 126.446 484.67 127.418C484.67 128.39 485.056 129.323 485.744 130.01C486.431 130.698 487.364 131.084 488.336 131.084C489.308 131.084 490.241 130.698 490.928 130.01C491.616 129.323 492.002 128.39 492.002 127.418C492.002 126.446 491.616 125.513 490.928 124.826C490.241 124.138 489.308 123.752 488.336 123.752ZM521.78 123.752C520.808 123.752 519.875 124.138 519.188 124.826C518.5 125.513 518.114 126.446 518.114 127.418C518.114 128.39 518.5 129.323 519.188 130.01C519.875 130.698 520.808 131.084 521.78 131.084C522.752 131.084 523.685 130.698 524.372 130.01C525.06 129.323 525.446 128.39 525.446 127.418C525.446 126.446 525.06 125.513 524.372 124.826C523.685 124.138 522.752 123.752 521.78 123.752Z" fill="white"/>
<path d="M515.002 359.198L504.643 348.864H493.25V354.031H502.524L507.691 359.198H486.792C480.333 359.198 475.167 364.364 475.167 370.823C475.167 377.281 480.333 382.448 486.792 382.448C492.527 382.448 497.28 378.263 498.21 372.812L503.687 369.531C503.583 369.97 503.583 370.383 503.583 370.823C503.583 377.281 508.75 382.448 515.208 382.448C521.667 382.448 526.833 377.281 526.833 370.823C526.833 364.364 521.667 359.198 515.208 359.198H515.002ZM492.837 372.786C491.958 375.395 489.582 377.281 486.714 377.281C483.149 377.281 480.256 374.388 480.256 370.823C480.256 367.258 483.149 364.364 486.714 364.364C489.608 364.364 491.958 366.276 492.837 368.885H485.5V372.76L492.837 372.786ZM515.131 377.281C511.566 377.281 508.673 374.388 508.673 370.823C508.673 367.258 511.566 364.364 515.131 364.364C516.844 364.364 518.486 365.045 519.698 366.256C520.909 367.467 521.589 369.11 521.589 370.823C521.589 372.535 520.909 374.178 519.698 375.389C518.486 376.6 516.844 377.281 515.131 377.281Z" fill="white"/>
<path d="M326.337 117.298C325.743 116.523 325.046 115.851 324.374 115.179C322.695 113.629 320.757 112.518 319.13 110.891C315.358 107.119 314.583 100.893 316.934 96.1143C314.583 96.7084 312.413 98.0518 310.605 99.5243C304.043 104.898 301.46 114.378 304.56 122.516C304.663 122.774 304.766 123.033 304.766 123.368C304.766 123.937 304.379 124.453 303.862 124.66C303.294 124.918 302.674 124.763 302.209 124.35C302.054 124.221 301.951 124.092 301.821 123.911C298.98 120.217 298.515 114.921 300.452 110.684C296.216 114.198 293.916 120.139 294.278 125.745C294.381 127.037 294.536 128.328 294.976 129.62C295.337 131.17 296.009 132.72 296.836 134.089C299.522 138.558 304.25 141.762 309.339 142.408C314.764 143.105 320.576 142.098 324.736 138.274C329.386 133.986 331.065 127.114 328.611 121.224L328.275 120.553C327.758 119.364 327.061 118.305 326.208 117.323L326.337 117.298ZM318.329 133.573C317.606 134.193 316.443 134.864 315.539 135.123C312.697 136.156 309.856 134.709 308.125 133.004C311.199 132.281 313.007 130.008 313.524 127.708C313.963 125.642 313.162 123.937 312.826 121.948C312.516 120.036 312.568 118.408 313.291 116.626C313.731 117.608 314.247 118.589 314.841 119.364C316.805 121.948 319.879 123.084 320.525 126.598C320.628 126.959 320.68 127.321 320.68 127.708C320.757 129.827 319.853 132.152 318.303 133.573H318.329Z" fill="white"/>
<defs>
<filter id="filter0_d" x="0" y="4.36426" width="242" height="242" filterUnits="userSpaceOnUse" color-interpolation-filters="sRGB">
<feFlood flood-opacity="0" result="BackgroundImageFix"/>
<feColorMatrix in="SourceAlpha" type="matrix" values="0 0 0 0 0 0 0 0 0 0 0 0 0 0 0 0 0 0 127 0"/>
<feOffset dy="4"/>
<feGaussianBlur stdDeviation="25"/>
<feColorMatrix type="matrix" values="0 0 0 0 0 0 0 0 0 0 0 0 0 0 0 0 0 0 0.05 0"/>
<feBlend mode="normal" in2="BackgroundImageFix" result="effect1_dropShadow"/>
<feBlend mode="normal" in="SourceGraphic" in2="effect1_dropShadow" result="shape"/>
</filter>
<filter id="filter1_d" x="0" y="0.364258" width="242" height="242" filterUnits="userSpaceOnUse" color-interpolation-filters="sRGB">
<feFlood flood-opacity="0" result="BackgroundImageFix"/>
<feColorMatrix in="SourceAlpha" type="matrix" values="0 0 0 0 0 0 0 0 0 0 0 0 0 0 0 0 0 0 127 0"/>
<feOffset dy="4"/>
<feGaussianBlur stdDeviation="25"/>
<feColorMatrix type="matrix" values="0 0 0 0 0 0 0 0 0 0 0 0 0 0 0 0 0 0 0.05 0"/>
<feBlend mode="normal" in2="BackgroundImageFix" result="effect1_dropShadow"/>
<feBlend mode="normal" in="SourceGraphic" in2="effect1_dropShadow" result="shape"/>
</filter>
<filter id="filter2_d" x="191" y="4.36426" width="242" height="242" filterUnits="userSpaceOnUse" color-interpolation-filters="sRGB">
<feFlood flood-opacity="0" result="BackgroundImageFix"/>
<feColorMatrix in="SourceAlpha" type="matrix" values="0 0 0 0 0 0 0 0 0 0 0 0 0 0 0 0 0 0 127 0"/>
<feOffset dy="4"/>
<feGaussianBlur stdDeviation="25"/>
<feColorMatrix type="matrix" values="0 0 0 0 0 0 0 0 0 0 0 0 0 0 0 0 0 0 0.05 0"/>
<feBlend mode="normal" in2="BackgroundImageFix" result="effect1_dropShadow"/>
<feBlend mode="normal" in="SourceGraphic" in2="effect1_dropShadow" result="shape"/>
</filter>
<filter id="filter3_d" x="191" y="0.364258" width="242" height="242" filterUnits="userSpaceOnUse" color-interpolation-filters="sRGB">
<feFlood flood-opacity="0" result="BackgroundImageFix"/>
<feColorMatrix in="SourceAlpha" type="matrix" values="0 0 0 0 0 0 0 0 0 0 0 0 0 0 0 0 0 0 127 0"/>
<feOffset dy="4"/>
<feGaussianBlur stdDeviation="25"/>
<feColorMatrix type="matrix" values="0 0 0 0 0 0 0 0 0 0 0 0 0 0 0 0 0 0 0.05 0"/>
<feBlend mode="normal" in2="BackgroundImageFix" result="effect1_dropShadow"/>
<feBlend mode="normal" in="SourceGraphic" in2="effect1_dropShadow" result="shape"/>
</filter>
<filter id="filter4_d" x="382" y="4.36426" width="242" height="242" filterUnits="userSpaceOnUse" color-interpolation-filters="sRGB">
<feFlood flood-opacity="0" result="BackgroundImageFix"/>
<feColorMatrix in="SourceAlpha" type="matrix" values="0 0 0 0 0 0 0 0 0 0 0 0 0 0 0 0 0 0 127 0"/>
<feOffset dy="4"/>
<feGaussianBlur stdDeviation="25"/>
<feColorMatrix type="matrix" values="0 0 0 0 0 0 0 0 0 0 0 0 0 0 0 0 0 0 0.05 0"/>
<feBlend mode="normal" in2="BackgroundImageFix" result="effect1_dropShadow"/>
<feBlend mode="normal" in="SourceGraphic" in2="effect1_dropShadow" result="shape"/>
</filter>
<filter id="filter5_d" x="382" y="0.364258" width="242" height="242" filterUnits="userSpaceOnUse" color-interpolation-filters="sRGB">
<feFlood flood-opacity="0" result="BackgroundImageFix"/>
<feColorMatrix in="SourceAlpha" type="matrix" values="0 0 0 0 0 0 0 0 0 0 0 0 0 0 0 0 0 0 127 0"/>
<feOffset dy="4"/>
<feGaussianBlur stdDeviation="25"/>
<feColorMatrix type="matrix" values="0 0 0 0 0 0 0 0 0 0 0 0 0 0 0 0 0 0 0.05 0"/>
<feBlend mode="normal" in2="BackgroundImageFix" result="effect1_dropShadow"/>
<feBlend mode="normal" in="SourceGraphic" in2="effect1_dropShadow" result="shape"/>
</filter>
<filter id="filter6_d" x="0" y="251.364" width="242" height="242" filterUnits="userSpaceOnUse" color-interpolation-filters="sRGB">
<feFlood flood-opacity="0" result="BackgroundImageFix"/>
<feColorMatrix in="SourceAlpha" type="matrix" values="0 0 0 0 0 0 0 0 0 0 0 0 0 0 0 0 0 0 127 0"/>
<feOffset dy="4"/>
<feGaussianBlur stdDeviation="25"/>
<feColorMatrix type="matrix" values="0 0 0 0 0 0 0 0 0 0 0 0 0 0 0 0 0 0 0.05 0"/>
<feBlend mode="normal" in2="BackgroundImageFix" result="effect1_dropShadow"/>
<feBlend mode="normal" in="SourceGraphic" in2="effect1_dropShadow" result="shape"/>
</filter>
<filter id="filter7_d" x="0" y="247.364" width="242" height="242" filterUnits="userSpaceOnUse" color-interpolation-filters="sRGB">
<feFlood flood-opacity="0" result="BackgroundImageFix"/>
<feColorMatrix in="SourceAlpha" type="matrix" values="0 0 0 0 0 0 0 0 0 0 0 0 0 0 0 0 0 0 127 0"/>
<feOffset dy="4"/>
<feGaussianBlur stdDeviation="25"/>
<feColorMatrix type="matrix" values="0 0 0 0 0 0 0 0 0 0 0 0 0 0 0 0 0 0 0.05 0"/>
<feBlend mode="normal" in2="BackgroundImageFix" result="effect1_dropShadow"/>
<feBlend mode="normal" in="SourceGraphic" in2="effect1_dropShadow" result="shape"/>
</filter>
<filter id="filter8_d" x="191" y="251.364" width="242" height="242" filterUnits="userSpaceOnUse" color-interpolation-filters="sRGB">
<feFlood flood-opacity="0" result="BackgroundImageFix"/>
<feColorMatrix in="SourceAlpha" type="matrix" values="0 0 0 0 0 0 0 0 0 0 0 0 0 0 0 0 0 0 127 0"/>
<feOffset dy="4"/>
<feGaussianBlur stdDeviation="25"/>
<feColorMatrix type="matrix" values="0 0 0 0 0 0 0 0 0 0 0 0 0 0 0 0 0 0 0.05 0"/>
<feBlend mode="normal" in2="BackgroundImageFix" result="effect1_dropShadow"/>
<feBlend mode="normal" in="SourceGraphic" in2="effect1_dropShadow" result="shape"/>
</filter>
<filter id="filter9_d" x="191" y="247.364" width="242" height="242" filterUnits="userSpaceOnUse" color-interpolation-filters="sRGB">
<feFlood flood-opacity="0" result="BackgroundImageFix"/>
<feColorMatrix in="SourceAlpha" type="matrix" values="0 0 0 0 0 0 0 0 0 0 0 0 0 0 0 0 0 0 127 0"/>
<feOffset dy="4"/>
<feGaussianBlur stdDeviation="25"/>
<feColorMatrix type="matrix" values="0 0 0 0 0 0 0 0 0 0 0 0 0 0 0 0 0 0 0.05 0"/>
<feBlend mode="normal" in2="BackgroundImageFix" result="effect1_dropShadow"/>
<feBlend mode="normal" in="SourceGraphic" in2="effect1_dropShadow" result="shape"/>
</filter>
<filter id="filter10_d" x="382" y="251.364" width="242" height="242" filterUnits="userSpaceOnUse" color-interpolation-filters="sRGB">
<feFlood flood-opacity="0" result="BackgroundImageFix"/>
<feColorMatrix in="SourceAlpha" type="matrix" values="0 0 0 0 0 0 0 0 0 0 0 0 0 0 0 0 0 0 127 0"/>
<feOffset dy="4"/>
<feGaussianBlur stdDeviation="25"/>
<feColorMatrix type="matrix" values="0 0 0 0 0 0 0 0 0 0 0 0 0 0 0 0 0 0 0.05 0"/>
<feBlend mode="normal" in2="BackgroundImageFix" result="effect1_dropShadow"/>
<feBlend mode="normal" in="SourceGraphic" in2="effect1_dropShadow" result="shape"/>
</filter>
<filter id="filter11_d" x="382" y="247.364" width="242" height="242" filterUnits="userSpaceOnUse" color-interpolation-filters="sRGB">
<feFlood flood-opacity="0" result="BackgroundImageFix"/>
<feColorMatrix in="SourceAlpha" type="matrix" values="0 0 0 0 0 0 0 0 0 0 0 0 0 0 0 0 0 0 127 0"/>
<feOffset dy="4"/>
<feGaussianBlur stdDeviation="25"/>
<feColorMatrix type="matrix" values="0 0 0 0 0 0 0 0 0 0 0 0 0 0 0 0 0 0 0.05 0"/>
<feBlend mode="normal" in2="BackgroundImageFix" result="effect1_dropShadow"/>
<feBlend mode="normal" in="SourceGraphic" in2="effect1_dropShadow" result="shape"/>
</filter>
</defs>
</svg>
