<svg width="484" height="557" viewBox="0 0 484 557" fill="none" xmlns="http://www.w3.org/2000/svg">
<path opacity="0.1" d="M332.213 186.191C387.296 230.16 447.093 234.652 471.713 300.691C485.326 337.204 486.089 361.835 479.213 400.191C458.249 517.15 333.852 569.929 216.214 553.191C98.2043 536.401 27.0852 449.047 6.21353 331.691C-15.7641 208.117 18.3777 47.8696 143.714 41.1912C236.456 36.2495 259.629 128.252 332.213 186.191Z" fill="#C4C4C4"/>
<path opacity="0.1" d="M361.525 143.957C340.557 134.797 321.427 138.413 308.157 119.772C300.82 109.465 298.511 101.805 297.444 89.199C294.191 50.759 328.767 23.755 367.064 19.1189C405.483 14.4681 435.126 35.8861 451.532 70.935C468.808 107.841 471.567 160.963 432.823 173.589C404.154 182.932 389.156 156.027 361.525 143.957Z" fill="#C4C4C4"/>
<path fill-rule="evenodd" clip-rule="evenodd" d="M299.464 392.181C299.464 392.181 271.882 393.803 266.473 398.126C261.063 402.449 257.82 410.015 253.492 411.637C249.166 413.259 244.142 412.482 233.628 407.011C223.113 401.542 202.329 372.185 202.329 372.185L247.004 337.056L305.413 366.781L299.464 392.181Z" fill="#687272"/>
<path fill-rule="evenodd" clip-rule="evenodd" d="M119.068 288.306C119.068 288.306 97.9828 281.939 92.0352 288.306C86.0891 294.672 82.8449 302.099 78.5187 303.159C74.194 304.221 65.1898 300.636 65.1898 300.636C65.1898 300.636 53.6494 279.818 53.6494 276.105C53.6494 272.391 61.7593 247.988 61.7593 247.988L96.3614 245.866L115.826 260.721L119.068 288.306Z" fill="#687272"/>
<path fill-rule="evenodd" clip-rule="evenodd" d="M253.767 411.16C257.038 420.711 256.708 437.273 263.437 439.977C267.192 441.487 277.71 432.093 281.339 430.258C292.264 424.731 294.786 405.862 287.077 390.221C280.168 376.208 267.936 371.149 259.599 377.305C255.209 380.546 244.802 385.177 243.995 392.047C243.35 397.536 251.704 405.136 253.767 411.16Z" fill="#475151"/>
<path fill-rule="evenodd" clip-rule="evenodd" d="M89.2276 310.937C92.4986 320.199 92.17 336.259 98.8979 338.88C102.654 340.345 113.171 331.236 116.801 329.456C127.726 324.098 130.249 305.8 122.535 290.631C115.629 277.044 103.395 272.137 95.0604 278.107C90.6713 281.249 80.2635 285.741 79.4562 292.403C78.8094 297.725 87.1639 305.096 89.2276 310.937Z" fill="#475151"/>
<path fill-rule="evenodd" clip-rule="evenodd" d="M240.16 419.31C245.085 434.372 257.192 443.865 267.336 438.74C278.229 433.236 280.913 414.228 273.412 398.406C266.691 384.232 254.601 379.052 246.27 385.207C238.414 391.011 235.693 405.651 240.16 419.31Z" fill="#515B5B"/>
<path fill-rule="evenodd" clip-rule="evenodd" d="M247.231 415.317C250.185 424.668 257.45 430.559 263.537 427.376C270.072 423.961 271.683 412.162 267.181 402.342C263.149 393.546 255.894 390.329 250.895 394.149C246.183 397.752 244.551 406.839 247.231 415.317Z" fill="#7B8484"/>
<path fill-rule="evenodd" clip-rule="evenodd" d="M75.6202 320.909C80.5463 335.453 92.653 344.617 102.798 339.668C113.69 334.354 116.375 316 108.874 300.726C102.152 287.041 90.0622 282.039 81.7311 287.982C73.8751 293.586 71.1558 307.721 75.6202 320.909Z" fill="#515B5B"/>
<path fill-rule="evenodd" clip-rule="evenodd" d="M82.6911 316.916C85.6459 325.746 92.9111 331.31 98.9975 328.306C105.534 325.078 107.143 313.935 102.643 304.662C98.6104 296.353 91.357 293.316 86.3573 296.924C81.6438 300.327 80.0123 308.909 82.6911 316.916Z" fill="#7B8484"/>
<mask id="mask0" mask-type="alpha" maskUnits="userSpaceOnUse" x="38" y="152" width="415" height="288">
<path fill-rule="evenodd" clip-rule="evenodd" d="M452.111 152.875H38.1111V439.805H452.111V152.875Z" fill="white"/>
</mask>
<g mask="url(#mask0)">
<path fill-rule="evenodd" clip-rule="evenodd" d="M352.186 427.634C343.698 432.615 325.181 438.168 325.181 438.168C325.181 438.168 314.306 441.851 305.986 438.168C297.732 434.515 283.966 425.628 283.966 425.628L279.867 402.048C279.867 402.048 278.219 387.817 266.032 377.527C257.171 370.044 247.757 367.172 247.757 367.172C247.757 367.172 233.932 365.126 234.276 383.464C234.425 391.404 234.927 396.94 234.927 396.94C234.927 396.94 235.038 404.803 228.263 402.556C221.486 400.311 127.58 341.626 127.58 341.626C127.58 341.626 119.062 331.671 117.395 320.44C115.726 309.21 111.857 287.295 111.857 287.295C111.857 287.295 108.384 277.097 95.4003 270.409C86.2189 265.681 77.3339 268.1 77.3339 268.1C77.3339 268.1 71.6882 273.269 72.8177 284.5C73.9471 295.733 68.8661 302.521 65.4779 301.836C62.0911 301.15 53.0571 296.346 51.9277 290.324C50.7997 284.304 35.949 236.678 38.3789 226.464C41.2703 214.304 41.7657 210.386 53.0571 203.543C64.3484 196.701 143.389 162.624 143.389 162.624C143.389 162.624 159.195 155.501 173.875 162.624L188.553 169.747L223.558 154.309C223.558 154.309 238.366 150.133 247.776 156.035C264.36 166.436 339.86 212.553 339.86 212.553L372.219 272.756L429.626 311.258C429.626 311.258 452.095 326.981 452.102 347.759C452.106 356.701 452.104 364.604 452.104 364.604C452.104 364.604 452.774 378.645 441.483 384.26C430.19 389.876 352.186 427.634 352.186 427.634Z" fill="#EA4970"/>
</g>
<path fill-rule="evenodd" clip-rule="evenodd" d="M40.0402 227.127C42.7968 215.466 43.3957 211.347 53.2651 205.016L93.1769 223.745L120.145 196.307L144.293 198.185L239.088 252.686L264.948 328.194L333.167 382.334C333.167 382.334 331.66 394.412 331.66 407.507C331.66 434.012 330.256 429.312 325.749 434.576C321.259 439.816 303.297 437.765 303.211 437.755C295.161 433.568 285.174 427.087 285.174 427.087L281.083 403.415C281.083 403.415 279.437 389.125 267.273 378.794C258.428 371.282 249.031 368.398 249.031 368.398C249.031 368.398 235.232 366.344 235.575 384.755C235.724 392.726 236.226 398.286 236.226 398.286C236.226 398.286 236.336 406.18 229.572 403.923C222.811 401.668 129.077 342.749 129.077 342.749C129.077 342.749 120.575 332.756 118.91 321.48C117.244 310.204 113.382 288.202 113.382 288.202C113.382 288.202 109.916 277.963 96.9563 271.25C87.7918 266.503 78.9232 268.931 78.9232 268.931C78.9232 268.931 73.288 274.12 74.4153 285.397C75.5427 296.673 70.4711 303.49 67.0891 302.803C63.7085 302.112 54.6912 297.288 53.5639 291.244C52.438 285.198 37.6163 237.383 40.0402 227.127Z" fill="#C42653"/>
<path fill-rule="evenodd" clip-rule="evenodd" d="M53.4064 211.65C53.4064 211.65 48.4442 213.536 45.7198 210.743C47.3994 209.206 52.0663 204.123 54.9066 202.393C66.1594 195.542 144.929 161.42 144.929 161.42C144.929 161.42 160.684 154.288 175.312 161.42L189.94 168.552L224.824 153.095C224.824 153.095 242.292 150.474 254.973 158.628C271.404 169.192 340.728 211.415 340.728 211.415L372.978 271.694L430.189 310.247C430.189 310.247 439.526 316.162 446.163 326.986C445.558 329.977 445.146 332.084 443.505 333.666C438.922 338.086 407.234 356.074 376.265 369.985C361.612 376.568 338.301 396.583 335.737 385.128C333.486 375.075 261.62 327.945 261.62 327.945L261.093 326.025L236.451 258.323L135.176 197.659L92.4164 229.577L53.4064 211.65Z" fill="#EA4970"/>
<path fill-rule="evenodd" clip-rule="evenodd" d="M368.85 274.102L337.272 216.13L241.977 260.594L266.418 323.18L368.85 274.102Z" fill="#687272"/>
<path fill-rule="evenodd" clip-rule="evenodd" d="M252.242 318.648L232.012 262.652L186.27 233.972C186.27 233.972 182.811 242.881 179.002 258.578C174.728 276.198 174.575 282.276 174.575 282.276L244.108 325.805C244.108 325.805 250.77 327.706 252.164 326.979C255.959 324.999 252.242 318.648 252.242 318.648Z" fill="#5C6363"/>
<path fill-rule="evenodd" clip-rule="evenodd" d="M178.54 229.627C178.54 229.627 172.475 246.553 170.202 255.957C167.929 265.36 165.653 277.585 165.653 277.585L100.845 239.124C100.845 239.124 97.2443 236.679 100.845 233.481C104.139 230.557 136.092 204.236 136.092 204.236L178.54 229.627Z" fill="#5C6363"/>
<path fill-rule="evenodd" clip-rule="evenodd" d="M335.149 434.194C344.304 431.198 341.783 420.26 341.783 420.26V405.346L443.966 356.88C443.966 356.88 444.449 366.137 443.966 374.574C443.485 382.998 433.758 387.979 433.733 387.994C409.865 399.51 353.031 426.718 353.031 426.718C348.483 429.36 341.079 432.155 335.149 434.194Z" fill="#C42653"/>
<path fill-rule="evenodd" clip-rule="evenodd" d="M378.798 277.585L430.09 312.025C430.09 312.025 439.486 317.956 446.163 328.808C445.554 331.807 445.14 333.92 443.489 335.507C438.879 339.938 406.993 357.972 375.832 371.92C361.088 378.521 337.633 398.586 335.053 387.101C333.081 378.319 277.946 341.328 263.783 331.95C298.389 315.562 349.439 291.403 378.798 277.585Z" fill="#F97393"/>
<path fill-rule="evenodd" clip-rule="evenodd" d="M440.55 331.109C440.55 331.109 408.065 346.644 390.352 354.965C371.642 363.754 329.202 383.079 329.202 383.079L341.631 392.563L442.198 345.572L440.55 331.109Z" fill="#992E48"/>
<mask id="mask1" mask-type="alpha" maskUnits="userSpaceOnUse" x="135" y="151" width="204" height="107">
<path fill-rule="evenodd" clip-rule="evenodd" d="M338.47 151.808H135.234V257.405H338.47V151.808Z" fill="white"/>
</mask>
<g mask="url(#mask1)">
<path fill-rule="evenodd" clip-rule="evenodd" d="M235.435 257.405L135.234 197.449C135.234 197.449 135.122 193.935 140.747 190.941C143.071 189.703 164.16 180.13 188.104 169.325C188.857 169.692 189.983 168.382 189.983 168.382L224.854 152.947C224.854 152.947 238.958 148.08 254.993 158.471C269.631 167.956 326.508 202.531 338.47 209.813C306.376 224.809 257.878 247.105 235.435 257.405Z" fill="#F97393"/>
</g>
<path fill-rule="evenodd" clip-rule="evenodd" d="M368.85 274.745L371.837 271.637L372.362 272.621L430.055 311.549C430.055 311.549 439.47 317.523 446.163 328.452C445.785 330.322 445.449 331.819 444.88 333.092L443.261 331.36C443.261 331.36 438.07 320.395 433.153 317.253C428.235 314.109 374.656 279.189 374.656 279.189L368.85 274.745Z" fill="#EA4970"/>
<path fill-rule="evenodd" clip-rule="evenodd" d="M337.211 216.13L368.85 274.558L337.89 289.479C325.211 288.614 305.348 287.803 295.091 281.22C279.271 271.064 273.057 258.002 281.317 242.364L337.211 216.13Z" fill="#7E8988"/>
<path fill-rule="evenodd" clip-rule="evenodd" d="M237.108 303.356L219.894 310.526C219.894 310.526 216.206 313.009 216.206 314.452C216.206 315.893 217.883 321.557 219.894 322.85C219.894 322.85 222.577 324.473 224.422 323.813C226.267 323.153 239.432 316.667 239.432 316.667C239.432 316.667 241.187 317.741 242.631 320.06C243.762 321.873 244.541 323.964 245.044 323.971C245.547 323.979 246.59 326.123 248.163 324.639C249.738 323.153 249.906 321.82 249.906 321.82L237.108 303.356Z" fill="#475151"/>
<path fill-rule="evenodd" clip-rule="evenodd" d="M221.81 310.938L238.712 303.356L241.977 308.431C236.457 310.781 223.091 318.941 222.687 318.941C222.138 318.941 222.043 317.111 223.144 321.391C223.728 323.66 225.648 324.352 227.328 324.506C226.846 324.739 226.468 324.913 226.255 324.995C224.444 325.693 221.81 323.977 221.81 323.977C219.835 322.608 218.188 316.618 218.188 315.094C218.188 313.568 221.81 310.938 221.81 310.938Z" fill="#7E8988"/>
<path fill-rule="evenodd" clip-rule="evenodd" d="M369.816 267.673L376.317 263.884L379.801 261.852C379.801 261.852 382.084 259.767 382.655 258.08C383.226 256.393 380.177 249.088 380.177 249.088C380.177 249.088 377.892 247.401 376.271 247.963C374.649 248.526 362.903 254.959 362.903 254.959L369.816 267.673Z" fill="#475151"/>
<path fill-rule="evenodd" clip-rule="evenodd" d="M365.947 258.822L362.903 254.895C362.903 254.895 374.65 248.519 376.272 247.962C377.893 247.405 380.178 249.077 380.178 249.077C380.178 249.077 383.227 256.316 382.655 257.987C382.085 259.659 379.8 261.725 379.8 261.725L380.845 258.451C382.085 254.789 378.098 251.154 378.098 251.154C378.098 251.154 377.509 253.789 374.841 254.789C373.569 255.263 370.529 256.707 365.947 258.822Z" fill="#7E8988"/>
<path fill-rule="evenodd" clip-rule="evenodd" d="M259.818 371.881C253.811 368.252 248.949 366.75 248.949 366.75C248.949 366.75 235.224 364.707 235.567 383.014C235.713 390.94 236.212 396.468 236.212 396.468C236.212 396.468 236.321 404.315 229.596 402.072C222.869 399.831 129.636 341.248 129.636 341.248C129.636 341.248 121.18 331.311 119.522 320.1C117.865 308.888 114.026 287.01 114.026 287.01C114.026 287.01 111.581 279.864 103.209 273.62L259.818 371.881Z" fill="#DB315E"/>
<path fill-rule="evenodd" clip-rule="evenodd" d="M325.918 432.642C321.36 437.812 303.128 435.788 303.042 435.776C294.87 431.649 284.734 425.257 284.734 425.257L280.579 401.911C280.579 401.911 278.99 388.765 267.748 378.687C279.925 387.725 300.941 403.52 311.043 407.432C319.433 410.68 327.506 406.206 331.184 402.813C331.154 428.046 330.446 427.508 325.918 432.642Z" fill="#DB315E"/>
<path fill-rule="evenodd" clip-rule="evenodd" d="M93.2974 268.312C85.5899 265.768 78.9759 267.558 78.9759 267.558C78.9759 267.558 73.333 272.732 74.4619 283.973C75.5893 295.216 70.5124 302.013 67.1258 301.326C63.7392 300.637 54.7113 295.83 53.5839 289.804C52.455 283.777 37.6133 236.108 40.0405 225.883C42.7993 214.258 40.2115 219.514 46.7429 208.201L50.8826 210.136C45.0025 218.33 49.6683 216.426 55.0237 236.116C59.3579 252.043 83.8435 264.164 93.2974 268.312Z" fill="#DB315E"/>
<path fill-rule="evenodd" clip-rule="evenodd" d="M57.7495 200.419C69.0523 193.46 141.269 161.861 141.269 161.861C141.269 161.861 157.094 154.616 171.788 161.861C173.591 162.752 175.17 163.529 176.558 164.214C150.816 176.836 100.66 201.277 69.8125 216.13L56.2425 209.823C56.2425 209.823 54.405 208.836 51.6671 205.997C53.3556 204.436 54.895 202.176 57.7495 200.419Z" fill="#F97393"/>
<path fill-rule="evenodd" clip-rule="evenodd" d="M45.1404 210.183C45.1404 210.183 54.1085 210.332 53.631 216.571C53.1536 222.81 48.0376 238.022 44.2106 240.265C41.4198 241.902 40.0658 241.902 40.0658 241.902C40.0658 241.902 35.3105 230.455 39.5484 220.269C43.7849 210.082 45.1404 210.183 45.1404 210.183Z" fill="#D61D1D"/>
<path fill-rule="evenodd" clip-rule="evenodd" d="M37.9721 226.042C39.0909 227.728 39.9825 228.969 40.3733 229.286C41.4384 230.145 45.6172 230.27 49.6846 229.412C47.9352 234.478 45.7639 239.064 43.9087 240.229C41.2466 241.902 39.9543 241.902 39.9543 241.902C39.9543 241.902 37.0466 234.384 37.9721 226.042Z" fill="#C8C6F7"/>
<path fill-rule="evenodd" clip-rule="evenodd" d="M246.547 337.953C244.082 337.953 240.831 338.193 237.09 339.058C228.492 341.046 228.882 350.137 228.886 350.227L226.284 387.586L166.131 350.885L165.252 311.438C165.317 311.091 172.31 270.927 176.671 254.962C180.619 240.513 184.157 229.078 184.822 226.938L235.504 257.398L261.121 327.377L251.344 338.305C250.82 338.214 249.108 337.953 246.547 337.953ZM226.808 388.599L226.84 388.113L229.478 350.231C229.46 349.844 229.115 341.513 237.223 339.637C245.52 337.716 251.336 338.907 251.394 338.917L251.559 338.954L261.801 327.508L261.739 327.338L235.985 256.997L235.896 256.943L184.482 226.042L184.369 226.401C184.331 226.524 180.467 238.823 176.1 254.807C171.732 270.797 164.735 310.992 164.664 311.395L165.548 351.224L165.686 351.308L226.808 388.599Z" fill="#475151"/>
<path fill-rule="evenodd" clip-rule="evenodd" d="M183.766 227.272C183.13 229.042 179.042 240.668 175.6 255.618C171.879 271.779 164.282 312.08 164.206 312.484L165.068 351.791L130.524 328.793C130.098 328.194 125.251 321.205 124.463 312.512C123.742 304.537 120.764 282.528 115.732 276.542C111.182 271.128 96.3726 261.798 94.6824 260.741L93.8957 235.895L137.159 199.021L183.766 227.272ZM165.681 352.916L165.671 352.346L164.791 312.533C164.861 312.189 172.458 271.903 176.174 255.752C179.89 239.615 184.357 227.368 184.403 227.245L184.487 227.014L184.277 226.885L137.102 198.289L136.942 198.428L93.2972 235.625L93.3016 235.77L94.1029 261.08L94.2386 261.165C94.4006 261.266 110.617 271.379 115.282 276.93C119.664 282.139 122.878 301.553 123.876 312.567C124.712 321.786 130.026 329.119 130.082 329.191L130.156 329.264L165.681 352.916Z" fill="#475151"/>
<path fill-rule="evenodd" clip-rule="evenodd" d="M430.393 389.092C430.393 389.092 440.524 375.604 434.14 379.341C423.688 385.46 353.38 418.603 353.38 418.603C353.38 418.603 357.267 425.439 345.986 429.917C334.704 434.397 430.393 389.092 430.393 389.092Z" fill="#992E48"/>
<path fill-rule="evenodd" clip-rule="evenodd" d="M187.669 300.577L176.276 293.444C176.276 293.444 170.395 297.058 170.617 299.678C170.84 302.299 172.521 305.212 176.276 307.591C180.03 309.968 187.591 309.919 188.257 307.133C188.923 304.346 187.669 300.577 187.669 300.577Z" fill="#992E48"/>
<path fill-rule="evenodd" clip-rule="evenodd" d="M185.711 302.314C185.711 302.314 187.643 304.498 184.962 305.054C182.28 305.612 178.507 305.481 176.689 304.476C173.091 302.487 171.837 299.391 171.837 299.391C171.837 299.391 170.611 300.794 170.611 302.349C170.611 303.908 172.741 306.197 175.229 307.659C178.196 309.405 183.384 310.733 183.922 310.637C184.463 310.543 188.699 312.523 190.011 309.99C191.325 307.456 189.283 302.062 187.969 301.778C186.657 301.494 185.711 302.314 185.711 302.314Z" fill="#F97393"/>
<path fill-rule="evenodd" clip-rule="evenodd" d="M116.078 258.073L104.605 251.814C104.605 251.814 99.0405 254.843 99.2502 257.167C99.4612 259.492 101.052 262.254 104.605 264.364C108.159 266.475 116.299 265.976 116.93 263.504C117.56 261.033 116.078 258.073 116.078 258.073Z" fill="#992E48"/>
<path fill-rule="evenodd" clip-rule="evenodd" d="M112.361 258.701C112.361 258.701 114.293 260.885 111.613 261.441C108.931 261.999 105.158 261.868 103.34 260.863C99.7427 258.874 98.4886 255.778 98.4886 255.778C98.4886 255.778 97.262 257.181 97.262 258.737C97.262 260.295 99.3922 262.584 101.881 264.047C104.847 265.792 110.034 267.121 110.572 267.024C111.113 266.931 115.349 268.91 116.663 266.378C117.976 263.843 115.933 258.449 114.619 258.166C113.307 257.881 112.361 258.701 112.361 258.701Z" fill="#F97393"/>
<path fill-rule="evenodd" clip-rule="evenodd" d="M386.691 354.897C386.691 358.182 388.466 360.845 390.655 360.845C392.845 360.845 394.621 358.182 394.621 354.897C394.621 351.613 392.845 348.951 390.655 348.951C388.466 348.951 386.691 351.613 386.691 354.897Z" fill="#992E48"/>
<path fill-rule="evenodd" clip-rule="evenodd" d="M388.674 353.907C388.674 356.644 390.006 358.863 391.648 358.863C393.29 358.863 394.621 356.644 394.621 353.907C394.621 351.17 393.29 348.951 391.648 348.951C390.006 348.951 388.674 351.17 388.674 353.907Z" fill="#F0F0FF"/>
<path fill-rule="evenodd" clip-rule="evenodd" d="M450.128 341.852C450.128 341.852 447.722 332.494 444.455 327.467C439.612 320.017 438.27 319.215 438.27 319.215C438.27 319.215 426.784 330.33 423.511 338.508C420.24 346.688 425.07 352.916 425.07 352.916L450.128 341.852Z" fill="#F0F0FF"/>
<path fill-rule="evenodd" clip-rule="evenodd" d="M364.885 383.142C364.885 383.142 360.792 374.915 356.466 372.535C352.142 370.154 331.82 370.631 326.655 371.309C321.488 371.988 316.322 373.085 315.632 377.227C314.943 381.367 315.632 387.027 315.632 387.027C315.632 387.027 315.632 391.019 319.766 394.221C325.374 398.567 331.389 398.511 331.389 398.511L364.885 383.142Z" fill="#F0F0FF"/>
<path fill-rule="evenodd" clip-rule="evenodd" d="M329.283 379.101C333.147 384.295 336.248 390.429 337.132 393.718L330.995 396.528C330.995 396.528 325.127 396.584 319.657 392.351C315.624 389.231 315.624 385.34 315.624 385.34C315.624 385.34 314.952 379.827 315.624 375.793C316.106 372.901 318.841 371.544 322.201 370.757C325.742 373.864 328.01 377.393 329.283 379.101Z" fill="#F9762D"/>
<path fill-rule="evenodd" clip-rule="evenodd" d="M438.666 319.469C437.707 318.002 438.466 318.408 439.752 317.232C440.892 318.589 442.664 320.905 445.337 324.867C449.239 330.653 452.111 341.416 452.111 341.416L448.38 343.004C448.38 343.004 444.986 329.121 438.666 319.469Z" fill="#F9762D"/>
<path fill-rule="evenodd" clip-rule="evenodd" d="M304.906 210.415L252.209 234.518C247.526 236.66 242.089 236.394 237.642 233.803L224.269 226.018C221.297 224.286 221.495 219.941 224.615 218.487L277.907 193.656C282.132 191.686 287.064 191.944 291.06 194.342L305.327 202.9C308.268 204.666 308.025 208.988 304.906 210.415Z" fill="#687272"/>
<path fill-rule="evenodd" clip-rule="evenodd" d="M278.112 193.653C282.308 191.688 287.207 191.944 291.174 194.337L305.34 202.881C308.261 204.641 308.022 208.956 304.923 210.379L292.708 215.996C284.682 217.737 271.524 219.656 262.644 216.15C258.209 214.399 252.97 211.24 247.924 207.791L278.112 193.653Z" fill="#7E8988"/>
<path fill-rule="evenodd" clip-rule="evenodd" d="M221.2 318.384L218.748 311.285C218.748 311.285 215.303 313.48 216.433 318.384C217.086 321.215 217.21 322.545 220.482 324.432C223.58 326.219 226.117 324.163 226.117 324.163L221.2 318.384Z" fill="#F9762D"/>
<path fill-rule="evenodd" clip-rule="evenodd" d="M380.896 261.725C380.896 261.725 381.894 256.802 380.896 254.262C379.898 251.723 376.779 248.783 376.779 248.783L380.17 247.849C380.17 247.849 382.429 247.714 383.673 251.457C384.916 255.198 385.186 257.158 383.673 259.073C382.159 260.988 380.896 261.725 380.896 261.725Z" fill="#F9762D"/>
<path d="M235.645 35.8596L218.241 25.7628L266.049 20.5532L283.453 30.65L235.645 35.8596Z" fill="#276DAD"/>
<path d="M283.453 30.6509L235.646 35.8605L188 85.7538L188.161 133.767C188.214 152.941 196.003 166.582 209.325 170.61L236.129 178.72L262.773 139.729C275.987 120.395 283.722 97.7841 283.668 78.6108L283.453 30.6509Z" fill="#4189D8"/>
<path d="M212.816 158.793C201.697 155.409 200.408 140.157 200.408 133.712L200.3 90.6931L241.447 47.6742L271.152 44.3981L271.26 78.6629C271.313 95.3119 264.33 115.559 252.513 132.745L230.972 164.271L212.816 158.793Z" fill="#5FA3F8"/>
<path d="M188.107 133.767L187.945 85.753L170.541 75.6561L170.702 123.67C170.756 140.05 176.45 152.349 186.388 158.096L203.792 168.192C193.854 162.446 188.16 150.093 188.107 133.767Z" fill="#276DAD"/>
<path d="M187.946 85.753L170.595 75.6562L218.242 25.7629L235.646 35.8597L187.946 85.753Z" fill="#5FA3F8"/>
<path d="M258.099 68.6205C259.442 67.8686 260.785 67.6538 261.806 68.2446C263.847 69.4261 263.847 73.2393 261.806 76.7839L238.009 118.031C236.29 120.931 234.088 123.186 231.885 124.475C229.683 125.764 227.427 126.086 225.762 125.12L216.415 119.803C214.374 118.621 214.374 114.808 216.415 111.263C217.436 109.491 218.779 108.149 220.122 107.343C221.465 106.591 222.807 106.376 223.828 106.967L230.489 110.726C230.865 110.941 231.402 110.888 231.885 110.565C232.369 110.297 232.906 109.76 233.282 109.115L254.446 72.4874C255.413 70.7688 256.756 69.3724 258.099 68.6205Z" fill="white"/>
</svg>
