<svg width="242" height="247" viewBox="0 0 242 247" fill="none" xmlns="http://www.w3.org/2000/svg">
<g filter="url(#filter0_d)">
<circle cx="121" cy="121.364" r="71" fill="#54A0FF"/>
<circle cx="121" cy="121.364" r="66" stroke="#E7E2E2" stroke-width="10"/>
</g>
<g filter="url(#filter1_d)">
<circle cx="121" cy="117.364" r="71" fill="#54A0FF"/>
<circle cx="121" cy="117.364" r="66" stroke="white" stroke-width="10"/>
</g>
<path d="M140.5 110.698V106.364H110.167V110.698H140.5ZM140.5 128.031V117.198H110.167V128.031H140.5ZM140.5 102.031C141.649 102.031 142.751 102.487 143.564 103.3C144.377 104.113 144.833 105.215 144.833 106.364V128.031C144.833 129.18 144.377 130.282 143.564 131.095C142.751 131.908 141.649 132.364 140.5 132.364H110.167C107.762 132.364 105.833 130.414 105.833 128.031V106.364C105.833 103.959 107.762 102.031 110.167 102.031H140.5ZM101.5 136.698H134V141.031H101.5C100.351 141.031 99.2484 140.574 98.4357 139.762C97.6231 138.949 97.1665 137.847 97.1665 136.698V112.864H101.5V136.698Z" fill="white"/>
<defs>
<filter id="filter0_d" x="0" y="4.36426" width="242" height="242" filterUnits="userSpaceOnUse" color-interpolation-filters="sRGB">
<feFlood flood-opacity="0" result="BackgroundImageFix"/>
<feColorMatrix in="SourceAlpha" type="matrix" values="0 0 0 0 0 0 0 0 0 0 0 0 0 0 0 0 0 0 127 0"/>
<feOffset dy="4"/>
<feGaussianBlur stdDeviation="25"/>
<feColorMatrix type="matrix" values="0 0 0 0 0 0 0 0 0 0 0 0 0 0 0 0 0 0 0.05 0"/>
<feBlend mode="normal" in2="BackgroundImageFix" result="effect1_dropShadow"/>
<feBlend mode="normal" in="SourceGraphic" in2="effect1_dropShadow" result="shape"/>
</filter>
<filter id="filter1_d" x="0" y="0.364258" width="242" height="242" filterUnits="userSpaceOnUse" color-interpolation-filters="sRGB">
<feFlood flood-opacity="0" result="BackgroundImageFix"/>
<feColorMatrix in="SourceAlpha" type="matrix" values="0 0 0 0 0 0 0 0 0 0 0 0 0 0 0 0 0 0 127 0"/>
<feOffset dy="4"/>
<feGaussianBlur stdDeviation="25"/>
<feColorMatrix type="matrix" values="0 0 0 0 0 0 0 0 0 0 0 0 0 0 0 0 0 0 0.05 0"/>
<feBlend mode="normal" in2="BackgroundImageFix" result="effect1_dropShadow"/>
<feBlend mode="normal" in="SourceGraphic" in2="effect1_dropShadow" result="shape"/>
</filter>
</defs>
</svg>
