<svg width="14" height="15" viewBox="0 0 14 15" fill="none" xmlns="http://www.w3.org/2000/svg">
<path d="M1.81494 8.59473C1.26266 8.59473 0.814941 8.14701 0.814941 7.59473C0.814941 7.04244 1.26266 6.59473 1.81494 6.59473L1.81494 8.59473ZM13.2313 6.88762C13.6218 7.27814 13.6218 7.91131 13.2313 8.30183L6.86734 14.6658C6.47681 15.0563 5.84365 15.0563 5.45313 14.6658C5.0626 14.2753 5.0626 13.6421 5.45313 13.2516L11.11 7.59473L5.45312 1.93787C5.0626 1.54735 5.0626 0.914183 5.45312 0.523658C5.84365 0.133134 6.47681 0.133134 6.86734 0.523658L13.2313 6.88762ZM1.81494 6.59473L12.5242 6.59473L12.5242 8.59473L1.81494 8.59473L1.81494 6.59473Z" fill="white"/>
</svg>
