<svg width="14" height="15" viewBox="0 0 14 15" fill="none" xmlns="http://www.w3.org/2000/svg">
<path d="M12.1851 8.59473C12.7373 8.59473 13.1851 8.14701 13.1851 7.59473C13.1851 7.04244 12.7373 6.59473 12.1851 6.59473L12.1851 8.59473ZM0.768701 6.88762C0.378176 7.27814 0.378176 7.91131 0.768701 8.30183L7.13266 14.6658C7.52319 15.0563 8.15635 15.0563 8.54687 14.6658C8.9374 14.2753 8.9374 13.6421 8.54687 13.2516L2.89002 7.59473L8.54688 1.93787C8.9374 1.54735 8.9374 0.914183 8.54688 0.523658C8.15635 0.133134 7.52319 0.133134 7.13266 0.523658L0.768701 6.88762ZM12.1851 6.59473L1.47581 6.59473L1.47581 8.59473L12.1851 8.59473L12.1851 6.59473Z" fill="white"/>
</svg>
