<svg width="14" height="14" viewBox="0 0 14 14" fill="none" xmlns="http://www.w3.org/2000/svg">
<path d="M12.8855 0.19174C12.6299 -0.0639134 12.2166 -0.0639134 11.961 0.19174L6.53862 5.61409L1.11628 0.19174C0.860626 -0.0639134 0.447394 -0.0639134 0.19174 0.19174C-0.0639134 0.447394 -0.0639134 0.860626 0.19174 1.11628L5.61409 6.53862L0.19174 11.961C-0.0639134 12.2166 -0.0639134 12.6299 0.19174 12.8855C0.31924 13.013 0.486625 13.0771 0.65401 13.0771C0.821394 13.0771 0.988779 13.013 1.11628 12.8855L6.53862 7.46316L11.961 12.8855C12.0885 13.013 12.2559 13.0771 12.4232 13.0771C12.5906 13.0771 12.758 13.013 12.8855 12.8855C13.1412 12.6299 13.1412 12.2166 12.8855 11.961L7.46316 6.53862L12.8855 1.11628C13.1412 0.860626 13.1412 0.447394 12.8855 0.19174Z" fill="white"/>
</svg>
