<svg width="62" height="74" viewBox="0 0 62 74" fill="none" xmlns="http://www.w3.org/2000/svg">
<g filter="url(#filter0_d)">
<path d="M52 26.8178C52 35.2761 40.6346 50.3304 34.6261 57.6979C32.7309 60.0219 29.2691 60.0219 27.3739 57.6979C21.3654 50.3304 10 35.2761 10 26.8178C10 15.3205 19.402 6 31 6C42.598 6 52 15.3205 52 26.8178Z" fill="#54A0FF"/>
</g>
<path d="M21.6667 26C21.3 26 21 25.7 21 25.3333V18.6667C21 18.3 21.3 18 21.6667 18H28.3333C28.7 18 29 18.3 29 18.6667C29 19.0333 28.7 19.3333 28.3333 19.3333H22.3333V25.3333C22.3333 25.7 22.0333 26 21.6667 26Z" fill="white"/>
<path d="M40.3333 26C39.9667 26 39.6667 25.7 39.6667 25.3333V19.3333H33.6667C33.3 19.3333 33 19.0333 33 18.6667C33 18.3 33.3 18 33.6667 18H40.3333C40.7 18 41 18.3 41 18.6667V25.3333C41 25.7 40.7 26 40.3333 26Z" fill="white"/>
<path d="M28.3333 38H21.6667C21.3 38 21 37.7 21 37.3333V30.6667C21 30.3 21.3 30 21.6667 30C22.0333 30 22.3333 30.3 22.3333 30.6667V36.6667H28.3333C28.7 36.6667 29 36.9667 29 37.3333C29 37.7 28.7 38 28.3333 38Z" fill="white"/>
<path d="M40.3333 38H33.6667C33.3 38 33 37.7 33 37.3333C33 36.9667 33.3 36.6667 33.6667 36.6667H39.6667V30.6667C39.6667 30.3 39.9667 30 40.3333 30C40.7 30 41 30.3 41 30.6667V37.3333C41 37.7 40.7 38 40.3333 38Z" fill="white"/>
<path fill-rule="evenodd" clip-rule="evenodd" d="M33.4464 31.4891C33.5596 31.7815 33.8594 31.9784 34.2058 31.9784C34.2924 31.9784 34.379 31.9664 34.4523 31.9366C34.872 31.8113 35.0985 31.4056 34.9586 31.0297L34.1085 28.7457C34.167 28.65 34.2 28.5423 34.2 28.4286C34.2 28.1647 34.0224 27.933 33.76 27.8094L31.7609 22.4383C31.6809 22.2772 31.5344 22.1459 31.3478 22.0684C30.9281 21.8953 30.4351 22.0624 30.2486 22.4383L28.2514 27.8041C27.9828 27.9264 27.8 28.1609 27.8 28.4286C27.8 28.5461 27.8352 28.6571 27.8974 28.7552L27.0308 31.0834C26.9109 31.4653 27.1508 31.859 27.5771 31.9724C28.0035 32.0798 28.4432 31.865 28.5698 31.4832L29.4408 29.1429H32.5739L33.4464 31.4891ZM32.0426 27.7143L31.0081 24.9322L29.9725 27.7143H32.0426Z" fill="white"/>
<defs>
<filter id="filter0_d" x="0" y="0" width="62" height="73.4409" filterUnits="userSpaceOnUse" color-interpolation-filters="sRGB">
<feFlood flood-opacity="0" result="BackgroundImageFix"/>
<feColorMatrix in="SourceAlpha" type="matrix" values="0 0 0 0 0 0 0 0 0 0 0 0 0 0 0 0 0 0 127 0"/>
<feOffset dy="4"/>
<feGaussianBlur stdDeviation="5"/>
<feColorMatrix type="matrix" values="0 0 0 0 0 0 0 0 0 0 0 0 0 0 0 0 0 0 0.15 0"/>
<feBlend mode="normal" in2="BackgroundImageFix" result="effect1_dropShadow"/>
<feBlend mode="normal" in="SourceGraphic" in2="effect1_dropShadow" result="shape"/>
</filter>
</defs>
</svg>
