<svg width="24" height="24" viewBox="0 0 24 24" fill="none" xmlns="http://www.w3.org/2000/svg">
<path fill-rule="evenodd" clip-rule="evenodd" d="M12 0C5.37258 0 0 5.37258 0 12C0 18.6274 5.37258 24 12 24C18.6274 24 24 18.6274 24 12C24 5.37258 18.6274 0 12 0ZM12.9771 15.3881C12.8587 15.5128 12.6277 15.538 12.6277 15.538H11.8627C11.8627 15.538 10.1749 15.6376 8.68801 14.1185C7.06654 12.4611 5.63477 9.17277 5.63477 9.17277C5.63477 9.17277 5.55213 8.95707 5.64166 8.85321C5.74245 8.73584 6.01729 8.72847 6.01729 8.72847L7.84597 8.71679C7.84597 8.71679 8.01814 8.74444 8.14147 8.83355C8.24351 8.90729 8.30048 9.04433 8.30048 9.04433C8.30048 9.04433 8.59598 9.77808 8.98726 10.4418C9.75166 11.7378 10.1073 12.0211 10.3664 11.8822C10.7446 11.68 10.6313 10.0503 10.6313 10.0503C10.6313 10.0503 10.6381 9.45914 10.4409 9.19551C10.2882 8.99148 10.0002 8.93187 9.87312 8.91528C9.76982 8.90176 9.93885 8.66701 10.158 8.56193C10.4873 8.404 11.0682 8.39478 11.755 8.40154C12.2903 8.40707 12.4443 8.43964 12.6534 8.48941C13.1387 8.60437 13.1235 8.97276 13.0908 9.76784C13.0811 10.0056 13.0697 10.2816 13.0697 10.6003C13.0697 10.6719 13.0676 10.7483 13.0654 10.8268C13.0541 11.2342 13.0411 11.7006 13.3145 11.8742C13.4547 11.9627 13.7972 11.8871 14.6542 10.459C15.0606 9.78176 15.3648 8.98595 15.3648 8.98595C15.3648 8.98595 15.4318 8.844 15.5351 8.78316C15.6409 8.72109 15.7836 8.74014 15.7836 8.74014L17.7081 8.72847C17.7081 8.72847 18.2866 8.66025 18.3799 8.91713C18.4782 9.18567 18.1639 9.81372 17.3776 10.8424C16.6317 11.8185 16.2687 12.1779 16.302 12.4958C16.3264 12.728 16.5623 12.9381 17.0151 13.3503C17.9603 14.2117 18.2136 14.6649 18.2745 14.7738C18.2795 14.7829 18.2833 14.7895 18.286 14.7938C18.7098 15.484 17.8158 15.538 17.8158 15.538L16.1061 15.5614C16.1061 15.5614 15.7392 15.6327 15.2559 15.307C15.0027 15.1365 14.7553 14.8581 14.5197 14.5929C14.1598 14.1879 13.8274 13.8138 13.5436 13.9022C13.0672 14.0509 13.0816 15.0581 13.0816 15.0581C13.0816 15.0581 13.0854 15.2738 12.9771 15.3881Z" fill="white"/>
</svg>
